<svg width="19" height="33" viewBox="0 0 19 33" fill="none" xmlns="http://www.w3.org/2000/svg">
<path d="M13.962 29.6213C13.962 29.858 13.868 30.085 13.7006 30.2524C13.5333 30.4198 13.3063 30.5138 13.0696 30.5138C12.8329 30.5138 12.6059 30.4198 12.4386 30.2524C12.2712 30.085 12.1772 29.858 12.1772 29.6213V25.5926C12.1772 25.3559 12.2712 25.1289 12.4386 24.9615C12.6059 24.7942 12.8329 24.7001 13.0696 24.7001C13.3063 24.7001 13.5333 24.7942 13.7006 24.9615C13.868 25.1289 13.962 25.3559 13.962 25.5926V29.6213ZM9.97158 29.6213C9.94554 29.838 9.84095 30.0377 9.67767 30.1825C9.5144 30.3273 9.30375 30.4073 9.0855 30.4073C8.86725 30.4073 8.65652 30.3273 8.49325 30.1825C8.32997 30.0377 8.22546 29.838 8.19942 29.6213V25.5926C8.18436 25.4673 8.19601 25.3402 8.23366 25.2198C8.27131 25.0994 8.33411 24.9883 8.41785 24.8939C8.50158 24.7995 8.60437 24.7239 8.71946 24.6722C8.83454 24.6204 8.95932 24.5937 9.0855 24.5937C9.21169 24.5937 9.33638 24.6204 9.45146 24.6722C9.56655 24.7239 9.66934 24.7995 9.75308 24.8939C9.83681 24.9883 9.89961 25.0994 9.93726 25.2198C9.97492 25.3402 9.98664 25.4673 9.97158 25.5926V29.6213ZM5.99375 29.6213C5.96771 29.838 5.86319 30.0377 5.69992 30.1825C5.53665 30.3273 5.326 30.4073 5.10775 30.4073C4.88949 30.4073 4.67877 30.3273 4.5155 30.1825C4.35222 30.0377 4.24771 29.838 4.22167 29.6213V25.5926C4.20661 25.4673 4.21825 25.3402 4.25591 25.2198C4.29356 25.0994 4.35636 24.9883 4.44009 24.8939C4.52383 24.7995 4.62662 24.7239 4.7417 24.6722C4.85679 24.6204 4.98156 24.5937 5.10775 24.5937C5.23393 24.5937 5.35863 24.6204 5.47371 24.6722C5.5888 24.7239 5.69159 24.7995 5.77532 24.8939C5.85906 24.9883 5.92186 25.0994 5.95951 25.2198C5.99716 25.3402 6.00881 25.4673 5.99375 25.5926V29.6213ZM16.8179 22.265H15.6067L13.2354 18.0323C13.1712 17.9106 13.0833 17.8031 12.977 17.7158C12.8707 17.6286 12.7481 17.5635 12.6163 17.5243C12.4845 17.4851 12.3461 17.4726 12.2094 17.4876C12.0727 17.5026 11.9404 17.5447 11.8202 17.6116C11.6981 17.677 11.5903 17.766 11.5029 17.8735C11.4155 17.9809 11.3504 18.1047 11.3112 18.2375C11.2721 18.3704 11.2597 18.5097 11.2748 18.6474C11.29 18.785 11.3324 18.9183 11.3995 19.0395L13.2099 22.316H4.96107L6.77151 19.0395C6.83765 18.9189 6.87934 18.7865 6.8943 18.6499C6.90927 18.5132 6.89722 18.3749 6.85874 18.2429C6.82027 18.1109 6.75618 17.9878 6.67012 17.8805C6.58406 17.7733 6.47769 17.6841 6.35715 17.6179C6.2366 17.5518 6.1042 17.5101 5.96753 17.4951C5.83085 17.4801 5.69256 17.4922 5.56055 17.5307C5.42855 17.5692 5.3054 17.6333 5.19817 17.7193C5.09094 17.8054 5.00175 17.9117 4.93562 18.0323L2.57697 22.316H1.30204C1.10665 22.3214 0.914812 22.3694 0.739985 22.4569C0.565158 22.5443 0.411646 22.6689 0.290136 22.822C0.168625 22.9751 0.0821202 23.153 0.0366921 23.3431C-0.00873609 23.5332 -0.0120447 23.7309 0.0271208 23.9224L1.69727 31.9289C1.74614 32.2306 1.90175 32.5047 2.13575 32.7013C2.36976 32.8978 2.6666 33.0038 2.97219 32.9999H15.1095C15.4104 32.9872 15.6986 32.8752 15.9293 32.6815C16.1599 32.4878 16.3199 32.2231 16.3844 31.9289L18.0418 23.9224C18.0938 23.7298 18.0999 23.5277 18.0595 23.3324C18.0192 23.137 17.9336 22.9539 17.8096 22.7976C17.6856 22.6414 17.5266 22.5164 17.3455 22.4328C17.1644 22.3491 16.9662 22.3091 16.7669 22.316" fill="black"/>
<path d="M8.56915 13.9011C8.63693 13.9713 8.71816 14.0271 8.80797 14.0652C8.89777 14.1034 8.99435 14.123 9.09191 14.123C9.18947 14.123 9.28598 14.1034 9.37578 14.0652C9.46559 14.0271 9.54682 13.9713 9.6146 13.9011L15.6705 7.83251C16.1231 7.38113 16.461 6.82792 16.656 6.21917C16.851 5.61042 16.8974 4.96383 16.7913 4.33348C16.6852 3.70312 16.4297 3.10734 16.0462 2.59596C15.6626 2.08459 15.1623 1.67249 14.5868 1.39415C13.8121 1.03212 12.943 0.923488 12.103 1.0837C11.263 1.24392 10.4949 1.66482 9.9078 2.28659L9.09191 3.10254L8.17393 2.17185C7.72042 1.71975 7.16534 1.38265 6.55506 1.18868C5.94478 0.9947 5.29702 0.949481 4.66571 1.05678C4.0344 1.16408 3.43785 1.42077 2.92592 1.80548C2.41399 2.19018 2.0015 2.69174 1.72282 3.26828C1.36466 4.04378 1.25813 4.91192 1.41818 5.751C1.57822 6.59007 1.99683 7.35803 2.61528 7.94725L8.56915 13.9011Z" stroke="black" stroke-width="1.48" stroke-miterlimit="10"/>
</svg>
