<?xml version="1.0" encoding="utf-8"?>
<!-- Generator: Adobe Illustrator 25.2.1, SVG Export Plug-In . SVG Version: 6.00 Build 0)  -->
<svg version="1.1" id="Layer_1" xmlns="http://www.w3.org/2000/svg" xmlns:xlink="http://www.w3.org/1999/xlink" x="0px" y="0px"
	 viewBox="0 0 1080 1080" style="enable-background:new 0 0 1080 1080;" xml:space="preserve">
<style type="text/css">
	.st0{fill:#020203;}
	.st1{display:none;}
	.st2{fill:#59B1E3;}
	.st3{font-family:'Poppins-Bold';}
	.st4{font-size:50px;}
</style>
<g>
	<g>
		<path class="st0" d="M214.8,633.7c0,0.1-0.5,136.8-0.5,136.8c0,3.6,2.1,6.9,5.3,8.5c0,0,122.3,60.5,122.9,60.8
			c1.3,0.7,2.8,1,4.3,1l0,0c1.3,0,2.6-0.3,3.8-0.8c0.5-0.2,123.6-61,123.6-61c3.4-1.7,5.4-5.1,5.3-8.9c0,0,0.5-137.1,0.5-137.5l0,0
			v-0.1c0-0.2,0-0.4-0.1-0.6c-0.6-3.4-2.9-6.1-6.1-7.3l-122.2-60.2c-2.6-1.3-5.7-1.3-8.3,0l-62.6,30.8c-0.4,0.2-0.8,0.4-1.2,0.6
			L221,624.7c-3.2,1.2-5.5,3.9-6.1,7.2c0,0.2-0.1,0.4-0.1,0.5v0.1C214.8,633,214.8,633.3,214.8,633.7z M449.2,633.7l-41.8,20.6
			l-101.8-50.2l41.8-20.6L449.2,633.7z M356.2,816.1l0.4-115.8l43.4-21.4l-0.2,48.1c0,5.2,4.2,9.4,9.4,9.5l0,0
			c5.2,0,9.4-4.2,9.4-9.4l0.2-57.5l42.1-20.8l-0.4,115.8L356.2,816.1z M245.6,633.7l38.7-19.1l101.8,50.2l-38.7,19.1L245.6,633.7z
			 M233.2,764.7l0.4-115.9l104.2,51.4L337.4,816L233.2,764.7z"/>
		<path class="st0" d="M504.4,584l25.8-22.5c4-3.5,10-3.1,13.4,0.9c3.5,4,3.1,10-0.9,13.4l-25.8,22.5c-1.8,1.6-4,2.4-6.3,2.4
			c-2.7,0-5.3-1.1-7.2-3.3C500,593.5,500.4,587.5,504.4,584z"/>
		<path class="st0" d="M451.5,569.5v-34.2c0-5.3,4.3-9.5,9.5-9.5c5.3,0,9.5,4.3,9.5,9.5v34.2c0,5.3-4.3,9.5-9.5,9.5
			C455.7,579.1,451.5,574.8,451.5,569.5z"/>
		<path class="st0" d="M523.5,639.7h34.2c5.3,0,9.5,4.3,9.5,9.5c0,5.3-4.3,9.5-9.5,9.5h-34.2c-5.3,0-9.5-4.3-9.5-9.5
			S518.3,639.7,523.5,639.7z"/>
	</g>
	<path d="M857.5,384.4c-6.5-10.4-12.5-21.3-18.4-31.9c-2.8-5-5.6-10.1-8.4-15.1c-6.8-11.9-13.6-23.7-20.3-35.6
		c-5.5-9.6-11-19.2-16.5-28.8l-1.4-2.5c-4.4-7.7-8.9-15.6-13.2-23.4c-3-5.4-7-7.7-13.4-7.7c-63.5,0.1-116.8,0.1-170.8,0.1
		c-75.3,0-141.3-0.1-201.6-0.3h-0.1c-9.5,0-14.9,3.2-19.6,11.9c-14.4,26.2-29.5,52.6-44,78.2l-1.5,2.7c-11.9,21-23.6,41.4-35.4,61.4
		c-3.9,6.5-3.5,13.6-2.7,20.4c1.8,16.5,8.7,31.3,20.5,44c6,6.4,13.9,11.5,21.7,16.4l1.4,0.9c4.7,3,6.5,6.2,6.5,11.4
		c0,13.7,0,27.4-0.1,41.2c0,6.3,5.1,11.4,11.4,11.4l0,0c6.3,0,11.4-5.1,11.4-11.4v-40V484l3.5-0.1c30.4-0.5,53.3-12,70-35.2l2.8-3.9
		l2.9,3.9c17.2,23.1,39.5,34.8,66.3,34.9h0.1c26.9,0,49.3-11.7,66.7-34.7l2.8-3.7l2.8,3.7c17.3,23,39.7,34.6,66.4,34.6h0.4
		c27.1-0.1,49.4-11.8,66.3-34.8l2.9-3.9l2.8,3.9c17.1,23.4,40,34.8,70,35.1h3.5v3.5v228.6v3.5h-3.5h-48.6h-3.4l-0.2-3.3
		c0-0.5-0.1-1-0.1-1.4c-0.1-0.9-0.1-1.7-0.1-2.6c0-9.5,0-19,0-28.5c0-20.5,0.1-41.7-0.1-62.6v-3.4c-0.1-21-0.3-42.7-1.3-64
		c-0.4-8.5-4.7-16.6-13.3-24.9c-9.1-8.8-20.8-12.7-38-12.7c-12.8,0-26.1,0.4-39.5,1.1c-13.2,0.7-23.8,6.7-32.4,18.3
		c-6.3,8.4-9.2,18.6-9.3,31.8c-0.1,34.4-0.1,69.4-0.1,103.2c0,12.7,0,25.4,0,38v7.4v3.5h-3.5h-39.1c-6.3,0-11.4,5.1-11.4,11.4l0,0
		c0,6.3,5.1,11.4,11.4,11.4h17.6c18.6,0,37.2,0,55.9,0s37.4,0,56.1,0c44.8,0,79.2,0.1,111.3,0.2h0.1c10.4,0,15.3-4.9,15.3-15.4
		c0.1-96.9,0-171.4-0.1-241.4c0-5.8,2.1-9.3,6.9-11.9c21.6-11.6,35.1-29.5,41.1-54.8C867.3,407.4,865.2,396.7,857.5,384.4z
		 M714.5,711.3c0,1.3-0.1,2.5-0.2,3.7c0,0.5-0.1,1.1-0.1,1.6l-0.2,3.3h-3.3h-81.9h-3.5v-3.5v-2.5V710c0-10.5,0-21.1,0-31.6
		c0-26.6,0-54,0.1-81.1c0.1-12.3,0.2-25.4,1.2-38.2c0.9-11.7,10-19.5,22.4-19.5c2.5,0,5,0,7.5,0c4.6,0,9.1,0,13.7,0
		c4.5,0,9,0,13.5,0h5.6c15.1,0,25.1,10.2,25.2,25.4C714.6,613.8,714.6,662.5,714.5,711.3z M426.1,414.3c-4.7,27.2-28.2,46.9-56,46.9
		h-0.6c-32.2-0.4-52.8-24.5-55.8-47.1l-0.5-4h4h105.5h4.2L426.1,414.3z M564.6,414c-3.2,22.7-24.3,46.9-56.8,46.9
		c-2.6,0-5.2-0.2-7.8-0.5c-23.4-2.7-47.4-26.3-47.6-46.9v-3.6h3.6h105.2h4.1L564.6,414z M689.6,442.2c-6.4,6.9-20.3,18.5-41.6,19
		c-0.4,0-0.8,0-1.2,0c-24,0-51-16.1-56.1-47l-0.7-4.1h4.2h105h3.3l0.2,3.3C703.1,422,698.1,433,689.6,442.2z M329.2,387.1h-5.3
		l2-4.9c0.2-0.6,0.4-1.1,0.6-1.5c0.4-1,0.8-2,1.3-2.9c10.6-18.6,21.1-37.1,31.7-55.6c3-5.3,6-10.5,9.1-15.8
		c7.4-12.9,15-26.2,22.4-39.4c2.7-4.9,6.5-5.3,9.8-5.3c35.4,0,70.8,0,106.1,0c96,0,174.8,0,247.9-0.1c4.7,0,8,1.9,10.2,5.9
		c3.7,6.5,7.3,13.1,11,19.6c5.1,9.2,10.4,18.6,15.6,27.9c5.2,9.3,10.6,18.7,15.8,27.8c3.6,6.2,7.1,12.4,10.6,18.6
		c2.6,4.5,5.1,9,7.7,13.7c1.2,2.2,2.5,4.4,3.7,6.7l2.9,5.3h-6L329.2,387.1L329.2,387.1z M841.9,414c-2.4,19.7-23.2,46.9-56.3,46.9
		c-2.5,0-5-0.2-7.6-0.5c-24.2-3-46.5-24.3-48.6-46.5L729,410h3.9h105.5h4L841.9,414z"/>
	<path class="st1" d="M366.1,719.6h-3.5v-3.5V538.9h-22.7c0,26.8,0,53.5,0,79.7v26c0,28.9,0,57.7,0,86.6c0,6.7,4.6,11.1,11.4,11.1
		c28.3,0,56.6,0,84.8,0h57.8h46.4h8.6v-22.7H366.1z"/>
</g>
<text transform="matrix(1 0 0 1 409.4512 949.6999)" class="st2 st3 st4">Collection</text>
</svg>
