<?xml version="1.0" encoding="utf-8"?>
<!-- Generator: Adobe Illustrator 25.2.1, SVG Export Plug-In . SVG Version: 6.00 Build 0)  -->
<svg version="1.1" id="Layer_1" xmlns="http://www.w3.org/2000/svg" xmlns:xlink="http://www.w3.org/1999/xlink" x="0px" y="0px"
	 viewBox="0 0 1080 1080" style="enable-background:new 0 0 1080 1080;" xml:space="preserve">
<style type="text/css">
	.st0{fill:#020203;}
	.st1{fill:#59B1E3;}
	.st2{font-family:'Poppins-Bold';}
	.st3{font-size:50px;}
</style>
<g>
	<path class="st0" d="M801,520.9L668,393.4l-0.2-0.5l-0.7-0.4L546.6,276.9c-0.5-0.4-1-0.8-1.5-1.2c-3.7-2.4-8.6-1.9-11.8,1.2
		L453,354.1v-26h2.7c5.3,0,9.6-4.3,9.6-9.6v-34.6c0-5.3-4.3-9.6-9.6-9.6H354.2c-5.3,0-9.6,4.3-9.6,9.6v34.6c0,5.3,4.3,9.6,9.6,9.6
		h2.7v118.2L279,520.9c-3.8,3.7-3.9,9.7-0.3,13.6c1.8,1.9,4.3,3,6.9,3c2.5,0,4.8-0.9,6.6-2.7l80.8-77.5l0.1-0.1
		c0.1-0.1,0.2-0.2,0.3-0.4l0,0c0.1-0.1,0.1-0.2,0.2-0.2c0.1-0.1,0.2-0.2,0.3-0.4l0.1-0.1c0.1-0.1,0.1-0.2,0.2-0.3
		c0.1-0.1,0.2-0.3,0.2-0.4l0.1-0.1c0.1-0.1,0.1-0.2,0.2-0.3c0.1-0.1,0.1-0.3,0.2-0.4l0.1-0.1c0.1-0.1,0.1-0.2,0.1-0.3
		c0.1-0.2,0.1-0.4,0.2-0.6v-0.1c0-0.1,0.1-0.2,0.1-0.3c0.1-0.2,0.1-0.4,0.2-0.6c0-0.1,0.1-0.2,0.1-0.3c0-0.2,0.1-0.3,0.1-0.5v-0.1
		c0-0.1,0-0.2,0-0.3c0-0.1,0-0.3,0-0.4v-0.1c0-0.1,0-0.2,0-0.4c0-0.1,0-0.1,0-0.2V327.7c4-1.2,6.9-4.9,6.9-9.2
		c0-5.3-4.3-9.6-9.6-9.6h-9.6v-15.4H446v15.4h-38.6c-5.3,0-9.6,4.3-9.6,9.6c0,5.3,4.3,9.6,9.6,9.6h26.3v44.4l-32.5,31.2
		c-3.8,3.7-3.9,9.7-0.3,13.6c1.8,1.9,4.3,3,6.9,3c2.5,0,4.8-0.9,6.6-2.7L540,297.1l247.7,237.6c1.8,1.7,4.2,2.7,6.6,2.7
		c2.6,0,5.1-1,6.9-3C804.9,530.7,804.8,524.6,801,520.9z"/>
	<path class="st0" d="M450.4,756.9h-93.7v-229c0-5.3-4.3-9.6-9.6-9.6c-5.3,0-9.6,4.3-9.6,9.6v238.6c0,5.3,4.3,9.6,9.6,9.6h103.3
		c5.3,0,9.6-4.3,9.6-9.6C460,761.2,455.6,756.9,450.4,756.9z"/>
	<path class="st0" d="M779.8,597.5L779.8,597.5c0-0.3-0.1-0.5-0.1-0.6c-0.6-3.3-2.9-6.1-6.1-7.2l-58.4-28.8
		c-0.4-0.2-0.8-0.4-1.2-0.6l-62.6-30.8c-2.6-1.3-5.7-1.3-8.3,0L521,589.6c-3.2,1.2-5.5,3.9-6.1,7.3c0,0.2-0.1,0.4-0.1,0.6v0.1l0,0
		c0,0.4,0.5,137.5,0.5,137.5c-0.2,3.7,1.9,7.2,5.3,8.9c0,0,123.1,60.8,123.6,61c1.2,0.5,2.5,0.8,3.8,0.8l0,0c1.5,0,3-0.4,4.3-1
		c0.5-0.3,122.9-60.8,122.9-60.8c3.2-1.6,5.3-4.9,5.3-8.5c0,0-0.5-136.7-0.5-136.8C779.9,598.3,779.9,597.9,779.8,597.5z
		 M647.3,548.4l41.8,20.6l-101.8,50.2l-41.8-20.6L647.3,548.4z M534.1,729.6l-0.4-115.8l42.1,20.8L576,692c0,5.2,4.3,9.4,9.4,9.4
		l0,0c5.2,0,9.4-4.3,9.4-9.5l-0.2-48.1l43.4,21.4l0.4,115.8L534.1,729.6z M647.3,648.8l-38.7-19.1l101.8-50.2l38.7,19.1L647.3,648.8
		z M657.3,781l-0.4-115.9l104.2-51.4l0.4,115.9L657.3,781z"/>
	<path class="st0" d="M490.3,549l-25.8-22.5c-4-3.5-10-3.1-13.4,0.9c-3.5,4-3.1,10,0.9,13.4l25.8,22.5c1.8,1.6,4,2.4,6.3,2.4
		c2.7,0,5.3-1.1,7.2-3.3C494.7,558.4,494.3,552.4,490.3,549z"/>
	<path class="st0" d="M543.2,534.5v-34.2c0-5.3-4.3-9.5-9.5-9.5s-9.5,4.3-9.5,9.5v34.2c0,5.3,4.3,9.5,9.5,9.5
		S543.2,539.7,543.2,534.5z"/>
	<path class="st0" d="M471.2,604.6H437c-5.3,0-9.5,4.3-9.5,9.5c0,5.3,4.3,9.5,9.5,9.5h34.2c5.3,0,9.5-4.3,9.5-9.5
		C480.7,608.9,476.4,604.6,471.2,604.6z"/>
</g>
<text transform="matrix(1 0 0 1 425.2513 949.6998)" class="st1 st2 st3">Shipping</text>
</svg>
