<?xml version="1.0" encoding="UTF-8" standalone="no"?>
<!DOCTYPE svg PUBLIC "-//W3C//DTD SVG 1.1//EN" "http://www.w3.org/Graphics/SVG/1.1/DTD/svg11.dtd">
<svg width="100%" height="100%" viewBox="0 0 591 257" version="1.1" xmlns="http://www.w3.org/2000/svg" xmlns:xlink="http://www.w3.org/1999/xlink" xml:space="preserve" xmlns:serif="http://www.serif.com/" style="fill-rule:evenodd;clip-rule:evenodd;stroke-linejoin:round;stroke-miterlimit:2;">
    <g transform="matrix(1,0,0,1,-128,-158)">
        <path d="M186.36,250.52C186.36,252.46 186.02,253.89 185.33,254.83C184.64,255.77 183.55,256.67 182.05,257.55C181.17,258.05 180.08,258.53 178.77,259C177.46,259.47 176.02,259.87 174.46,260.22C172.9,260.56 171.26,260.83 169.54,261.02C167.82,261.21 166.12,261.3 164.43,261.3C159.93,261.3 155.72,260.69 151.78,259.47C147.85,258.25 144.43,256.41 141.52,253.94C138.62,251.47 136.32,248.4 134.63,244.71C132.94,241.03 132.1,236.75 132.1,231.88C132.1,226.76 133.02,222.29 134.86,218.48C136.7,214.67 139.14,211.5 142.17,208.97C145.2,206.44 148.66,204.55 152.57,203.3C156.47,202.05 160.49,201.43 164.61,201.43C170.54,201.43 175.24,202.38 178.71,204.29C182.18,206.2 183.91,208.68 183.91,211.74C183.91,213.36 183.5,214.77 182.69,215.96C181.88,217.15 180.94,218.08 179.88,218.77C178.32,217.83 176.37,216.91 174.02,216.01C171.68,215.11 169.04,214.65 166.1,214.65C160.85,214.65 156.69,216.15 153.59,219.15C150.5,222.15 148.95,226.3 148.95,231.61C148.95,234.48 149.37,236.97 150.21,239.06C151.05,241.15 152.19,242.87 153.63,244.21C155.07,245.55 156.72,246.55 158.59,247.21C160.46,247.87 162.46,248.19 164.59,248.19C165.96,248.19 167.18,248.07 168.24,247.82C169.3,247.57 170.11,247.29 170.68,246.98L170.68,238.17L160.66,238.17C160.28,237.48 159.92,236.58 159.58,235.45C159.24,234.33 159.07,233.14 159.07,231.89C159.07,229.64 159.58,228.02 160.62,227.02C161.65,226.02 162.98,225.52 164.6,225.52L180.43,225.52C182.3,225.52 183.76,226.04 184.79,227.07C185.82,228.1 186.34,229.55 186.34,231.43L186.34,250.52L186.36,250.52Z" style="fill:white;fill-rule:nonzero;"/>
        <path d="M219.99,261.29C216.3,261.29 212.88,260.77 209.73,259.74C206.58,258.71 203.83,257.16 201.49,255.1C199.15,253.04 197.31,250.45 195.96,247.32C194.62,244.2 193.95,240.54 193.95,236.36C193.95,232.24 194.62,228.69 195.96,225.73C197.3,222.76 199.07,220.33 201.25,218.42C203.44,216.52 205.93,215.11 208.74,214.2C211.55,213.3 214.42,212.84 217.36,212.84C220.67,212.84 223.68,213.34 226.4,214.34C229.12,215.34 231.46,216.71 233.43,218.46C235.4,220.21 236.93,222.3 238.02,224.74C239.11,227.18 239.66,229.83 239.66,232.7C239.66,234.82 239.07,236.45 237.88,237.57C236.69,238.69 235.04,239.41 232.91,239.72L209.77,243.19C210.46,245.25 211.86,246.8 213.99,247.83C216.11,248.86 218.55,249.38 221.3,249.38C223.86,249.38 226.28,249.05 228.56,248.4C230.84,247.74 232.7,246.98 234.13,246.1C235.13,246.73 235.97,247.6 236.66,248.72C237.35,249.84 237.69,251.03 237.69,252.28C237.69,255.09 236.38,257.18 233.76,258.56C231.76,259.62 229.51,260.34 227.01,260.71C224.52,261.11 222.17,261.29 219.99,261.29ZM217.37,224.48C215.87,224.48 214.57,224.73 213.48,225.23C212.39,225.73 211.5,226.37 210.81,227.15C210.12,227.93 209.61,228.81 209.26,229.77C208.92,230.74 208.71,231.72 208.65,232.72L224.67,230.1C224.48,228.85 223.79,227.6 222.61,226.35C221.42,225.1 219.68,224.48 217.37,224.48Z" style="fill:white;fill-rule:nonzero;"/>
        <path d="M263.27,244.15C263.27,245.77 263.79,246.93 264.82,247.62C265.85,248.31 267.3,248.65 269.18,248.65C270.12,248.65 271.08,248.57 272.08,248.42C273.08,248.26 273.95,248.06 274.7,247.81C275.26,248.5 275.75,249.26 276.15,250.11C276.56,250.95 276.76,251.97 276.76,253.15C276.76,255.52 275.87,257.46 274.09,258.96C272.31,260.46 269.17,261.21 264.68,261.21C259.18,261.21 254.95,259.96 251.99,257.46C249.02,254.96 247.54,250.9 247.54,245.28L247.54,205.18C248.23,204.99 249.21,204.79 250.49,204.57C251.77,204.35 253.13,204.24 254.56,204.24C257.31,204.24 259.45,204.72 260.98,205.69C262.51,206.66 263.28,208.7 263.28,211.83L263.28,217.83L275.55,217.83C275.93,218.52 276.28,219.38 276.63,220.41C276.97,221.44 277.14,222.58 277.14,223.83C277.14,226.02 276.66,227.59 275.69,228.56C274.72,229.53 273.43,230.01 271.8,230.01L263.28,230.01L263.28,244.15L263.27,244.15Z" style="fill:white;fill-rule:nonzero;"/>
        <path d="M320.88,237.22C318.13,236.28 315.63,235.33 313.39,234.36C311.14,233.39 309.2,232.22 307.58,230.85C305.96,229.48 304.69,227.84 303.79,225.93C302.88,224.03 302.43,221.7 302.43,218.95C302.43,213.64 304.47,209.39 308.57,206.21C312.66,203.02 318.39,201.43 325.76,201.43C328.44,201.43 330.94,201.62 333.25,201.99C335.56,202.36 337.54,202.94 339.2,203.72C340.85,204.5 342.15,205.5 343.09,206.72C344.03,207.94 344.49,209.36 344.49,210.98C344.49,212.6 344.12,213.99 343.37,215.15C342.62,216.31 341.71,217.29 340.65,218.1C339.27,217.23 337.43,216.46 335.12,215.8C332.81,215.14 330.28,214.82 327.53,214.82C324.72,214.82 322.66,215.21 321.35,215.99C320.04,216.77 319.38,217.76 319.38,218.94C319.38,219.88 319.79,220.64 320.6,221.24C321.41,221.83 322.63,222.38 324.25,222.88L329.22,224.47C335.09,226.34 339.6,228.73 342.76,231.64C345.91,234.54 347.49,238.49 347.49,243.49C347.49,248.8 345.4,253.09 341.21,256.37C337.02,259.65 330.87,261.29 322.75,261.29C319.88,261.29 317.21,261.06 314.74,260.59C312.27,260.12 310.12,259.44 308.28,258.53C306.44,257.63 305,256.5 303.97,255.16C302.94,253.82 302.42,252.27 302.42,250.52C302.42,248.71 302.95,247.16 304.01,245.88C305.07,244.6 306.23,243.62 307.48,242.93C309.23,244.3 311.37,245.49 313.9,246.49C316.43,247.49 319.19,247.99 322.19,247.99C325.25,247.99 327.4,247.52 328.65,246.59C329.9,245.65 330.52,244.56 330.52,243.31C330.52,242.06 330.02,241.11 329.02,240.45C328.02,239.79 326.62,239.15 324.8,238.53L320.88,237.22Z" style="fill:white;fill-rule:nonzero;"/>
        <path d="M379.43,261.29C375.74,261.29 372.32,260.77 369.17,259.74C366.02,258.71 363.27,257.16 360.93,255.1C358.59,253.04 356.75,250.45 355.4,247.32C354.06,244.2 353.39,240.54 353.39,236.36C353.39,232.24 354.06,228.69 355.4,225.73C356.74,222.76 358.51,220.33 360.69,218.42C362.88,216.52 365.37,215.11 368.18,214.2C370.99,213.3 373.86,212.84 376.8,212.84C380.11,212.84 383.12,213.34 385.84,214.34C388.56,215.34 390.9,216.71 392.87,218.46C394.84,220.21 396.37,222.3 397.46,224.74C398.55,227.18 399.1,229.83 399.1,232.7C399.1,234.82 398.51,236.45 397.32,237.57C396.13,238.69 394.48,239.41 392.35,239.72L369.21,243.19C369.9,245.25 371.3,246.8 373.43,247.83C375.55,248.86 377.99,249.38 380.74,249.38C383.3,249.38 385.72,249.05 388,248.4C390.28,247.74 392.14,246.98 393.57,246.1C394.57,246.73 395.41,247.6 396.1,248.72C396.79,249.84 397.13,251.03 397.13,252.28C397.13,255.09 395.82,257.18 393.2,258.56C391.2,259.62 388.95,260.34 386.45,260.71C383.96,261.11 381.62,261.29 379.43,261.29ZM376.81,224.48C375.31,224.48 374.01,224.73 372.92,225.23C371.83,225.73 370.94,226.37 370.25,227.15C369.56,227.93 369.05,228.81 368.7,229.77C368.36,230.74 368.15,231.72 368.09,232.72L384.11,230.1C383.92,228.85 383.23,227.6 382.05,226.35C380.87,225.1 379.12,224.48 376.81,224.48Z" style="fill:white;fill-rule:nonzero;"/>
        <path d="M422.71,244.15C422.71,245.77 423.23,246.93 424.26,247.62C425.29,248.31 426.74,248.65 428.62,248.65C429.56,248.65 430.52,248.57 431.52,248.42C432.52,248.26 433.39,248.06 434.14,247.81C434.7,248.5 435.19,249.26 435.59,250.11C436,250.95 436.2,251.97 436.2,253.15C436.2,255.52 435.31,257.46 433.53,258.96C431.75,260.46 428.61,261.21 424.12,261.21C418.62,261.21 414.39,259.96 411.43,257.46C408.46,254.96 406.98,250.9 406.98,245.28L406.98,205.18C407.67,204.99 408.65,204.79 409.93,204.57C411.21,204.35 412.57,204.24 414,204.24C416.75,204.24 418.89,204.72 420.42,205.69C421.95,206.66 422.72,208.7 422.72,211.83L422.72,217.83L434.99,217.83C435.37,218.52 435.72,219.38 436.07,220.41C436.41,221.44 436.58,222.58 436.58,223.83C436.58,226.02 436.1,227.59 435.13,228.56C434.16,229.53 432.87,230.01 431.24,230.01L422.72,230.01L422.72,244.15L422.71,244.15Z" style="fill:white;fill-rule:nonzero;"/>
    </g>
    <g transform="matrix(1,0,0,1,-128,-158)">
        <path d="M158.43,331.74C154.5,330.4 150.92,329.04 147.7,327.65C144.48,326.27 141.71,324.59 139.39,322.62C137.06,320.65 135.25,318.31 133.96,315.58C132.66,312.85 132.02,309.53 132.02,305.59C132.02,297.99 134.95,291.91 140.8,287.35C146.65,282.79 154.86,280.51 165.4,280.51C169.24,280.51 172.82,280.78 176.13,281.31C179.44,281.85 182.28,282.67 184.64,283.79C187.01,284.91 188.86,286.34 190.2,288.08C191.54,289.82 192.21,291.86 192.21,294.18C192.21,296.51 191.67,298.49 190.6,300.15C189.53,301.81 188.23,303.21 186.71,304.37C184.74,303.12 182.11,302.02 178.8,301.08C175.49,300.14 171.87,299.67 167.94,299.67C163.92,299.67 160.97,300.23 159.09,301.35C157.21,302.47 156.27,303.88 156.27,305.57C156.27,306.91 156.85,308.01 158.01,308.86C159.17,309.71 160.91,310.49 163.24,311.21L170.35,313.49C178.75,316.17 185.21,319.59 189.73,323.75C194.24,327.91 196.5,333.56 196.5,340.71C196.5,348.31 193.5,354.45 187.52,359.15C181.53,363.84 172.73,366.19 161.11,366.19C157,366.19 153.18,365.85 149.65,365.18C146.12,364.51 143.03,363.53 140.4,362.23C137.76,360.94 135.71,359.33 134.23,357.4C132.76,355.48 132.02,353.27 132.02,350.76C132.02,348.17 132.78,345.96 134.3,344.12C135.82,342.29 137.47,340.88 139.26,339.9C141.76,341.87 144.82,343.57 148.45,345C152.07,346.43 156.03,347.15 160.32,347.15C164.7,347.15 167.78,346.48 169.57,345.14C171.36,343.8 172.25,342.24 172.25,340.45C172.25,338.66 171.53,337.3 170.1,336.36C168.67,335.42 166.66,334.51 164.07,333.61L158.43,331.74Z" style="fill:rgb(227,88,88);fill-rule:nonzero;"/>
        <path d="M228.12,285.22C229.64,284.33 231.94,283.48 235.03,282.67C238.11,281.87 241.22,281.46 244.35,281.46C248.82,281.46 252.77,282.11 256.22,283.4C259.66,284.7 261.87,286.73 262.86,289.5C264.47,294.15 266.21,299.56 268.09,305.72C269.97,311.89 271.84,318.26 273.72,324.83C275.6,331.4 277.43,337.88 279.22,344.27C281.01,350.66 282.57,356.32 283.91,361.23C282.84,362.48 281.23,363.49 279.08,364.25C276.93,365.01 274.39,365.39 271.44,365.39C269.3,365.39 267.48,365.21 266.01,364.85C264.53,364.49 263.33,363.96 262.39,363.24C261.45,362.53 260.69,361.59 260.11,360.42C259.53,359.26 259.01,357.92 258.57,356.4L256.16,347.15L231.89,347.15C231.17,349.83 230.46,352.6 229.74,355.46C229.02,358.32 228.31,361.09 227.6,363.77C226.35,364.22 225.03,364.6 223.64,364.91C222.25,365.22 220.58,365.38 218.61,365.38C214.05,365.38 210.68,364.6 208.49,363.03C206.3,361.47 205.2,359.3 205.2,356.53C205.2,355.28 205.38,354.03 205.74,352.78C206.1,351.53 206.5,350.05 206.95,348.36C207.57,345.95 208.45,342.95 209.56,339.38C210.68,335.81 211.91,331.94 213.25,327.78C214.59,323.62 216.02,319.36 217.54,314.98C219.06,310.6 220.49,306.47 221.83,302.58C223.17,298.69 224.4,295.23 225.52,292.19C226.62,289.15 227.49,286.82 228.12,285.22ZM244.21,302.51C242.96,306.26 241.55,310.44 239.99,315.05C238.42,319.66 237.02,324.33 235.77,329.06L252.4,329.06C251.15,324.23 249.87,319.52 248.58,314.91C247.28,310.31 246.1,306.17 245.03,302.51L244.21,302.51Z" style="fill:rgb(227,88,88);fill-rule:nonzero;"/>
        <path d="M338.2,361.39C336.95,362.46 335,363.4 332.37,364.21C329.73,365.01 326.85,365.42 323.72,365.42C319.97,365.42 316.75,364.86 314.07,363.74C311.39,362.62 309.56,361.08 308.57,359.11C307.59,357.05 306.38,354.4 304.95,351.13C303.52,347.87 302.02,344.22 300.46,340.2C298.89,336.18 297.29,331.91 295.63,327.39C293.97,322.88 292.39,318.3 290.87,313.65C289.35,309 287.92,304.44 286.58,299.97C285.24,295.5 284.08,291.3 283.09,287.37C284.34,286.12 286.15,284.98 288.52,283.95C290.89,282.92 293.41,282.41 296.1,282.41C299.41,282.41 302.11,283.1 304.21,284.49C306.31,285.88 307.85,288.45 308.84,292.2C311.25,300.96 313.69,309.34 316.15,317.34C318.61,325.34 321.18,333.68 323.86,342.35L324.66,342.35C327.07,333.95 329.55,324.79 332.1,314.86C334.65,304.94 337.08,295.06 339.41,285.23C341.02,284.43 342.74,283.75 344.57,283.22C346.4,282.68 348.48,282.42 350.8,282.42C354.11,282.42 356.92,283.16 359.25,284.63C361.57,286.11 362.74,288.54 362.74,291.94C362.74,293.91 362.27,296.77 361.33,300.52C360.39,304.27 359.18,308.5 357.71,313.19C356.23,317.88 354.58,322.78 352.75,327.87C350.92,332.97 349.08,337.77 347.25,342.28C345.42,346.8 343.7,350.77 342.09,354.21C340.48,357.66 339.18,360.05 338.2,361.39Z" style="fill:rgb(227,88,88);fill-rule:nonzero;"/>
        <path d="M376.61,295.27C376.61,291.43 377.73,288.39 379.96,286.15C382.19,283.92 385.23,282.8 389.08,282.8L433.33,282.8C433.95,283.78 434.51,285.08 435.01,286.69C435.5,288.3 435.75,290 435.75,291.79C435.75,295.19 435.01,297.6 433.54,299.03C432.06,300.46 430.12,301.18 427.71,301.18L399.4,301.18L399.4,313.65L429.57,313.65C430.19,314.63 430.75,315.91 431.25,317.47C431.74,319.04 431.99,320.71 431.99,322.5C431.99,325.9 431.27,328.31 429.84,329.74C428.41,331.17 426.49,331.89 424.07,331.89L399.4,331.89L399.4,345.97L433.86,345.97C434.48,346.95 435.04,348.25 435.54,349.86C436.03,351.47 436.28,353.17 436.28,354.96C436.28,358.36 435.54,360.79 434.07,362.27C432.59,363.74 430.65,364.48 428.24,364.48L389.09,364.48C385.25,364.48 382.21,363.36 379.97,361.13C377.73,358.9 376.62,355.86 376.62,352.01L376.62,295.27L376.61,295.27Z" style="fill:rgb(227,88,88);fill-rule:nonzero;"/>
    </g>
    <g transform="matrix(1,0,0,1,-128,-158)">
        <path d="M593.11,201.78C577.48,203.68 575.77,225.42 580.24,238.89C583.92,250.06 593.11,261.16 604.74,255.05C606.71,254 609.4,251.04 610.72,248.94C618.47,236.26 613.48,208.61 599.49,202.57C597.97,201.91 595.6,201.45 593.11,201.78" style="fill:white;fill-rule:nonzero;"/>
        <path d="M547.66,216.82C546.22,217.02 543.33,217.81 541.42,219.18C526.77,229.89 541.68,260.82 556.59,266.8C560.01,268.18 565.98,269.23 570.97,265.88C578.06,261.09 577.87,249.2 575.11,240.86C570.84,227.86 561.71,218.99 553.11,216.89C551.73,216.56 549.89,216.49 547.66,216.82" style="fill:white;fill-rule:nonzero;"/>
        <path d="M630.87,230.09C625.48,231.67 621.41,236.2 619.05,240.73C613.27,252.16 615.17,278.76 632.58,278.69C635.93,278.69 639.74,276.52 642.04,274.62C648.94,268.84 652.94,255.51 650.51,245.33C648.14,234.82 640.72,227.26 630.87,230.09" style="fill:white;fill-rule:nonzero;"/>
        <path d="M529.99,263.52C524.67,265.03 521.19,269.37 520.34,273.77C516.99,289.93 535.05,306.74 548.06,306.35C556.53,306.09 561.52,299.78 562.31,294.59C564.35,282.31 554.03,269.76 544.91,265.23C541.28,263.52 535.83,261.88 529.99,263.52" style="fill:white;fill-rule:nonzero;"/>
        <path d="M592.05,273.63C586.4,274.62 581.08,277.83 577.47,281.64C569.13,290.38 563.61,305.35 561.9,318.42C561.44,321.7 560.59,328.67 561.7,333.2C563.87,342.33 571.29,346.8 579.04,345.02C584.56,343.77 589.48,340.23 594.01,337.2C598.28,334.38 602.35,330.11 606.75,328.53C610.56,327.15 616.73,328 622.78,327.68C635.65,326.96 651.02,323.41 647.54,308.96C646.29,303.64 641.23,298.12 638.48,295.04C634.8,291.03 630.66,287.62 627.58,285.25C621.14,280.39 610.57,274.74 601.64,273.43C599.28,272.98 595.14,273.04 592.05,273.63" style="fill:white;fill-rule:nonzero;"/>
    </g>
    <g transform="matrix(1,0,0,1,-128,-158)">
        <path d="M716.94,317.05L652.83,334.23L665.54,346.94L659.54,352.94C616.16,390.05 556.95,394.1 518,355.16C476.98,314.14 478.82,245.79 522.11,202.5C558.38,166.23 612.24,159.07 652.88,181.83L656.95,177.76C609.47,150.19 547.64,156.72 506.98,197.37C458.53,245.82 458.53,324.38 506.98,372.83C554.93,420.78 632.33,421.24 680.89,374.3L686.89,368.3L699.75,381.16L716.94,317.05Z" style="fill:rgb(227,88,88);fill-rule:nonzero;"/>
    </g>
</svg>
