<?xml version="1.0" encoding="utf-8"?>
<!-- Generator: Adobe Illustrator 25.2.1, SVG Export Plug-In . SVG Version: 6.00 Build 0)  -->
<svg version="1.1" id="Layer_1" xmlns="http://www.w3.org/2000/svg" xmlns:xlink="http://www.w3.org/1999/xlink" x="0px" y="0px"
	 viewBox="0 0 1080 586" style="enable-background:new 0 0 1080 586;" xml:space="preserve">
<style type="text/css">
	.st0{fill:#59B1E3;}
</style>
<g>
	<path d="M926.7,83.6c-0.5-0.1-1.1-0.1-1.6-0.1c-0.6,0-1.1,0.1-1.6,0.1c-42.6,0.9-77.2,35.8-77.2,78.8v62.4
		c0,39.9,29.8,73,68.4,78.1V330c0,20.5-16.7,37.2-37.2,37.2h-69.7c-32,0-58.1,26.1-58.1,58.1v79c0,20.5-16.7,37.2-37.2,37.2h-668
		c-5.8,0-10.5,4.7-10.5,10.5s4.7,10.5,10.5,10.5h668c32,0,58.1-26,58.2-58.2v-79c0-20.5,16.7-37.2,37.2-37.2h69.7
		c32,0,58.1-26.1,58.1-58.1v-27.1c38.5-5.2,68.2-38.3,68.2-78.1v-62.4C1003.9,119.6,969.4,84.5,926.7,83.6z M983,224.8
		c0,31.1-24.7,56.6-55.6,57.8c-0.7-0.2-1.5-0.2-2.2-0.2c-0.8,0-1.5,0.1-2.2,0.2c-30.9-1.1-55.8-26.7-55.8-57.8v-62.4
		c0-28.3,20.5-52,47.4-56.9v50c0,5.8,4.7,10.5,10.5,10.5c5.8,0,10.5-4.6,10.5-10.4v-50.1c26.9,5,47.4,28.6,47.4,56.9V224.8z"/>
	<ellipse transform="matrix(0.9939 -0.1104 0.1104 0.9939 -60.7968 8.3076)" class="st0" cx="44.6" cy="553" rx="21.3" ry="21.3"/>
	<g>
		<path d="M963.2,51.6c-1,0-2-0.1-2.9-0.4c-5.5-1.6-8.7-7.4-7.1-13l5.6-19c1.6-5.5,7.4-8.7,13-7.1c5.5,1.6,8.7,7.4,7.1,13l-5.6,19
			C971.9,48.6,967.8,51.6,963.2,51.6z"/>
		<path d="M878.6,60.7c-3.7,0-7.3-2-9.2-5.4l-9.5-17.4c-2.8-5.1-0.9-11.4,4.2-14.2c5.1-2.8,11.4-0.9,14.2,4.2l9.5,17.4
			c2.8,5.1,0.9,11.4-4.2,14.2C882,60.3,880.3,60.7,878.6,60.7z"/>
		<path d="M1025.8,102c-3.7,0-7.3-2-9.2-5.4c-2.8-5.1-0.9-11.4,4.2-14.2l17.4-9.5c5.1-2.8,11.4-0.9,14.2,4.2
			c2.8,5.1,0.9,11.4-4.2,14.2l-17.4,9.5C1029.2,101.6,1027.5,102,1025.8,102z"/>
		<path d="M1057.5,181.9c-1,0-2-0.1-2.9-0.4l-19-5.6c-5.5-1.6-8.7-7.4-7.1-13c1.6-5.5,7.4-8.7,13-7.1l19,5.6c5.5,1.6,8.7,7.4,7.1,13
			C1066.2,178.9,1062.1,181.9,1057.5,181.9z"/>
	</g>
	<g>
		<path class="st0" d="M728.9,267.2c-7.7,0-15.3-3.7-22.7-11l-5.5-5.2c-8.1,6.2-17.1,10.6-27,13.1s-19.3,3.8-28.2,3.8
			c-11.4,0-21.5-1.5-30.2-4.5s-16.1-7.1-22.1-12.3s-10.6-11.4-13.7-18.4c-3.1-7.1-4.6-14.8-4.6-23.1c0-6.8,1-12.9,3-18.4
			s4.7-10.5,8.1-14.8c3.4-4.4,7.3-8.1,11.8-11.3s9.2-5.9,14.2-8c-5.2-6.8-8.5-12.5-9.7-17.1c-1.3-4.6-1.9-9-1.9-13.1
			c0-6,1.2-11.7,3.6-17.1c2.4-5.4,5.9-10.2,10.5-14.2c4.5-4.1,10.2-7.3,17-9.6c6.8-2.3,14.5-3.5,23.2-3.5c12.2,0,20.8,2.2,25.9,6.5
			c5,4.4,7.6,9.9,7.6,16.7c0,3.1-0.6,6.2-1.9,9.4c-1.3,3.2-3.2,6.1-5.7,8.6c-2.1-1-4.6-1.7-7.4-2.3c-2.8-0.6-5.8-0.9-8.9-0.9
			c-5,0-9.2,1.1-12.5,3.3c-3.3,2.2-4.9,5.6-4.9,10c0,2.9,1.1,5.7,3.2,8.3c2.1,2.6,5.4,6.2,9.9,10.6l36.9,36c1.4-6,2.2-12.2,2.6-18.4
			c0.4-6.3,0.6-11.9,0.6-16.7c3.7-1.5,7.1-2.7,10.3-3.3c3.2-0.7,6.4-1,9.7-1c4.6,0,8.4,0.7,11.3,2c2.9,1.4,5.2,3.2,6.8,5.7
			c1.6,2.4,2.8,5.3,3.3,8.6c0.6,3.3,0.9,6.9,0.9,10.7c0,6.8-0.9,14-2.8,21.6c-1.8,7.7-4.9,15.4-9.2,23.1l22.4,21.5
			c-0.4,7.4-2.9,13.4-7.6,18C740.8,264.8,735.3,267.2,728.9,267.2z M648.4,230c2.3,0,5.8-0.4,10.3-1.2s9.3-2.7,14.4-5.8l-37.5-37.5
			c-4.3,1.9-7.7,4.7-10.3,8.4s-3.9,7.7-3.9,12.2c0,6.8,2.3,12.4,6.8,17C632.8,227.7,639.5,230,648.4,230z"/>
		<g>
			<path class="st0" d="M117.8,352.1c0,3.6-0.9,6.8-2.7,9.4c-1.8,2.7-3.9,4.7-6.3,6.3c-3.6-2.4-7.5-4.4-11.6-6.1s-8.9-2.5-14.3-2.5
				c-10.7,0-19,3.3-24.7,9.9S49.6,385,49.6,397c0,12.4,3.1,21.8,9.3,28.1c6.2,6.3,14.8,9.5,25.8,9.5c5.7,0,10.6-0.8,14.5-2.3
				c4-1.5,7.8-3.3,11.4-5.2c2.4,2,4.2,4.3,5.5,7s2,5.9,2,9.5c0,3.2-0.8,6.1-2.5,8.8c-1.7,2.7-4.5,4.9-8.6,6.7
				c-2.5,1.1-6.1,2.2-10.7,3.3c-4.6,1.1-10.2,1.7-16.7,1.7c-9.5,0-18.3-1.3-26.6-4c-8.2-2.6-15.4-6.7-21.5-12.1
				s-10.9-12.4-14.4-20.8s-5.2-18.5-5.2-30.2c0-10.9,1.7-20.5,5.1-28.9s8.1-15.4,14-21.1s12.9-10,20.8-13c7.9-2.9,16.5-4.4,25.5-4.4
				c12.8,0,22.8,2.1,29.8,6.3C114.3,340.2,117.8,345.6,117.8,352.1z"/>
			<path class="st0" d="M237.5,409.7c0,8.4-1.3,15.9-3.9,22.6c-2.6,6.7-6.3,12.4-11.1,17c-4.8,4.7-10.6,8.3-17.3,10.8
				s-14.2,3.8-22.6,3.8c-8.4,0-15.9-1.2-22.6-3.7c-6.7-2.4-12.4-6-17.3-10.7c-4.8-4.7-8.5-10.4-11.1-17c-2.6-6.7-3.9-14.3-3.9-22.8
				c0-8.2,1.3-15.7,4-22.4c2.6-6.7,6.4-12.4,11.2-17c4.8-4.7,10.6-8.3,17.3-10.8s14.2-3.8,22.4-3.8s15.7,1.3,22.4,3.9
				s12.4,6.2,17.3,10.9c4.8,4.7,8.5,10.4,11.2,17C236.2,394.2,237.5,401.6,237.5,409.7z M182.7,383.5c-5.9,0-10.4,2.3-13.6,6.8
				c-3.2,4.5-4.8,11-4.8,19.4c0,8.8,1.6,15.4,4.8,19.8s7.7,6.6,13.6,6.6c5.9,0,10.4-2.2,13.6-6.7c3.2-4.5,4.8-11,4.8-19.7
				c0-8.4-1.6-14.8-4.8-19.4C193.1,385.8,188.6,383.5,182.7,383.5z"/>
			<path class="st0" d="M275.6,462.2c-7,0-12-1.2-15.1-3.5s-4.6-6.7-4.6-13.3V324.1c1.5-0.4,3.7-0.8,6.6-1.3c2.9-0.4,6-0.6,9.3-0.6
				c7,0,12,1.2,15.1,3.5s4.6,6.7,4.6,13.3v121.3c-1.5,0.4-3.7,0.8-6.6,1.3C282,462,278.9,462.2,275.6,462.2z"/>
			<path class="st0" d="M335,462.2c-7,0-12-1.2-15.1-3.5s-4.6-6.7-4.6-13.3V324.1c1.5-0.4,3.7-0.8,6.6-1.3c2.9-0.4,6-0.6,9.3-0.6
				c7,0,12,1.2,15.1,3.5s4.6,6.7,4.6,13.3v121.3c-1.5,0.4-3.7,0.8-6.6,1.3C341.4,462,338.3,462.2,335,462.2z"/>
			<path class="st0" d="M404.2,423.7c2,5,5.2,8.5,9.8,10.6c4.6,2,9.8,3,15.5,3c5.9,0,11.4-0.7,16.7-2.2c5.3-1.5,9.6-3.2,12.8-5.1
				c2.2,1.4,4.1,3.3,5.6,5.9c1.5,2.5,2.3,5.2,2.3,7.9c0,3.5-1,6.5-2.9,9c-2,2.5-4.7,4.6-8.3,6.3c-3.6,1.7-7.8,2.9-12.7,3.7
				c-4.9,0.8-10.2,1.2-16.1,1.2c-8.2,0-15.9-1.2-22.9-3.5s-13.1-5.8-18.3-10.4c-5.2-4.6-9.2-10.4-12.1-17.4s-4.4-15.1-4.4-24.5
				c0-9.2,1.5-17.1,4.5-23.7s7-12.1,11.9-16.3c4.9-4.3,10.6-7.4,16.8-9.4c6.3-2,12.7-3,19.2-3c7.4,0,14.1,1.1,20.2,3.3
				c6.1,2.2,11.3,5.3,15.7,9.2c4.4,3.9,7.8,8.6,10.1,14c2.4,5.4,3.6,11.4,3.6,17.8c0,4.7-1.3,8.4-4,10.9s-6.3,4.1-11.1,4.8
				L404.2,423.7z M422,381.6c-5.3,0-9.7,1.6-13.3,4.8c-3.6,3.2-5.7,7.7-6.4,13.6l35.6-5.9c-0.1-1.4-0.6-2.8-1.3-4.3
				c-0.7-1.5-1.7-2.8-2.9-4.1c-1.3-1.3-2.9-2.3-4.8-3C427,382,424.7,381.6,422,381.6z"/>
			<path class="st0" d="M545.9,383.7c-3.5,0-6.8,0.6-9.9,1.7c-3.1,1.1-5.9,2.8-8.2,5s-4.2,5-5.5,8.3c-1.4,3.3-2.1,7.1-2.1,11.4
				c0,8.6,2.4,15.1,7.3,19.2c4.9,4.2,10.9,6.3,18.2,6.3c4.2,0,7.9-0.5,11.1-1.6c3.2-1,6-2.1,8.4-3.2c2.6,2,4.6,4,6,6.3
				c1.3,2.2,2,5,2,8.2c0,5.6-2.8,10-8.3,13.4c-5.5,3.3-13.4,5-23.5,5c-8.8,0-16.7-1.2-23.7-3.5s-13-5.7-18-10.3
				c-5-4.5-8.8-10.1-11.4-16.7c-2.7-6.6-4-14.3-4-23.1c0-9.2,1.5-17.2,4.5-24.1c3-6.8,7.1-12.5,12.2-16.9c5.2-4.5,11.1-7.8,17.9-10
				s13.9-3.3,21.4-3.3c10,0,17.8,1.8,23.2,5.4s8.2,8.3,8.2,14c0,2.7-0.6,5.1-1.9,7.4c-1.3,2.3-2.7,4.3-4.4,6
				c-2.4-1.1-5.2-2.2-8.6-3.2C553.4,384.3,549.8,383.7,545.9,383.7z"/>
			<path class="st0" d="M629.5,463.6c-12.3,0-21.7-2.8-28.3-8.4s-9.9-14.6-9.9-27.2v-92.9c1.5-0.4,3.7-0.9,6.6-1.4
				c2.9-0.5,5.9-0.7,9.1-0.7c6.8,0,11.8,1.2,14.9,3.6c3.1,2.4,4.6,6.8,4.6,13.2v11.3h27.4c0.8,1.5,1.6,3.5,2.4,5.8
				c0.8,2.3,1.2,4.8,1.2,7.6c0,4.9-1.1,8.4-3.2,10.6c-2.2,2.2-5.1,3.2-8.7,3.2h-19v37.2c0,3.6,1.2,6.2,3.5,7.7s5.5,2.3,9.7,2.3
				c2.1,0,4.3-0.2,6.5-0.5s4.2-0.8,5.9-1.4c1.3,1.5,2.3,3.2,3.2,5.1s1.4,4.2,1.4,6.8c0,5.3-2,9.6-6,13
				C646.6,462,639.6,463.6,629.5,463.6z"/>
		</g>
		<g>
			<g>
				<path d="M138.1,135.1c0,4.3-1.1,8-3.2,11.1c-2.1,3.1-4.6,5.6-7.4,7.4c-4.3-2.8-8.8-5.2-13.7-7.2c-4.9-2-10.5-3-16.9-3
					c-12.7,0-22.4,3.9-29.1,11.7S57.7,173.9,57.7,188c0,14.6,3.7,25.7,11,33.2s17.5,11.2,30.5,11.2c6.7,0,12.5-0.9,17.1-2.7
					c4.7-1.8,9.2-3.9,13.4-6.2c2.8,2.3,5,5.1,6.5,8.3c1.6,3.2,2.3,6.9,2.3,11.2c0,3.8-1,7.2-3,10.4c-2,3.1-5.3,5.8-10.1,7.9
					c-3,1.3-7.2,2.6-12.6,3.9s-12,2-19.7,2c-11.2,0-21.6-1.6-31.3-4.7s-18.2-7.9-25.4-14.3c-7.2-6.4-12.9-14.6-17-24.5
					s-6.2-21.8-6.2-35.6c0-12.8,2-24.2,6-34c4-9.9,9.5-18.2,16.5-24.9s15.2-11.8,24.5-15.3c9.4-3.5,19.4-5.2,30.1-5.2
					c15.1,0,26.8,2.5,35.2,7.4C134,121,138.1,127.3,138.1,135.1z"/>
				<path d="M182.8,264.8c-8.2,0-14.1-1.4-17.8-4.1c-3.6-2.7-5.4-7.9-5.4-15.7V102c1.8-0.5,4.4-1,7.8-1.5c3.4-0.5,7-0.7,11-0.7
					c8.2,0,14.1,1.4,17.8,4.1c3.6,2.7,5.4,7.9,5.4,15.7v143.1c-1.8,0.5-4.4,1-7.8,1.5C190.4,264.6,186.7,264.8,182.8,264.8z"/>
				<path d="M227.5,109.7c0-6.2,2.1-11.5,6.3-15.8s9.7-6.4,16.7-6.4c6.9,0,12.5,2.1,16.7,6.4s6.3,9.5,6.3,15.8s-2.1,11.5-6.3,15.8
					c-4.2,4.3-9.7,6.4-16.7,6.4c-6.9,0-12.5-2.1-16.7-6.4C229.6,121.2,227.5,115.9,227.5,109.7z M229.4,144.7c1.8-0.5,4.4-1,7.8-1.5
					c3.4-0.5,7-0.7,11-0.7c8.2,0,14.1,1.4,17.8,4.1c3.6,2.7,5.4,7.9,5.4,15.7v100.4c-1.8,0.5-4.4,1-7.8,1.5s-7,0.7-11,0.7
					c-8.2,0-14.1-1.4-17.8-4.1c-3.6-2.7-5.4-7.9-5.4-15.7L229.4,144.7L229.4,144.7z"/>
				<path d="M365.6,172.3c-4.1,0-8,0.7-11.7,2s-6.9,3.3-9.6,5.9c-2.7,2.6-4.9,5.9-6.5,9.7c-1.6,3.9-2.5,8.3-2.5,13.4
					c0,10.2,2.9,17.8,8.6,22.7c5.8,4.9,12.9,7.4,21.5,7.4c4.9,0,9.3-0.6,13.1-1.8c3.8-1.2,7.1-2.5,9.9-3.8c3.1,2.3,5.5,4.8,7,7.4
					c1.6,2.6,2.3,5.8,2.3,9.6c0,6.6-3.2,11.8-9.7,15.8c-6.5,3.9-15.8,5.9-27.8,5.9c-10.4,0-19.7-1.4-28-4.1s-15.4-6.7-21.2-12.1
					c-5.8-5.3-10.3-11.9-13.4-19.7s-4.7-16.9-4.7-27.3c0-10.9,1.8-20.3,5.3-28.4c3.5-8.1,8.3-14.7,14.4-20s13.1-9.2,21.1-11.8
					s16.4-3.9,25.3-3.9c11.8,0,21,2.1,27.4,6.4c6.4,4.3,9.6,9.8,9.6,16.5c0,3.1-0.7,6-2.2,8.8c-1.5,2.7-3.2,5.1-5.2,7
					c-2.8-1.3-6.2-2.6-10.1-3.8C374.5,172.9,370.2,172.3,365.6,172.3z"/>
				<path d="M453.3,264.1c-3.4,0.5-7,0.7-11,0.7c-8.2,0-14.1-1.4-17.8-4.1c-3.6-2.7-5.4-7.9-5.4-15.7V102c1.8-0.5,4.4-1,7.8-1.5
					s7-0.7,11-0.7c8.2,0,14.1,1.4,17.8,4.1c3.6,2.7,5.4,7.9,5.4,15.7v65.1l42.4-43.4c8.6,0,15.4,1.9,20.6,5.7s7.8,8.6,7.8,14.3
					c0,2.5-0.4,4.7-1.2,6.8s-2.1,4.2-3.8,6.3s-3.9,4.4-6.7,6.8c-2.7,2.4-5.9,5.1-9.5,8.3l-14.6,12.6l39.7,39.2
					c-0.8,7.7-3.1,13.7-6.8,17.8s-9.1,6.2-16.2,6.2c-5.3,0-10-1.3-14.1-3.8s-8.6-6.9-13.3-13L461.1,218v44.7
					C459.3,263.1,456.7,263.6,453.3,264.1z"/>
			</g>
		</g>
	</g>
</g>
</svg>
