<?xml version="1.0" encoding="UTF-8"?>
<svg width="30px" height="32px" viewBox="0 0 30 32" version="1.1" xmlns="http://www.w3.org/2000/svg" xmlns:xlink="http://www.w3.org/1999/xlink">
    <!-- Generator: sketchtool 55.1 (78136) - https://sketchapp.com -->
    <title>D9706ACF-2F83-44C8-967A-0FF372718707</title>
    <desc>Created with sketchtool.</desc>
    <g id="Layouts" stroke="none" stroke-width="1" fill="none" fill-rule="evenodd">
        <g id="Iconography" transform="translate(-383.000000, -596.000000)" fill="#000000">
            <g id="Generic" transform="translate(120.000000, 594.000000)">
                <path d="M279.069804,18.0229442 C279.765058,17.9047006 280.675717,17.8872849 281.182148,17.9624475 C283.171206,18.2571398 285.520037,19.508322 286.960501,20.5949714 C287.653005,21.1192763 288.57558,21.8832766 289.388619,22.7751449 C290.006877,23.4520665 291.126525,24.6922493 291.410676,25.8714771 C292.187051,29.0943023 288.761195,29.8858011 285.900433,30.0448342 C284.567214,30.1195384 283.184956,29.9247573 282.336168,30.2322823 C281.350805,30.5874714 280.450229,31.5357117 279.496489,32.1681774 C278.485919,32.8382244 277.389186,33.6288065 276.165045,33.9129578 C274.44318,34.3121445 272.792352,33.3217398 272.30792,31.2822671 C272.067767,30.2744467 272.258881,28.7276556 272.355584,27.9975701 C272.737355,25.0891445 273.968372,21.7609082 275.823605,19.8103473 C276.631603,18.9611017 277.815872,18.2355993 279.069804,18.0229442 Z M265.247128,15.7826406 C266.55514,15.4178271 267.765533,15.7725578 268.575364,16.1722028 C270.608421,17.1791066 272.89538,19.9761633 272.446696,22.7072236 C272.258331,23.8607861 271.151058,25.2737511 269.266035,25.3250817 C266.375025,25.405744 262.346494,21.6567805 263.08987,18.0622671 C263.291067,17.0892781 264.066525,16.1126227 265.247128,15.7826406 Z M279.306566,2.02174494 C279.869369,1.95345697 280.395507,2.05565977 280.714948,2.19406893 C283.838779,3.54882882 284.940552,9.71032814 283.217312,12.5248006 C282.930869,12.9922752 282.330485,13.6577392 281.891884,13.8887266 C279.298775,15.247153 277.25976,12.7823699 276.435263,10.2951298 C275.439817,7.29137594 275.82113,2.45026337 279.306566,2.02174494 Z M269.188444,5.37761718 C269.675625,5.30932922 270.089936,5.32216186 270.405711,5.40099092 C272.311816,5.87488189 274.357247,7.840567 275.30457,10.742118 C275.909538,12.5941426 275.964076,15.243624 274.377412,16.3096496 C273.268306,17.0553175 271.939211,16.8211218 271.178877,16.5172633 C267.856599,15.1877104 264.538446,8.28604285 267.801602,5.90833841 C268.220954,5.60310496 268.867628,5.4216148 269.188444,5.37761718 Z M287.723951,8.32866554 C289.915124,7.69665814 291.56366,9.38140014 292.114088,11.7054825 C292.652142,13.9709013 291.758899,16.9439485 290.227232,18.2322537 C289.714385,18.6626053 288.855973,19.1424543 288.113972,19.1457092 C284.232557,19.1649114 283.804039,13.2321081 285.097385,10.6926207 C285.610232,9.68480036 286.520433,8.67514676 287.723951,8.32866554 Z" id="Icon---Generic"></path>
            </g>
        </g>
    </g>
</svg>