<?xml version="1.0" encoding="utf-8"?>
<!-- Generator: Adobe Illustrator 23.1.1, SVG Export Plug-In . SVG Version: 6.00 Build 0)  -->
<svg version="1.1" id="Layer_1" xmlns="http://www.w3.org/2000/svg" xmlns:xlink="http://www.w3.org/1999/xlink" x="0px" y="0px"
	 viewBox="0 0 24 24" style="enable-background:new 0 0 24 24;" xml:space="preserve">
<style type="text/css">
	.st0{fill:none;}
	.st1{fill:#FFFFFF;}
</style>
<rect x="0" y="0" class="st0" width="24" height="24"/>
<path class="st1" d="M17.9,8.7H6.1c-0.4,0-0.7-0.3-0.7-0.7s0.3-0.7,0.7-0.7h11.7c0.4,0,0.7,0.3,0.7,0.7S18.2,8.7,17.9,8.7z"/>
<path class="st1" d="M15.3,19.2H8.7c-1.1,0-2-0.9-2-2V8.1c0-0.4,0.3-0.7,0.7-0.7s0.7,0.3,0.7,0.7v9.1c0,0.4,0.3,0.7,0.7,0.7h6.5
	c0.4,0,0.7-0.3,0.7-0.7V8.1c0-0.4,0.3-0.7,0.7-0.7s0.7,0.3,0.7,0.7v9.1C17.2,18.3,16.3,19.2,15.3,19.2z M14.6,8.7
	c-0.4,0-0.7-0.3-0.7-0.7V6.8c0-0.4-0.3-0.7-0.7-0.7h-2.6c-0.4,0-0.7,0.3-0.7,0.7v1.3c0,0.4-0.3,0.7-0.7,0.7S8.7,8.5,8.7,8.1V6.8
	c0-1.1,0.9-2,2-2h2.6c1.1,0,2,0.9,2,2v1.3C15.3,8.5,15,8.7,14.6,8.7z"/>
<path class="st1" d="M10.7,15.9c-0.4,0-0.7-0.3-0.7-0.7v-3.9c0-0.4,0.3-0.7,0.7-0.7s0.7,0.3,0.7,0.7v3.9
	C11.3,15.6,11.1,15.9,10.7,15.9z"/>
<path class="st1" d="M13.3,15.9c-0.4,0-0.7-0.3-0.7-0.7v-3.9c0-0.4,0.3-0.7,0.7-0.7S14,11,14,11.3v3.9C14,15.6,13.7,15.9,13.3,15.9z
	"/>
</svg>
