<svg width="39" height="32" viewBox="0 0 39 32" fill="none" xmlns="http://www.w3.org/2000/svg">
<path d="M26.7082 23.6136C26.7467 23.749 26.8118 23.8755 26.8996 23.9857C26.9874 24.0958 27.0961 24.1875 27.2195 24.2553C27.343 24.3231 27.4786 24.3658 27.6187 24.3808C27.7587 24.3958 27.9005 24.3829 28.0355 24.3428C29.0893 24.085 30.1758 23.9867 31.2587 24.0511C28.9981 28.1641 23.5578 29.7831 19.5907 29.7831C15.6235 29.7831 10.1978 28.1641 7.92256 24.0949C9.00333 24.0022 10.0921 24.086 11.146 24.3428C11.4076 24.3906 11.6776 24.3401 11.9043 24.201C12.1309 24.0619 12.2982 23.844 12.3741 23.5892C12.45 23.3343 12.4292 23.0604 12.3155 22.82C12.2019 22.5795 12.0035 22.3895 11.7585 22.2863C10.2492 21.8697 8.67006 21.7704 7.12049 21.9946C6.97502 21.3724 6.89189 20.7372 6.87248 20.0985C7.72144 20.0718 8.56897 20.1851 9.38107 20.434C9.65365 20.5071 9.94399 20.4721 10.1913 20.3362C10.4387 20.2003 10.6239 19.974 10.7084 19.7047C10.7485 19.5697 10.7613 19.4281 10.7463 19.288C10.7313 19.148 10.6888 19.0123 10.6209 18.8888C10.5531 18.7654 10.4614 18.6566 10.3512 18.5689C10.2411 18.4811 10.1146 18.416 9.97911 18.3775C9.03132 18.1025 8.04896 17.9649 7.06209 17.9691C7.22032 16.7409 7.56967 15.5451 8.09758 14.4249C8.21337 14.216 8.24477 13.9707 8.18517 13.7394L7.58713 10.064C7.4192 9.14496 7.33614 8.21246 7.33912 7.27823C7.34742 5.79993 7.5485 4.32902 7.93716 2.9027C7.99463 2.71301 8.11291 2.54744 8.27366 2.43149C8.43441 2.31554 8.6287 2.25563 8.82683 2.26095C8.94046 2.25821 9.05352 2.27879 9.15888 2.32144C9.26424 2.36409 9.35974 2.42788 9.43947 2.50889C11.1293 4.02687 12.4852 5.87945 13.4212 7.94914C13.5428 8.21546 13.7613 8.42551 14.0322 8.53658C14.3031 8.64765 14.6061 8.65142 14.8797 8.54713C17.925 7.51139 21.2273 7.51139 24.2726 8.54713C24.5467 8.64448 24.847 8.63728 25.1162 8.52695C25.3853 8.41661 25.6042 8.21087 25.7311 7.94914C26.6928 5.86656 28.0671 4.00089 29.771 2.46514C29.8491 2.38592 29.9423 2.32314 30.045 2.28056C30.1478 2.23797 30.2579 2.21643 30.3691 2.2172C30.5697 2.2102 30.7668 2.27123 30.9283 2.39038C31.0898 2.50954 31.2062 2.6798 31.2587 2.87352C31.655 4.32812 31.8562 5.82895 31.8568 7.33656C31.8557 8.25548 31.7776 9.17269 31.6234 10.0786L31.0109 13.754C30.979 13.9862 31.0091 14.2227 31.0983 14.4395C31.6345 15.5576 31.9889 16.754 32.1484 17.9837C31.1614 17.9781 30.1789 18.1157 29.2314 18.3921C29.0822 18.4193 28.9406 18.4777 28.8155 18.5634C28.6904 18.649 28.5846 18.7601 28.5053 18.8894C28.426 19.0186 28.3748 19.1631 28.3551 19.3134C28.3354 19.4638 28.3476 19.6166 28.3909 19.762C28.4342 19.9073 28.5077 20.0418 28.6065 20.1569C28.7052 20.2719 28.8271 20.3649 28.9642 20.4297C29.1013 20.4945 29.2505 20.5296 29.4021 20.5329C29.5537 20.5361 29.7043 20.5074 29.844 20.4486C30.6585 20.2367 31.4965 20.1289 32.338 20.1277C32.3249 20.7669 32.2419 21.4027 32.0902 22.0238C30.5463 21.7981 28.9725 21.8924 27.4667 22.3009C27.1972 22.3824 26.9689 22.5635 26.828 22.8073C26.6872 23.0511 26.6443 23.3394 26.7082 23.6136ZM38.3763 20.0985C37.2644 19.1598 35.9359 18.5131 34.5112 18.2171C34.3485 16.7074 33.9551 15.2317 33.3445 13.8415L33.8987 10.5307C34.0733 9.50389 34.1708 8.46544 34.1904 7.42407C34.1777 5.71 33.9474 4.00449 33.5049 2.34846C33.3162 1.67056 32.9099 1.07349 32.3485 0.649189C31.7872 0.224883 31.1019 -0.00313301 30.3983 0.000251827C30.0018 -0.00488121 29.6083 0.0685023 29.2403 0.216193C28.8723 0.363884 28.5372 0.582956 28.2543 0.860768C26.5802 2.37329 25.1875 4.1708 24.1412 6.16975C21.2002 5.36722 18.0979 5.36722 15.1569 6.16975C14.0999 4.18625 12.7084 2.4001 11.0438 0.889945C10.4567 0.336462 9.67739 0.0330831 8.87063 0.0440054C8.16697 0.0406206 7.48172 0.268636 6.92037 0.692943C6.35902 1.11725 5.9527 1.71432 5.76399 2.39221C5.31876 4.03278 5.08838 5.72419 5.07854 7.42407C5.06892 8.49102 5.16658 9.55625 5.37017 10.6036L5.92441 13.9144C5.31381 15.3046 4.9204 16.7803 4.75771 18.29C3.32972 18.5849 1.99986 19.2373 0.892614 20.186C0.691371 20.3681 0.566022 20.6193 0.541695 20.8896C0.517369 21.1599 0.595899 21.4295 0.761398 21.6446C0.862943 21.7609 0.988547 21.8538 1.12959 21.9168C1.27063 21.9798 1.42363 22.0113 1.57807 22.0092C1.82625 22.0103 2.0676 21.9282 2.26353 21.7758C2.96972 21.1768 3.79497 20.7344 4.68471 20.4777C4.70677 21.2094 4.79967 21.9372 4.96192 22.6509C4.09707 22.9817 3.30443 23.477 2.62816 24.1094C2.46324 24.2488 2.34538 24.4355 2.29041 24.6443C2.23545 24.853 2.24611 25.0737 2.32104 25.2761C2.39596 25.4786 2.53154 25.653 2.70917 25.7757C2.8868 25.8984 3.09792 25.9634 3.31379 25.9618C3.5633 25.9565 3.80413 25.8694 3.99925 25.7138C4.50436 25.2881 5.07596 24.9481 5.69117 24.7074C8.14147 29.9581 14.7921 32 19.5907 32C24.3892 32 31.0401 29.9435 33.5487 24.5908C34.1562 24.8469 34.7254 25.1855 35.2405 25.5971C35.4341 25.7537 35.6771 25.8364 35.9261 25.8305C36.0767 25.8305 36.2257 25.7994 36.3637 25.7392C36.5017 25.679 36.6258 25.5909 36.7282 25.4805C36.8988 25.2685 36.9818 24.9992 36.9602 24.728C36.9384 24.4567 36.8137 24.2041 36.6115 24.0219C35.9015 23.4274 35.111 22.9364 34.2634 22.5634C34.4226 21.8487 34.5201 21.1216 34.555 20.3902C35.4457 20.626 36.2696 21.0654 36.9616 21.6737C37.1567 21.8293 37.3975 21.9165 37.647 21.9217C37.8009 21.9201 37.9529 21.8869 38.0934 21.8242C38.2339 21.7615 38.36 21.6705 38.4639 21.5571C38.6433 21.352 38.736 21.0852 38.7224 20.813C38.7088 20.5409 38.5899 20.2847 38.3909 20.0985H38.3763Z" fill="black"/>
<path d="M23.3973 22.8403C23.1625 22.844 22.9384 22.939 22.7724 23.105C22.6064 23.2711 22.5114 23.4952 22.5077 23.73C22.4819 23.9715 22.3617 24.193 22.1731 24.346C21.9845 24.4991 21.743 24.5712 21.5014 24.5467C21.2613 24.5638 21.0236 24.4889 20.8367 24.3372C20.6498 24.1855 20.5276 23.9684 20.4949 23.73V22.6799L21.7784 20.9588C21.8929 20.8095 21.9633 20.6311 21.9815 20.4439C21.9998 20.2566 21.9652 20.068 21.8817 19.8994C21.7981 19.7308 21.6691 19.589 21.509 19.4901C21.349 19.3912 21.1645 19.3392 20.9763 19.3399H18.1905C18.0024 19.3392 17.8179 19.3912 17.6578 19.4901C17.4978 19.589 17.3685 19.7308 17.285 19.8994C17.2015 20.068 17.1669 20.2566 17.1851 20.4439C17.2034 20.6311 17.2737 20.8095 17.3883 20.9588L18.6864 22.6799V23.73C18.6377 23.9628 18.5104 24.1718 18.3258 24.3219C18.1412 24.4719 17.9106 24.5538 17.6728 24.5538C17.4349 24.5538 17.2043 24.4719 17.0197 24.3219C16.8351 24.1718 16.7076 23.9628 16.659 23.73C16.6752 23.6046 16.6644 23.4772 16.6275 23.3563C16.5905 23.2353 16.5283 23.1237 16.4448 23.0287C16.3613 22.9338 16.2584 22.8578 16.1432 22.8057C16.028 22.7536 15.9031 22.7266 15.7766 22.7266C15.6502 22.7266 15.5253 22.7536 15.41 22.8057C15.2948 22.8578 15.1921 22.9338 15.1086 23.0287C15.0251 23.1237 14.9627 23.2353 14.9258 23.3563C14.8888 23.4772 14.8781 23.6046 14.8943 23.73C14.9246 24.4406 15.2343 25.1104 15.756 25.5939C16.2777 26.0773 16.9692 26.3352 17.6801 26.3115C18.3685 26.3122 19.0348 26.0694 19.5614 25.626C20.0864 26.082 20.7624 26.3264 21.4576 26.3115C22.1684 26.3352 22.86 26.0773 23.3817 25.5939C23.9033 25.1104 24.213 24.4406 24.2434 23.73C24.2493 23.6153 24.2318 23.5005 24.1919 23.3928C24.1521 23.2851 24.0907 23.1866 24.0116 23.1033C23.9324 23.0201 23.8371 22.9538 23.7315 22.9086C23.6259 22.8634 23.5122 22.8401 23.3973 22.8403Z" fill="black"/>
<path d="M15.0688 17.3995C15.5449 17.3577 15.988 17.1392 16.3109 16.7868C16.6337 16.4345 16.8127 15.974 16.8127 15.4961C16.8127 15.0182 16.6337 14.5577 16.3109 14.2054C15.988 13.853 15.5449 13.6345 15.0688 13.5927C14.8049 13.5696 14.539 13.6016 14.2881 13.6868C14.0372 13.7719 13.8068 13.9083 13.6114 14.0873C13.416 14.2663 13.26 14.484 13.1533 14.7266C13.0466 14.9691 12.9915 15.2311 12.9915 15.4961C12.9915 15.7611 13.0466 16.0231 13.1533 16.2657C13.26 16.5082 13.416 16.7259 13.6114 16.9049C13.8068 17.0839 14.0372 17.2203 14.2881 17.3054C14.539 17.3906 14.8049 17.4226 15.0688 17.3995Z" fill="black"/>
<path d="M24.0537 17.6623C24.6275 17.6623 25.1781 17.4353 25.5852 17.0309C25.9923 16.6265 26.223 16.0775 26.2269 15.5037C26.2269 14.9235 25.9964 14.367 25.5861 13.9567C25.1758 13.5464 24.6193 13.3159 24.0391 13.3159C23.4589 13.3159 22.9024 13.5464 22.4921 13.9567C22.0818 14.367 21.8513 14.9235 21.8513 15.5037C21.8551 16.075 22.0838 16.6218 22.4878 17.0258C22.8918 17.4298 23.4386 17.6585 24.0099 17.6623" fill="black"/>
</svg>
