<svg width="28" height="28" viewBox="0 0 28 28" fill="none" xmlns="http://www.w3.org/2000/svg">
<path d="M27.6399 13.6703C27.64 11.1925 26.9665 8.76135 25.6917 6.63663C24.4168 4.5119 22.5884 2.77372 20.402 1.60782C18.2156 0.441918 15.7534 -0.107797 13.2787 0.0174877C10.804 0.142773 8.40991 0.938 6.35242 2.31876C4.29493 3.69951 2.65143 5.61374 1.59766 7.85635C0.543889 10.099 0.119404 12.586 0.369754 15.0512C0.620104 17.5164 1.53582 19.867 3.01892 21.852C4.50203 23.8369 6.49685 25.3813 8.78992 26.3202C8.20992 21.8602 9.78986 18.4703 10.5999 14.8803C9.26986 12.7503 10.7599 8.45065 13.5999 9.51065C17.0499 10.8107 10.5998 17.4307 14.9398 18.2607C19.4398 19.1207 21.2799 10.8005 18.4899 8.1005C14.4899 4.2005 6.72982 8.0105 7.68982 13.6005C7.79982 14.2905 8.93982 15.3803 8.93982 15.3803C8.86945 16.018 8.7525 16.6498 8.58985 17.2704C5.99985 16.7204 4.9199 14.7803 5.0199 12.1903C5.1699 7.95034 9.01987 4.99022 12.8599 4.57022C17.7299 4.05022 22.2998 6.27053 22.9398 10.6405C23.6498 15.5705 20.7399 20.9004 15.5299 20.5204C14.1199 20.4204 13.5298 19.7503 12.4198 19.1103C11.8298 22.0403 11.1198 24.8603 9.08985 26.4203C11.1604 27.2216 13.3951 27.5063 15.6003 27.2494C17.8056 26.9925 19.9152 26.202 21.7461 24.9462C23.577 23.6904 25.0742 22.0071 26.1082 20.0424C27.1421 18.0776 27.6815 15.8905 27.6798 13.6703" fill="white"/>
</svg>
