<svg width="35" height="32" viewBox="0 0 35 32" fill="none" xmlns="http://www.w3.org/2000/svg">
<path d="M2.10359 23.9762C2.5297 23.9762 2.85948 23.9762 3.18938 23.9762H5.77356C6.80448 23.9762 6.96942 24.1411 6.96942 25.1445C6.96942 26.4366 6.96942 27.7287 6.96942 29.0346C6.98875 29.307 7.02559 29.5779 7.07949 29.8456C7.46437 29.5432 7.72557 29.3507 7.97299 29.1308C9.77367 27.6463 11.588 26.1617 13.3612 24.636C13.8961 24.1697 14.5906 23.9284 15.2993 23.9624C20.6876 23.9624 26.0759 23.9624 31.4642 23.9624C32.5364 23.9624 32.605 23.8937 32.605 22.8903V2.62925C32.5809 2.28306 32.5351 1.93873 32.4676 1.59833H2.57089C2.49473 1.59234 2.41822 1.60268 2.34638 1.6287C2.27455 1.65471 2.2091 1.69579 2.15443 1.74915C2.09976 1.80252 2.05716 1.86694 2.02942 1.93813C2.00169 2.00931 1.98936 2.08562 1.99351 2.1619C1.99351 2.32685 1.99351 2.47805 1.99351 2.62925V22.959C1.99351 23.2889 2.08987 23.605 2.13111 23.9762M5.47119 25.5569H4.09663C3.50557 25.5569 2.92822 25.5569 2.33716 25.5569C1.87114 25.5467 1.42663 25.3589 1.09448 25.0319C0.762332 24.7049 0.567738 24.2633 0.550326 23.7975C0.536598 23.5503 0.536598 23.3025 0.550326 23.0552V2.1619C0.516219 1.86845 0.549569 1.57108 0.647982 1.29252C0.746394 1.01397 0.907258 0.761576 1.11814 0.554674C1.32902 0.347773 1.58444 0.191828 1.86482 0.0987383C2.1452 0.00564877 2.44308 -0.0221215 2.73583 0.0175684C12.4952 0.0175684 22.2547 0.0175684 32.0278 0.0175684C32.3313 0.00752434 32.6334 0.0608232 32.9151 0.174056C33.1968 0.28729 33.4519 0.457992 33.664 0.675255C33.8761 0.892517 34.0406 1.15158 34.147 1.43594C34.2535 1.72031 34.2993 2.02372 34.2819 2.32684C34.227 9.29129 34.227 16.2512 34.2819 23.2064C34.3178 23.5347 34.2788 23.8668 34.1678 24.1778C34.0569 24.4888 33.8771 24.7706 33.6416 25.0021C33.4062 25.2336 33.1212 25.4087 32.8084 25.5143C32.4955 25.62 32.1629 25.6533 31.8354 25.6119C26.5708 25.5432 21.3062 25.6119 16.0417 25.6119C15.3357 25.5852 14.6466 25.8314 14.1172 26.2992C12.1241 28.0036 10.1035 29.6531 8.08289 31.3163C7.83372 31.5458 7.55099 31.7358 7.24443 31.8799C7.08435 31.9598 6.90772 32.0009 6.7288 32C6.54989 31.999 6.37373 31.956 6.21452 31.8744C6.0553 31.7928 5.91738 31.6748 5.81215 31.5301C5.70692 31.3854 5.63721 31.218 5.60862 31.0414C5.58084 30.7397 5.58084 30.436 5.60862 30.1342V25.6257L5.47119 25.5569Z" fill="black"/>
<path fill-rule="evenodd" clip-rule="evenodd" d="M5.01256 11.3926C5.01256 11.006 5.32596 10.6926 5.71256 10.6926H29.0667C29.4533 10.6926 29.7667 11.006 29.7667 11.3926C29.7667 11.7792 29.4533 12.0926 29.0667 12.0926H5.71256C5.32596 12.0926 5.01256 11.7792 5.01256 11.3926Z" fill="black"/>
<path fill-rule="evenodd" clip-rule="evenodd" d="M5.01256 6C5.01256 5.6134 5.32596 5.3 5.71256 5.3H29.0667C29.4533 5.3 29.7667 5.6134 29.7667 6C29.7667 6.3866 29.4533 6.7 29.0667 6.7H5.71256C5.32596 6.7 5.01256 6.3866 5.01256 6Z" fill="black"/>
<path fill-rule="evenodd" clip-rule="evenodd" d="M5.32978 16C5.32978 15.6134 5.64318 15.3 6.02978 15.3H17C17.3866 15.3 17.7 15.6134 17.7 16C17.7 16.3866 17.3866 16.7 17 16.7H6.02978C5.64318 16.7 5.32978 16.3866 5.32978 16Z" fill="black"/>
</svg>
