<svg width="28" height="28" viewBox="0 0 28 28" fill="none" xmlns="http://www.w3.org/2000/svg">
<path d="M15.8398 10.3104H18.7499L18.5099 13.5604H15.9099V23.1503H11.9799V13.6302H9.83984V10.3104H11.9198C11.9198 9.31041 11.9198 8.46065 11.9198 7.55065C11.9198 4.95065 13.9198 4.1903 15.7198 4.1903H18.7198V7.46032H16.9799C16.9199 7.46032 15.8398 7.40032 15.8398 8.46032C15.8398 8.88032 15.8398 10.3304 15.8398 10.3304M27.9598 13.7006C27.9598 10.9969 27.1581 8.35384 25.656 6.10582C24.1539 3.85781 22.019 2.10581 19.5211 1.07116C17.0232 0.0365069 14.2746 -0.234623 11.6229 0.292837C8.9712 0.820297 6.53544 2.12226 4.62365 4.03405C2.71187 5.94583 1.41002 8.38184 0.882562 11.0336C0.355102 13.6853 0.625744 16.4336 1.66039 18.9315C2.69504 21.4294 4.44716 23.5647 6.69518 25.0668C8.9432 26.5688 11.5862 27.3705 14.2899 27.3705C17.9154 27.3705 21.3924 25.9302 23.956 23.3666C26.5197 20.8029 27.9598 17.3261 27.9598 13.7006Z" fill="white"/>
</svg>
