<svg width="30" height="32" viewBox="0 0 30 32" fill="none" xmlns="http://www.w3.org/2000/svg">
<path d="M19.4998 12.6697C19.7922 13.0878 20.224 13.3882 20.7177 13.517C21.2115 13.6458 21.7349 13.5946 22.1943 13.3726C22.6746 13.1509 23.0651 12.7723 23.3017 12.2992C23.5382 11.8261 23.6068 11.2865 23.496 10.7693C23.3741 10.2416 23.075 9.7717 22.6486 9.43774C22.2223 9.10379 21.6944 8.92597 21.153 8.93393C20.6288 8.94103 20.1245 9.13508 19.7307 9.48112C19.3369 9.82716 19.0796 10.3024 19.0052 10.8213C19.355 10.9498 19.7335 10.9789 20.0988 10.9054C20.4642 10.8319 20.8021 10.6586 21.0749 10.4048C21.2275 10.2592 21.4302 10.178 21.6411 10.178C21.852 10.178 22.0548 10.2592 22.2074 10.4048C22.356 10.5558 22.4394 10.7592 22.4394 10.971C22.4394 11.1829 22.356 11.3863 22.2074 11.5373C21.9758 11.8302 21.6765 12.0625 21.3352 12.2141C20.7123 12.4173 20.0777 12.5825 19.4348 12.7088M17.261 10.3007C17.4817 9.82275 17.7294 9.35773 18.0029 8.90789C18.493 8.20392 19.198 7.67763 20.0122 7.40779C20.8265 7.13794 21.7062 7.13906 22.5198 7.41099C23.1612 7.622 23.7388 7.99161 24.1993 8.48551C24.6597 8.97941 24.988 9.58161 25.1536 10.2362C25.3192 10.8908 25.3167 11.5767 25.1464 12.2301C24.9762 12.8835 24.6437 13.4834 24.1797 13.974C23.7158 14.4646 23.1353 14.8301 22.4924 15.0365C21.8495 15.2429 21.165 15.2836 20.5021 15.1548C19.8393 15.026 19.2197 14.7319 18.7009 14.2997C18.1821 13.8676 17.7808 13.3114 17.5343 12.6827C17.48 12.5103 17.3856 12.3532 17.2589 12.2242C17.1322 12.0953 16.9769 11.9981 16.8054 11.9408C13.7975 10.7851 11.2323 8.70744 9.47707 6.00519C9.05875 5.36196 8.73853 4.66006 8.52688 3.92254C7.82399 1.47541 9.33387 -0.190718 11.8981 0.0175477C13.3191 0.166045 14.6934 0.609379 15.9333 1.31921C16.4279 1.56653 16.8836 1.87892 17.4954 2.24338C16.6493 2.43863 15.9723 2.60785 15.2824 2.73802C15.0738 2.72098 14.8704 2.6635 14.6837 2.5688L11.8981 1.72272C11.7818 1.7033 11.663 1.7033 11.5467 1.72272C10.245 1.72272 9.78948 2.34752 10.1409 3.57108C10.6323 5.01055 11.4889 6.29778 12.627 7.30685C12.9003 7.0335 13.1738 6.79921 13.4211 6.52586C14.3087 5.55031 15.494 4.89583 16.7924 4.66447C18.9141 4.26096 21.0359 3.80538 23.1706 3.36281C23.6887 3.25178 24.226 3.26841 24.7362 3.41127C25.2464 3.55414 25.7142 3.81894 26.0993 4.18287C26.9194 4.93783 27.7003 5.74486 28.4813 6.56491C28.8432 6.93484 29.1067 7.38955 29.2477 7.88751C29.3886 8.38547 29.4026 8.91081 29.2883 9.41556C28.8197 11.6414 28.3121 13.8803 27.8305 16.1061C27.6133 17.1143 27.1067 18.0371 26.3726 18.7615C22.2333 22.9008 18.0897 27.0444 13.9417 31.1924C13.7457 31.4439 13.495 31.6473 13.2085 31.7873C12.9221 31.9273 12.6075 32 12.2887 32C11.9699 32 11.6552 31.9273 11.3687 31.7873C11.0822 31.6473 10.8315 31.4439 10.6356 31.1924C7.56365 28.1378 4.49597 25.0702 1.43272 21.9896C1.15609 21.795 0.930428 21.5367 0.774583 21.2366C0.618737 20.9364 0.537354 20.6031 0.537354 20.2649C0.537354 19.9267 0.618737 19.5934 0.774583 19.2933C0.930428 18.9931 1.15609 18.7348 1.43272 18.5402C4.03605 15.8848 6.67419 13.2424 9.34694 10.6131L9.72431 10.2486L10.8178 11.5503C9.78951 12.5656 8.65704 13.672 7.53761 14.7914L2.68243 19.6466C2.12271 20.2063 2.12271 20.2844 2.68243 20.8311L11.7941 29.9428C12.2887 30.4374 12.3928 30.4374 12.8744 29.9428C17.0007 25.8165 21.14 21.7033 25.2402 17.551C25.6983 17.0535 26.0249 16.4494 26.1904 15.7937C26.7371 13.6069 27.1797 11.3941 27.6613 9.18125C27.729 8.92018 27.7274 8.64595 27.6567 8.38568C27.5859 8.12542 27.4485 7.88816 27.2578 7.69735C26.5289 6.94239 25.7868 6.18742 25.0319 5.4715C24.8197 5.26756 24.5583 5.12201 24.2732 5.04902C23.988 4.97603 23.6889 4.97809 23.4048 5.05498L17.1699 6.27854C16.5359 6.39298 15.9318 6.63553 15.3946 6.99139C14.8575 7.34724 14.3986 7.80892 14.0459 8.34818C14.9742 9.23904 16.0844 9.91844 17.3001 10.3397" fill="black"/>
</svg>
