<?xml version="1.0" encoding="UTF-8"?>
<svg width="32px" height="29px" viewBox="0 0 32 29" version="1.1" xmlns="http://www.w3.org/2000/svg" xmlns:xlink="http://www.w3.org/1999/xlink">
    <!-- Generator: sketchtool 55.1 (78136) - https://sketchapp.com -->
    <title>4E789B47-AC6A-4380-97C8-9E440A45B518</title>
    <desc>Created with sketchtool.</desc>
    <g id="Layouts" stroke="none" stroke-width="1" fill="none" fill-rule="evenodd">
        <g id="Iconography" transform="translate(-383.000000, -214.000000)" fill="#000000" fill-rule="nonzero">
            <g id="Cats" transform="translate(120.000000, 210.000000)">
                <path d="M284.190382,4 C286.427979,4 288.248425,6.18510029 288.248425,8.87089392 C288.248425,11.557252 286.427414,13.7423523 284.190382,13.7423523 C281.953349,13.7423523 280.132903,11.557252 280.132903,8.87089392 C280.132903,6.18510029 281.952785,4 284.190382,4 Z M273.797749,4 C276.035346,4 277.855792,6.18510029 277.855792,8.87089392 C277.855792,11.557252 276.034781,13.7423523 273.797749,13.7423523 C271.560717,13.7423523 269.739706,11.557252 269.739706,8.87089392 C269.739706,6.18510029 271.560152,4 273.797749,4 Z M267.4355,22.2298666 C265.494819,22.2298666 263.696388,20.5934405 263.159003,18.3383447 C262.535818,15.7259334 263.800252,13.1778728 265.97632,12.6585516 C266.238239,12.5964589 266.507496,12.5642835 266.776752,12.5642835 C268.717433,12.5642835 270.515865,14.2007097 271.053814,16.4558055 C271.676999,19.0687812 270.412565,21.6168419 268.235932,22.1355985 C267.974014,22.1982558 267.704757,22.2298666 267.4355,22.2298666 Z M289.502134,28.2167366 C289.177558,30.6857701 287.383078,32.4588003 284.819212,32.8426464 C284.518909,32.8878048 284.216348,32.9098195 283.913787,32.9098195 C283.089082,32.9098195 282.264378,32.7438625 281.488783,32.4175933 C281.148401,32.27478 280.841325,32.1082585 280.542715,31.9479463 C280.021136,31.666271 279.563343,31.4291896 279.061521,31.3733062 C278.560263,31.4291896 278.101905,31.666271 277.580326,31.9479463 C277.282281,32.1082585 276.97464,32.27478 276.634259,32.4175933 C275.858664,32.7438625 275.033959,32.9098195 274.209255,32.9098195 C273.906694,32.9098195 273.604132,32.8878048 273.303829,32.8426464 C270.740528,32.4582358 268.946047,30.6863346 268.621472,28.2173011 C268.266414,25.5224758 269.774139,22.8761957 272.286637,21.7833633 C272.887808,21.5214448 273.703481,20.3377312 274.269089,18.9050822 C274.644468,17.9539341 275.763267,15.1416971 278.790006,14.9294528 C278.848712,14.9164698 278.909111,14.9091315 278.971768,14.9091315 C279.002815,14.9091315 279.030474,14.9136474 279.061521,14.9142118 C279.092003,14.9136474 279.120227,14.9091315 279.151273,14.9091315 C279.21393,14.9091315 279.274329,14.9170342 279.333035,14.9294528 C282.359775,15.1416971 283.478573,17.9539341 283.853952,18.9050822 C284.41956,20.3377312 285.234669,21.5214448 285.836404,21.7833633 C288.348902,22.8761957 289.856627,25.5219113 289.502134,28.2167366 Z M294.803726,18.4427734 C294.211022,20.6673873 292.448717,22.220835 290.518197,22.220835 C290.517633,22.220835 290.517633,22.220835 290.517633,22.220835 C290.21733,22.220835 289.917591,22.1818859 289.628013,22.1045522 C288.545341,21.8161031 287.676043,21.034299 287.179865,19.903082 C286.713041,18.8373446 286.635143,17.5768618 286.961412,16.3530702 C287.554115,14.1290208 289.316985,12.5750086 291.248069,12.5750086 C291.548372,12.5750086 291.847547,12.6139577 292.13656,12.6912914 C294.299081,13.267625 295.495778,15.8472965 294.803726,18.4427734 Z" id="Icon---Cats"></path>
            </g>
        </g>
    </g>
</svg>