<svg width="28" height="26" viewBox="0 0 28 26" fill="none" xmlns="http://www.w3.org/2000/svg">
<path d="M1.7964 19.2411C2.12218 19.2411 2.3937 19.2411 2.65432 19.2411H4.6957C5.51013 19.2411 5.64057 19.3714 5.64057 20.1641C5.64057 21.1849 5.64057 22.2056 5.64057 23.2372C5.65584 23.4524 5.68481 23.6665 5.72739 23.8779C6.03145 23.639 6.2378 23.487 6.43326 23.3133C7.8558 22.1405 9.28912 20.9677 10.6899 19.7623C11.1098 19.3967 11.654 19.2062 12.2102 19.2303C16.4779 19.2303 20.7347 19.2303 24.9914 19.2303C25.8384 19.2303 25.8927 19.1759 25.8927 18.3832V2.37692C25.8737 2.10343 25.8374 1.83141 25.7841 1.56249H2.15471C1.83979 1.56249 1.72043 1.73624 1.69871 2.00772C1.67699 2.2792 1.69871 2.25747 1.69871 2.37692V18.4375C1.71568 18.7076 1.75194 18.9762 1.80727 19.2411M4.44596 20.4899H3.36005C2.89311 20.4899 2.42627 20.4899 1.97019 20.4899C1.60095 20.482 1.24851 20.334 0.984357 20.0759C0.720202 19.8178 0.564033 19.4689 0.547581 19.0999C0.547581 18.9045 0.547581 18.709 0.547581 18.5135V2.44208C0.547581 2.30091 0.547581 2.14889 0.547581 2.00772C0.520636 1.77589 0.547115 1.54097 0.624862 1.3209C0.702608 1.10084 0.829558 0.901453 0.996155 0.738C1.16275 0.574547 1.36453 0.45135 1.58604 0.377808C1.80754 0.304267 2.04287 0.282329 2.27414 0.313684C9.9841 0.313684 17.6941 0.313684 25.415 0.313684C25.6542 0.307396 25.8923 0.350627 26.1141 0.440657C26.3359 0.530687 26.5366 0.665581 26.7038 0.836871C26.871 1.00816 27.001 1.21216 27.0857 1.43606C27.1704 1.65997 27.2079 1.89895 27.1959 2.13802C27.1524 7.63997 27.1524 13.1383 27.1959 18.633C27.2282 18.8922 27.2005 19.1553 27.115 19.4021C27.0295 19.6489 26.8885 19.8728 26.7027 20.0564C26.517 20.2401 26.2916 20.3786 26.0438 20.4613C25.796 20.544 25.5326 20.5686 25.2738 20.5333C21.1147 20.5333 16.9557 20.5333 12.7858 20.5333C12.2318 20.5151 11.6918 20.7093 11.2764 21.0763C9.70181 22.4228 8.09465 23.7259 6.50922 25.0399C6.31237 25.2211 6.08901 25.3713 5.84683 25.4851C5.72036 25.5482 5.58082 25.5807 5.43948 25.58C5.29814 25.5792 5.15897 25.5452 5.03319 25.4807C4.90741 25.4162 4.79859 25.3231 4.71545 25.2088C4.63232 25.0945 4.57725 24.9622 4.55466 24.8227C4.52729 24.5846 4.52729 24.3441 4.55466 24.106C4.55466 23.2047 4.55466 22.3034 4.55466 21.4021L4.44596 20.4899Z" fill="black"/>
<path d="M14.2298 13.6812V14.7671C13.9474 14.8974 5.47741 14.9299 4.94531 14.7671V13.6812H14.2298Z" fill="black"/>
<path d="M4.92362 7.07882V6.04719V5.97118C4.98867 5.96599 5.05396 5.96599 5.11901 5.97118H14.0669C14.0669 5.97118 14.067 5.97117 14.1539 6.04719V7.1331C13.9041 7.28513 5.39049 7.32856 4.8584 7.1331" fill="black"/>
<path d="M14.3173 9.79346V10.8794C11.227 11.0924 8.12685 11.125 5.03273 10.9771C4.89306 10.6134 4.86662 10.2159 4.95678 9.83689C5.70606 9.83689 6.46617 9.83689 7.23716 9.83689H14.3173V9.79346Z" fill="black"/>
<path d="M18.8993 16.3633C19.0836 16.3694 19.2673 16.3379 19.439 16.2707C19.6108 16.2035 19.767 16.102 19.8982 15.9724C20.0264 15.8469 20.1273 15.6962 20.1946 15.5299C20.2619 15.3636 20.2941 15.1852 20.2893 15.0059C20.2939 14.8282 20.2615 14.6515 20.1942 14.487C20.1269 14.3225 20.0261 14.1738 19.8982 14.0503C19.767 13.9207 19.6108 13.8192 19.439 13.752C19.2673 13.6847 19.0836 13.6532 18.8993 13.6594C18.701 13.6451 18.5019 13.6724 18.3148 13.7398C18.1278 13.8071 17.957 13.9129 17.8134 14.0503C17.6819 14.1715 17.5779 14.3196 17.5086 14.4845C17.4393 14.6493 17.4062 14.8271 17.4116 15.0059C17.4061 15.1863 17.4391 15.3658 17.5083 15.5324C17.5776 15.6991 17.6816 15.8491 17.8134 15.9724C17.957 16.1098 18.1278 16.2156 18.3148 16.2829C18.5019 16.3502 18.701 16.3776 18.8993 16.3633ZM19.9852 4.364C19.2825 4.34842 18.5862 4.50105 17.9545 4.80921C17.4029 5.08156 16.9452 5.51268 16.6405 6.04714C16.3408 6.59545 16.1946 7.21444 16.2171 7.83891H18.3889C18.3766 7.62987 18.4077 7.42055 18.4806 7.22425C18.5536 7.02796 18.6665 6.84898 18.8123 6.6987C18.9706 6.55548 19.1559 6.44523 19.3573 6.37438C19.5586 6.30353 19.7721 6.2735 19.9852 6.28605C20.1861 6.28133 20.3859 6.31739 20.5725 6.39204C20.7592 6.4667 20.9288 6.57841 21.0711 6.72042C21.2161 6.87348 21.3285 7.05448 21.4013 7.25237C21.4741 7.45027 21.5059 7.66092 21.4946 7.87148C21.5198 8.15224 21.4596 8.43405 21.322 8.6801C21.1845 8.92614 20.9759 9.12498 20.7235 9.25059C20.0352 9.53135 19.2945 9.66095 18.5517 9.63065H17.8134L17.8893 12.4214H19.92L19.9852 11.1618C20.9719 11.2103 21.9444 10.9105 22.7326 10.3148C23.092 10.016 23.3772 9.63786 23.5657 9.2101C23.7541 8.78234 23.8407 8.31666 23.8185 7.84976C23.8364 7.3707 23.7482 6.8936 23.5605 6.45249C23.3728 6.01138 23.0902 5.61714 22.7326 5.29788C21.9628 4.6517 20.9783 4.31837 19.9743 4.364" fill="black"/>
</svg>
