<?xml version="1.0" encoding="UTF-8"?>
<svg width="30px" height="32px" viewBox="0 0 30 32" version="1.1" xmlns="http://www.w3.org/2000/svg" xmlns:xlink="http://www.w3.org/1999/xlink">
    <!-- Generator: sketchtool 55.1 (78136) - https://sketchapp.com -->
    <title>A958DB8E-5C26-4EBE-9CDF-FF0429F8B3F6</title>
    <desc>Created with sketchtool.</desc>
    <g id="Layouts" stroke="none" stroke-width="1" fill="none" fill-rule="evenodd">
        <g id="Iconography" transform="translate(-384.000000, -404.000000)" fill="#000000">
            <g id="Reptiles" transform="translate(120.000000, 404.000000)">
                <path d="M290.739127,11.6507636 C292.318182,10.9872 293.200509,9.7264 293.418691,8.54632727 C293.541309,9.96145455 292.806473,11.7850182 291.464509,12.8823273 C291.753091,15.2541091 287.610109,19.2957091 285.013018,17.9351273 C281.459564,16.0733091 288.1768,9.95258182 290.739127,11.6507636 Z M288.847491,22.1056 C291.501455,34.6738909 265.551055,35.2813091 268.333309,22.1056 C269.048655,18.7162182 272.385818,19.8654545 273.789891,18.0087273 C278.088509,12.3240727 279.369091,12.6901818 283.390909,18.0087273 C284.794982,19.8654545 288.132145,18.7162182 288.847491,22.1056 Z M266.667418,11.4765091 C269.551345,10.1179636 274.901455,16.9908364 271.005018,18.3882182 C268.157455,19.4094545 264.913382,14.9073455 265.694036,12.6021818 C264.598764,11.3530182 264.254764,9.46210909 264.671636,8.08058182 C264.640364,9.27243636 265.247636,10.6260364 266.667418,11.4765091 Z M273.692727,4.43534545 C277.304945,4.35127273 279.694036,13.9297455 275.014764,13.5890909 C271.594982,13.3400727 270.300145,7.18530909 272.167345,5.15490909 C271.605891,3.35767273 272.117309,1.24029091 273.183491,1.95399252e-14 C272.604,1.22065455 272.611855,2.90225455 273.692727,4.43534545 Z M283.487927,4.43534545 C284.5688,2.90225455 284.576655,1.22065455 283.997164,1.95399252e-14 C285.063345,1.24029091 285.574909,3.35767273 285.013455,5.15490909 C286.880655,7.18530909 285.585818,13.3400727 282.166036,13.5890909 C277.486764,13.9297455 279.875855,4.35127273 283.487927,4.43534545 Z" id="Icon---Reptiles"></path>
            </g>
        </g>
    </g>
</svg>