<?xml version="1.0" encoding="UTF-8"?>
<svg width="32px" height="32px" viewBox="0 0 32 32" version="1.1" xmlns="http://www.w3.org/2000/svg" xmlns:xlink="http://www.w3.org/1999/xlink">
    <!-- Generator: sketchtool 55.1 (78136) - https://sketchapp.com -->
    <title>2C3001BC-0867-423D-A593-9ED81FC193CA</title>
    <desc>Created with sketchtool.</desc>
    <g id="Layouts" stroke="none" stroke-width="1" fill="none" fill-rule="evenodd">
        <g id="Iconography" transform="translate(-383.000000, -500.000000)" fill="#000000">
            <g id="Birds" transform="translate(120.000000, 500.000000)">
                <path d="M278.923022,0.500036471 C280.653187,0.519730588 280.865446,10.8934247 280.956987,12.3332835 C281.084269,14.3420835 280.401175,20.9746247 283.89214,19.05226 C287.247069,17.2050247 289.624222,13.8500953 293.024011,11.9860835 C294.988316,10.9087424 295.454046,11.3015306 294.269481,13.2771424 C293.171352,15.1072365 291.491152,16.6335306 290.03634,18.1820718 C288.458987,19.8600835 286.867046,21.5238718 285.263434,23.1767188 C284.091999,24.38426 282.628434,25.5852365 282.036881,27.2059894 C281.53614,28.5776482 282.028493,30.0426718 280.533199,30.8884247 C278.849352,31.8403071 278.099881,30.5995776 277.656034,29.1524247 C276.549516,25.5440247 273.508964,23.3448482 270.837128,20.8666718 C269.984446,20.0756247 262.081999,13.5627071 263.088587,12.2060012 C263.957316,11.0342012 269.881234,15.7899659 270.705105,16.4271071 C271.786093,17.2630129 275.113305,20.5687071 276.689928,19.5701424 C277.533128,19.0362129 277.317952,17.06826 277.341658,16.2721071 C277.401105,14.2866482 277.427728,12.30046 277.474046,10.3153659 C277.518905,8.39628353 276.826693,1.36147176 278.923022,0.500036471" id="Icon---Birds"></path>
            </g>
        </g>
    </g>
</svg>