<svg width="29" height="28" viewBox="0 0 29 28" fill="none" xmlns="http://www.w3.org/2000/svg">
<path d="M16.9799 13.6702C16.9779 13.1776 16.8205 12.6985 16.53 12.3006C16.3163 12.0013 16.0341 11.757 15.7071 11.5887C15.3801 11.4203 15.0178 11.3328 14.65 11.3328C14.2822 11.3328 13.9197 11.4203 13.5927 11.5887C13.2657 11.757 12.9837 12.0013 12.77 12.3006C12.4722 12.6953 12.3106 13.1757 12.3099 13.6702C12.3487 14.2631 12.6116 14.8192 13.0453 15.2254C13.4789 15.6315 14.0508 15.8572 14.645 15.8572C15.2391 15.8572 15.811 15.6315 16.2446 15.2254C16.6782 14.8192 16.9411 14.2631 16.9799 13.6702ZM17.5 10.8201H19.77V8.54033H17.5V10.8201ZM20 17.7703V12.3103H18C18.2355 12.8654 18.3298 13.4702 18.2746 14.0706C18.2194 14.671 18.0164 15.248 17.6836 15.7508C17.3508 16.2535 16.8986 16.6661 16.3675 16.9515C15.8364 17.2368 15.2429 17.386 14.64 17.386C14.0371 17.386 13.4435 17.2368 12.9124 16.9515C12.3813 16.6661 11.9292 16.2535 11.5964 15.7508C11.2636 15.248 11.0606 14.671 11.0053 14.0706C10.9501 13.4702 11.0445 12.8654 11.28 12.3103H9.28V17.7806C9.28521 18.1122 9.41991 18.4283 9.65536 18.6619C9.89082 18.8955 10.2084 19.028 10.54 19.0306H18.74C19.0707 19.0279 19.3871 18.8953 19.6209 18.6614C19.8548 18.4276 19.9873 18.1113 19.99 17.7806M21.2999 17.7806C21.3012 18.1171 21.2359 18.4503 21.1078 18.7615C20.9796 19.0727 20.791 19.3556 20.5531 19.5935C20.3151 19.8315 20.0323 20.0201 19.7212 20.1482C19.41 20.2764 19.0765 20.3415 18.74 20.3401H10.54C10.2026 20.3428 9.86798 20.2788 9.55563 20.1512C9.24328 20.0236 8.95935 19.8351 8.7203 19.597C8.48126 19.3589 8.29186 19.0758 8.16305 18.764C8.03425 18.4521 7.9686 18.118 7.96994 17.7806V9.58037C7.96862 9.2425 8.03425 8.90791 8.16293 8.5955C8.29162 8.2831 8.48078 7.99896 8.71969 7.76005C8.9586 7.52114 9.2425 7.3321 9.5549 7.20341C9.8673 7.07473 10.2021 7.00922 10.54 7.01054H18.74C19.0774 7.00921 19.4116 7.07461 19.7235 7.20341C20.0353 7.33222 20.3185 7.5215 20.5566 7.76054C20.7947 7.99959 20.9831 8.28364 21.1107 8.59599C21.2383 8.90834 21.3025 9.24297 21.2999 9.58037V17.7806ZM28.2999 13.6805C28.3019 10.9764 27.5018 8.33214 26.0009 6.08281C24.5001 3.83347 22.3658 2.07993 19.8681 1.04375C17.3704 0.00756168 14.6216 -0.264323 11.9692 0.262007C9.31683 0.788337 6.88016 2.08939 4.96737 4.00078C3.05459 5.91216 1.75163 8.34781 1.22336 10.9998C0.695085 13.6518 0.965246 16.4008 1.9996 18.8992C3.03396 21.3977 4.78603 23.5334 7.03427 25.0359C9.28251 26.5385 11.9259 27.3401 14.63 27.3401C18.2537 27.3401 21.7292 25.9016 24.2926 23.3401C26.8559 20.7787 28.2972 17.3042 28.2999 13.6805Z" fill="white"/>
</svg>
