<?xml version="1.0" encoding="UTF-8"?>
<svg width="23px" height="24px" viewBox="0 0 23 24" version="1.1" xmlns="http://www.w3.org/2000/svg" xmlns:xlink="http://www.w3.org/1999/xlink">
    <!-- Generator: sketchtool 57.1 (101010) - https://sketch.com -->
    <title>2E1C45C6-34E3-497D-AC64-A02E4AA97540</title>
    <desc>Created with sketchtool.</desc>
    <g id="Layouts" stroke="none" stroke-width="1" fill="none" fill-rule="evenodd">
        <g id="Product" transform="translate(-992.000000, -896.000000)" fill="#26536D" fill-rule="nonzero">
            <g id="Click-&amp;-Collect" transform="translate(992.000000, 896.000000)">
                <path d="M22.3589134,14.9537525 L18.5676306,6.17761489 C17.5415917,3.80265013 15.2066834,2.26805751 12.6192574,2.26805751 C11.8757784,2.26805751 11.1474558,2.39634621 10.4483636,2.64669862 C9.13164529,0.330465182 7.57458862,0.00108260502 6.21158891,0 L6.20807044,0 C4.55249671,0 2.84549925,0.967307584 2.14884292,2.30134762 C1.2061646,4.10577953 1.83569942,6.12808571 2.25250235,7.46618551 C2.36401067,7.82425712 2.46036252,8.1336115 2.51368081,8.38585847 C3.13942651,11.3432647 0.654847997,11.9703637 0.367145714,12.0326135 C0.117605257,12.0851198 -0.0423496343,12.3297886 0.00988605782,12.5795997 C0.0553554686,12.7980152 0.247788511,12.947956 0.462144304,12.947956 C0.493269198,12.947956 0.525206047,12.9447082 0.557142895,12.9382126 C0.620475288,12.9249507 2.12069519,12.5996279 2.97324664,11.2940062 C3.5253752,10.4484917 3.675316,9.4056724 3.41873861,8.19450803 C3.35675947,7.89976882 3.2544533,7.57146885 3.13590805,7.19120383 C2.74238112,5.92699182 2.20324382,4.19563575 2.96891622,2.72978855 C3.50642962,1.70050183 4.89865967,0.925085988 6.20834109,0.925085988 L6.21131825,0.925085988 C7.51233883,0.926168593 8.59765037,1.29750211 9.59851871,3.02127995 C6.63948854,4.58212574 5.32899516,8.19288413 6.67737971,11.315117 L10.4686625,20.0907133 C11.4944307,22.4654074 13.8290685,24 16.4167651,24 C17.3012534,24 18.1643603,23.8208289 18.9822684,23.4673583 C20.5704499,22.7812574 21.7959588,21.5178573 22.4338838,19.9099182 C23.0718088,18.3019791 23.045285,16.5416634 22.3589134,14.9537525 Z M13.7229732,11.2937356 C13.2149608,11.5132337 12.624941,11.279391 12.4054429,10.771108 L11.0803343,7.70435861 C10.8608362,7.19607556 11.0949495,6.60605582 11.6029619,6.38682831 C12.111245,6.16733014 12.7012647,6.40117282 12.9204922,6.90945588 L14.2456007,9.9764759 C14.4650989,10.4842176 14.2312562,11.0742374 13.7229732,11.2937356 Z" id="Icon---Mouse"></path>
            </g>
        </g>
    </g>
</svg>