<?xml version="1.0" encoding="UTF-8"?>
<svg width="32px" height="35px" viewBox="0 0 32 35" version="1.1" xmlns="http://www.w3.org/2000/svg" xmlns:xlink="http://www.w3.org/1999/xlink">
    <!-- Generator: sketchtool 55.1 (78136) - https://sketchapp.com -->
    <title>0F723C18-CE16-4A13-BB2A-20C5227E8E3E</title>
    <desc>Created with sketchtool.</desc>
    <g id="Layouts" stroke="none" stroke-width="1" fill="none" fill-rule="evenodd">
        <g id="Iconography" transform="translate(-383.000000, -113.000000)" fill="#000000">
            <g id="Dogs" transform="translate(120.000000, 109.500000)">
                <g id="Icon---Dogs" transform="translate(257.597135, 0.553067)">
                    <path d="M22.2111179,21.9711621 C22.9452972,21.8462984 23.9069415,21.8279076 24.4417261,21.9072783 C26.5421469,22.2184697 29.0224825,23.5397022 30.5435938,24.6871901 C31.2748693,25.2408495 32.2490967,26.047624 33.1076559,26.9894256 C33.7605286,27.7042462 34.9428622,29.0138634 35.2429224,30.2591129 C36.062764,33.6623754 32.4451038,34.498188 29.4241759,34.6661249 C28.0163132,34.7450117 26.5566659,34.5393253 25.6603573,34.8640678 C24.6198263,35.2391429 23.6688293,36.2404726 22.661692,36.9083483 C21.5945427,37.6159095 20.4364075,38.4507541 19.1437291,38.7508143 C17.3254616,39.1723503 15.5822091,38.1264956 15.070655,35.9728383 C14.8170558,34.9085928 15.0188705,33.2752011 15.1209877,32.5042402 C15.524133,29.4329797 16.8240708,25.9184046 18.783173,23.858637 C19.6364085,22.9618445 20.8869816,22.1957232 22.2111179,21.9711621 Z M7.6145483,19.6054301 C8.99579277,19.2201916 10.2739521,19.5947828 11.1291234,20.0168028 C13.2760052,21.0800804 15.6910051,24.0337366 15.2172005,26.9177015 C15.0182897,28.1358488 13.8490232,29.627922 11.8584631,29.6821264 C8.80559337,29.7673047 4.55151526,25.808447 5.33651124,22.0126866 C5.54897317,20.9852226 6.36784691,19.953887 7.6145483,19.6054301 Z M22.4611357,5.07409936 C23.0554483,5.00198814 23.6110435,5.10991299 23.9483692,5.2560713 C27.2470946,6.68668051 28.4105535,13.1931454 26.5908341,16.1651924 C26.2883541,16.6588397 25.6543561,17.3615612 25.1911988,17.605481 C22.4529083,19.0399619 20.2997349,16.4371824 19.4290766,13.8106885 C18.3778983,10.6387626 18.7805596,5.52660938 22.4611357,5.07409936 Z M11.7765273,8.61785774 C12.2909852,8.54574652 12.7284922,8.55929762 13.0619461,8.64254011 C15.0747688,9.14296295 17.2347176,11.2187014 18.2350794,14.2827024 C18.873917,16.2384168 18.9315092,19.0362354 17.2560122,20.1619448 C16.0848098,20.9493606 14.6813028,20.702053 13.8784,20.3811823 C10.3701165,18.9771913 6.86618868,11.6891182 10.3120404,9.17829261 C10.754871,8.85596996 11.4377498,8.66431866 11.7765273,8.61785774 Z M31.3497875,11.7341272 C33.6636382,11.0667355 35.4044709,12.8458016 35.9857163,15.300003 C36.5538947,17.6922564 35.6106412,20.8317564 33.9932204,22.1921903 C33.4516603,22.6466362 32.5451883,23.1533506 31.7616442,23.1567877 C27.6629198,23.177065 27.2104098,16.9121001 28.5761673,14.2304338 C29.1177274,13.1661884 30.0788877,12.100007 31.3497875,11.7341272 Z" transform="translate(20.696782, 21.946933) rotate(19.000000) translate(-20.696782, -21.946933) "></path>
                    <g id="Group" transform="translate(5.000000, 3.000000)">
                        <polygon id="Claw" points="21.566433 3.89640293 23.7609375 5.68434189e-14 23.7609375 4.51585216"></polygon>
                        <polygon id="Claw" transform="translate(30.738714, 12.090872) rotate(14.000000) translate(-30.738714, -12.090872) " points="29.6414617 13.7293484 31.8359662 9.83294548 31.8359662 14.3487976"></polygon>
                        <polygon id="Claw" transform="translate(2.097252, 12.090872) scale(-1, 1) rotate(14.000000) translate(-2.097252, -12.090872) " points="1 13.7293484 3.19450449 9.83294548 3.19450449 14.3487976"></polygon>
                        <polygon id="Claw" transform="translate(10.385140, 2.257926) scale(-1, 1) translate(-10.385140, -2.257926) " points="9.28788811 3.89640293 11.4823926 0 11.4823926 4.51585216"></polygon>
                    </g>
                </g>
            </g>
        </g>
    </g>
</svg>