<svg width="44" height="32" viewBox="0 0 44 32" fill="none" xmlns="http://www.w3.org/2000/svg">
<path d="M30.2483 12.0407C30.2483 12.3764 30.1487 12.7046 29.9622 12.9837C29.7756 13.2628 29.5106 13.4804 29.2004 13.6089C28.8903 13.7373 28.549 13.771 28.2197 13.7055C27.8904 13.64 27.5881 13.4783 27.3507 13.2409C27.1133 13.0035 26.9516 12.7011 26.8861 12.3718C26.8206 12.0426 26.8543 11.7013 26.9827 11.3911C27.1112 11.081 27.3287 10.8159 27.6079 10.6294C27.887 10.4429 28.2152 10.3433 28.5509 10.3433C28.7743 10.3414 28.9959 10.3841 29.2027 10.4687C29.4095 10.5533 29.5973 10.6783 29.7553 10.8363C29.9133 10.9943 30.0383 11.1821 30.1229 11.3889C30.2075 11.5957 30.2502 11.8173 30.2483 12.0407Z" fill="black"/>
<path d="M16.613 12.0406C16.5744 12.4622 16.3796 12.8542 16.0669 13.1396C15.7542 13.425 15.3461 13.5832 14.9227 13.5832C14.4993 13.5832 14.0913 13.425 13.7785 13.1396C13.4658 12.8542 13.271 12.4622 13.2324 12.0406C13.2109 11.8056 13.2387 11.5688 13.3138 11.3451C13.389 11.1215 13.5099 10.9159 13.669 10.7417C13.828 10.5674 14.0217 10.4282 14.2376 10.3329C14.4535 10.2377 14.6868 10.1885 14.9227 10.1885C15.1587 10.1885 15.3921 10.2377 15.6079 10.3329C15.8238 10.4282 16.0174 10.5674 16.1764 10.7417C16.3355 10.9159 16.4565 11.1215 16.5317 11.3451C16.6069 11.5688 16.6345 11.8056 16.613 12.0406Z" fill="black"/>
<path d="M41.4794 11.899C41.2797 13.5459 40.4726 15.0591 39.2162 16.1424L38.4807 16.9345C37.8273 17.518 37.3023 18.2309 36.9389 19.0279C36.6611 19.6014 36.4476 20.2039 36.3024 20.8243C36.088 20.2842 35.9453 19.7183 35.8781 19.1411C35.7206 17.9226 35.4747 16.7171 35.1425 15.5342C35.0011 14.9825 34.8597 14.4592 34.7465 13.9217C34.5768 9.09833 33.332 5.43485 30.8991 3.1434L30.6163 2.90294C31.1895 2.91855 31.755 3.03837 32.2853 3.25656C32.8631 3.47017 33.3583 3.86136 33.6998 4.37399C34.1637 4.97468 34.6847 5.52893 35.2557 6.02892C36.3573 6.96873 37.598 7.73218 38.9334 8.29209C40.0791 8.81544 40.7156 9.09835 41.1965 10.1168C41.4409 10.6582 41.557 11.2487 41.536 11.8424L41.4794 11.899ZM32.0024 19.2684C31.6208 20.3571 31.3691 21.4871 31.2527 22.6349C31.2527 22.8046 31.2527 22.9743 31.2527 23.1724V23.4128C31.0741 21.7098 30.3725 20.1039 29.2442 18.8158C28.8776 18.3398 28.5377 17.844 28.2258 17.3306L26.0758 13.5539C25.6204 12.6017 25.2603 11.6067 25.0007 10.5835C24.8734 9.69241 25.2553 8.44767 25.5948 8.30622C25.829 8.20647 26.0141 8.01798 26.1095 7.78201C26.205 7.54605 26.203 7.28185 26.1041 7.04734C26.056 6.93013 25.9853 6.82357 25.8959 6.73378C25.8066 6.64399 25.7003 6.57275 25.5833 6.52412C25.4663 6.47549 25.3409 6.45044 25.2142 6.45042C25.0876 6.4504 24.9622 6.4754 24.8452 6.52399C23.1761 7.23123 22.9356 9.79142 23.0912 10.8523C23.3766 12.0727 23.794 13.2584 24.336 14.3885V14.4733L26.5142 18.2924C26.8602 18.8693 27.2379 19.4266 27.6458 19.9615C28.7774 21.5174 29.6685 22.7904 29.1451 25.0677C28.8927 26.0126 28.2911 26.8265 27.4619 27.3451C27.1447 27.5525 26.8026 27.7188 26.4435 27.8401C24.9301 28.3352 23.2468 26.5529 22.6951 25.9023V24.6576C23.0488 24.5444 23.3882 24.2898 23.6711 24.1766C24.2772 23.8623 24.7713 23.3682 25.0856 22.7621C25.234 22.4769 25.3208 22.1637 25.3402 21.8427C25.4283 21.2185 25.3248 20.5822 25.0432 20.0181C24.3501 18.7309 19.159 18.7309 18.4517 20.0181C18.1702 20.5822 18.0666 21.2185 18.1547 21.8427C18.179 22.1647 18.2705 22.4779 18.4235 22.7621C18.7282 23.3752 19.2249 23.8719 19.838 24.1766C20.1209 24.2898 20.4886 24.5444 20.8422 24.6576V25.9023C20.2905 26.5529 18.6214 28.3352 17.108 27.8543C16.7453 27.7249 16.3988 27.554 16.0754 27.3451C15.2462 26.8265 14.6446 26.0126 14.3922 25.0677C13.8547 22.7339 14.7458 21.5174 15.8067 19.9615C16.2193 19.43 16.5972 18.8725 16.9382 18.2924L19.1166 14.4733V14.3885C19.6583 13.2568 20.0801 12.0716 20.3754 10.8523C20.5168 9.79142 20.2764 7.23123 18.6073 6.52399C18.3707 6.42969 18.1066 6.43165 17.8714 6.52943C17.6362 6.62722 17.4485 6.81308 17.3485 7.04734C17.2999 7.16433 17.2748 7.28978 17.2748 7.41646C17.2749 7.54314 17.2999 7.66856 17.3486 7.78553C17.3972 7.9025 17.4685 8.00872 17.5583 8.09807C17.6481 8.18743 17.7546 8.25816 17.8718 8.30622C18.1183 8.62641 18.2968 8.99353 18.3966 9.3851C18.4963 9.77667 18.515 10.1845 18.4517 10.5835C18.1922 11.6067 17.8321 12.6017 17.3767 13.5539L15.1985 17.3306C14.8915 17.8472 14.5513 18.3433 14.1801 18.8158C13.0573 20.1073 12.3563 21.7114 12.1715 23.4128V23.1724C12.1715 22.9743 12.1715 22.8046 12.1715 22.6349C12.0414 21.4893 11.7901 20.3609 11.4218 19.2684C10.9311 17.9035 10.645 16.4736 10.5731 15.025C10.5731 10.2158 11.6905 6.70788 13.8547 4.58617C14.9211 3.65442 16.1653 2.94844 17.5121 2.51084C18.8589 2.07325 20.2805 1.91311 21.6909 2.04011C23.0995 1.90841 24.52 2.06635 25.8652 2.50422C27.2104 2.94208 28.4518 3.6506 29.5129 4.58617C31.5498 6.58058 32.6531 9.77729 32.7804 14.1339C32.7804 14.1339 32.7804 14.1339 32.7804 14.2187C32.7804 14.4875 32.7804 14.7562 32.7804 15.025C32.7235 16.4692 32.4615 17.8979 32.0024 19.2684ZM19.2721 29.4951C19.4396 28.9857 19.7636 28.5421 20.1979 28.2277C20.6322 27.9133 21.1547 27.744 21.6909 27.744C22.2271 27.744 22.7496 27.9133 23.1839 28.2277C23.6182 28.5421 23.9422 28.9857 24.1096 29.4951C23.3689 29.9037 22.5369 30.118 21.6909 30.118C20.845 30.118 20.0128 29.9037 19.2721 29.4951ZM7.48955 19.1835C7.42228 19.7607 7.27963 20.3266 7.06523 20.8668C6.91911 20.2401 6.70073 19.6325 6.41454 19.0562C6.05261 18.2661 5.53279 17.5585 4.88697 16.977L4.13726 16.1707C2.88392 15.0868 2.08168 13.573 1.88829 11.9273C1.85965 11.333 1.97615 10.7408 2.22775 10.2016C2.70867 9.18321 3.33099 8.90031 4.47672 8.37695C5.81848 7.82104 7.0644 7.05731 8.16856 6.11381C8.73953 5.61381 9.26058 5.05957 9.72445 4.45887C10.0615 3.94212 10.5582 3.5497 11.1389 3.34143C11.679 3.12289 12.2539 3.00311 12.8363 2.98781L12.5534 3.22827C10.1912 5.53386 8.90401 9.09833 8.70598 13.8368C8.59282 14.4168 8.43725 14.9967 8.28165 15.6191C7.9291 16.7849 7.66899 17.9768 7.50371 19.1835H7.48955ZM39.6688 6.58058C38.5009 6.10003 37.417 5.4363 36.458 4.61445C35.9715 4.19 35.5306 3.71594 35.1425 3.19997C34.6067 2.43902 33.8662 1.84559 33.0067 1.48847C31.5728 0.880993 29.9637 0.830545 28.4945 1.34701H28.3814C26.2999 0.359156 24.0061 -0.0976561 21.705 0.0174043C19.397 -0.0683138 17.1037 0.417577 15.0287 1.43188L14.9014 1.36117C13.4322 0.844703 11.8232 0.89513 10.3892 1.50261C9.52977 1.85972 8.78926 2.45318 8.25342 3.21413C7.86534 3.7301 7.42439 4.20416 6.93789 4.6286C5.9768 5.44758 4.89345 6.11099 3.72709 6.59472C3.03942 6.8183 2.40287 7.17591 1.85419 7.6469C1.30551 8.11789 0.85555 8.69294 0.530364 9.3388C0.140791 10.174 -0.0388608 11.0917 0.00701553 12.0122C0.24643 14.1302 1.25269 16.0874 2.83596 17.5145C3.14715 17.8398 3.40172 18.0944 3.59975 18.3207C4.11064 18.761 4.52076 19.3061 4.8021 19.9191C5.1297 20.6233 5.35359 21.3714 5.46687 22.1398C5.60831 22.8612 5.76387 23.6674 6.58427 23.8513H6.83895C7.12068 23.8367 7.39159 23.7382 7.61689 23.5684C8.74382 22.4302 9.42186 20.9233 9.5264 19.325C9.5264 19.4806 9.61132 19.6362 9.6679 19.7918C9.99408 20.7362 10.2169 21.7131 10.3327 22.7056C10.3327 22.8612 10.3327 23.0168 10.3327 23.1865C10.3327 24.898 10.5024 28.3776 15.354 29.1556C15.7072 29.3743 16.0876 29.5455 16.4856 29.6648C16.6333 29.7141 16.7847 29.7519 16.9382 29.778C17.5398 30.4752 18.2845 31.0346 19.1218 31.4181C19.959 31.8015 20.869 32 21.7899 32C22.7107 32 23.6208 31.8015 24.4581 31.4181C25.2953 31.0346 26.0401 30.4752 26.6416 29.778C26.7952 29.7519 26.9464 29.7141 27.0941 29.6648C27.4921 29.5455 27.8726 29.3743 28.2258 29.1556C33.0774 28.3918 33.1906 24.9122 33.2472 23.1865C33.2472 23.0168 33.2472 22.8612 33.2472 22.7056C33.3629 21.7131 33.5857 20.7362 33.9119 19.7918L34.0393 19.3957C34.152 20.9602 34.8249 22.4316 35.9346 23.5401C36.1567 23.7157 36.4296 23.8149 36.7126 23.823H36.9672C37.7876 23.6391 37.9432 22.8329 38.0705 22.1115C38.1964 21.3442 38.4248 20.5973 38.7495 19.8908C39.0308 19.2778 39.4409 18.7327 39.9518 18.2924L40.7015 17.4862C42.289 16.0623 43.2961 14.1034 43.5304 11.9839C43.5763 11.0634 43.3965 10.1457 43.007 9.31051C42.666 8.6546 42.1956 8.07456 41.6244 7.60537C41.0531 7.13619 40.3927 6.78759 39.683 6.58058H39.6688Z" fill="black"/>
</svg>
