<svg width="28" height="28" viewBox="0 0 28 28" fill="none" xmlns="http://www.w3.org/2000/svg">
<path d="M20.35 8.80078C21.0616 8.71627 21.7562 8.52376 22.41 8.23046C21.9276 8.95107 21.3216 9.58062 20.62 10.0903C20.62 10.2503 20.62 10.4005 20.62 10.5605C20.6195 12.3962 20.125 14.198 19.1885 15.7768C18.2519 17.3557 16.9077 18.6531 15.297 19.5337C13.6863 20.4142 11.8683 20.8452 10.0337 20.7812C8.19909 20.7173 6.41552 20.1609 4.86999 19.1704C5.15515 19.207 5.4425 19.224 5.72997 19.2207C7.3511 19.2267 8.92653 18.6839 10.1999 17.6807C9.45034 17.6672 8.72368 17.42 8.12133 16.9736C7.51898 16.5272 7.071 15.9037 6.83996 15.1904C7.06432 15.2311 7.29199 15.2513 7.52001 15.2505C7.83799 15.2529 8.15458 15.2093 8.45996 15.1206C7.64729 14.9566 6.91645 14.5166 6.39147 13.875C5.8665 13.2334 5.57974 12.4296 5.57995 11.6006V11.5508C6.07786 11.8329 6.63783 11.9872 7.20996 12.0005C6.44757 11.493 5.908 10.7131 5.70165 9.8208C5.49531 8.92848 5.6378 7.99138 6.09997 7.20068C7.00121 8.31327 8.12708 9.22319 9.40392 9.87109C10.6808 10.519 12.0799 10.8901 13.51 10.9604C13.446 10.6917 13.4125 10.4168 13.41 10.1406C13.4067 9.41795 13.6215 8.71086 14.0265 8.1123C14.4314 7.51374 15.0075 7.05142 15.6796 6.78564C16.3516 6.51986 17.0883 6.46339 17.7931 6.62304C18.4979 6.78269 19.1381 7.15123 19.63 7.68066C20.4373 7.52303 21.2116 7.22869 21.9199 6.81054C21.6515 7.64584 21.0905 8.35608 20.34 8.81054M27.34 13.6807C27.34 10.977 26.5382 8.33395 25.0361 6.08593C23.534 3.83791 21.3991 2.08591 18.9012 1.05126C16.4034 0.0166136 13.6548 -0.254028 11.003 0.273432C8.35133 0.800892 5.91556 2.10237 4.00378 4.01415C2.09199 5.92594 0.790149 8.36195 0.262689 11.0137C-0.264771 13.6654 0.00587142 16.4137 1.04052 18.9116C2.07517 21.4095 3.82729 23.5448 6.07531 25.0469C8.32333 26.5489 10.9662 27.3506 13.6699 27.3506C17.2954 27.3506 20.7726 25.9103 23.3362 23.3467C25.8998 20.7831 27.34 17.3062 27.34 13.6807Z" fill="white"/>
</svg>
