<svg width="40" height="32" viewBox="0 0 40 32" fill="none" xmlns="http://www.w3.org/2000/svg">
<path d="M16.6914 18.8893C16.6914 19.35 16.8284 19.8003 17.0849 20.183C17.3415 20.5657 17.706 20.8635 18.1322 21.0385C18.5583 21.2136 19.0269 21.258 19.4784 21.1662C19.9299 21.0743 20.3439 20.8503 20.6678 20.5227C20.9917 20.195 21.2107 19.7785 21.2974 19.326C21.384 18.8735 21.3342 18.4055 21.1542 17.9814C20.9743 17.5573 20.6723 17.1962 20.2866 16.9441C19.901 16.692 19.4494 16.5603 18.9887 16.5656C18.377 16.5726 17.7927 16.8205 17.3627 17.2555C16.9327 17.6905 16.6914 18.2776 16.6914 18.8893Z" fill="black"/>
<path d="M4.39046 26.3534C4.10969 24.6964 3.94763 23.0216 3.90547 21.3416C3.36384 21.5388 2.903 21.9104 2.59556 22.398C2.28812 22.8856 2.15142 23.4616 2.20694 24.0353C2.26247 24.6091 2.50704 25.1481 2.90227 25.5677C3.29751 25.9873 3.82106 26.2636 4.39046 26.3534ZM7.08496 30.2604H21.9989C22.2818 29.0209 22.5243 26.8653 21.6351 25.6662C21.3529 25.318 20.9883 25.0457 20.5742 24.874C20.1602 24.7023 19.7098 24.6365 19.264 24.6828C18.1727 24.8175 15.9634 24.3055 14.8721 21.382C14.0907 19.2938 11.935 18.8627 10.2779 18.8627C10.1511 18.8782 10.0223 18.8667 9.90017 18.8288C9.77808 18.7909 9.66551 18.7275 9.56977 18.6428C9.47403 18.5581 9.39729 18.454 9.34479 18.3375C9.29228 18.2209 9.26519 18.0946 9.26519 17.9667C9.26519 17.8389 9.29228 17.7125 9.34479 17.596C9.39729 17.4794 9.47403 17.3754 9.56977 17.2907C9.66551 17.206 9.77808 17.1426 9.90017 17.1047C10.0223 17.0668 10.1511 17.0552 10.2779 17.0708C13.4305 17.0708 15.667 18.4181 16.5427 20.7488C17.4184 23.0795 18.8465 22.9179 19.062 22.9044H19.1967C19.934 22.8511 20.6731 22.9792 21.3495 23.2775C22.0258 23.5757 22.6189 24.0351 23.0768 24.6154C24.0496 26.3336 24.3152 28.3631 23.8177 30.2738H32.1842C32.5555 30.136 32.8756 29.8879 33.1017 29.5628C33.3278 29.2376 33.449 28.8511 33.449 28.4551C33.449 28.059 33.3278 27.6725 33.1017 27.3473C32.8756 27.0222 32.5555 26.7741 32.1842 26.6363H28.5062C28.4259 26.6491 28.344 26.6491 28.2637 26.6363C28.1289 26.6363 24.8955 25.6393 24.8955 22.6754C24.8799 22.5485 24.8915 22.4198 24.9294 22.2977C24.9673 22.1756 25.0307 22.0629 25.1154 21.9672C25.2001 21.8715 25.3041 21.7948 25.4207 21.7423C25.5372 21.6898 25.6637 21.6626 25.7915 21.6626C25.9193 21.6626 26.0457 21.6898 26.1622 21.7423C26.2787 21.7948 26.3829 21.8715 26.4676 21.9672C26.5523 22.0629 26.6157 22.1756 26.6536 22.2977C26.6915 22.4198 26.7029 22.5485 26.6873 22.6754C26.6873 24.09 28.2233 24.7367 28.6544 24.8849H32.6962C33.5129 24.7825 34.2983 24.5069 34.9999 24.0765C35.7591 23.6036 36.374 22.9315 36.7779 22.1333C37.1817 21.3352 37.3589 20.4416 37.2902 19.5497C37.3008 18.5674 37.025 17.6033 36.4961 16.7753C35.9673 15.9474 35.2085 15.2916 34.3128 14.8883C33.3109 14.3623 32.2265 14.0115 31.1063 13.8509C30.8813 13.8273 30.6734 13.72 30.5237 13.5504C30.3739 13.3807 30.2934 13.161 30.298 12.9348C30.4462 8.47537 29.0316 5.25545 26.0811 3.38277C24.8536 2.6065 23.4766 2.097 22.0394 1.88733C20.6921 4.58182 21.945 8.96039 22.3088 10.0651C23.6341 10.6502 24.833 11.4876 25.8385 12.5306C26.8708 13.5645 27.6822 14.7975 28.2232 16.1547C28.3018 16.378 28.2885 16.6234 28.1862 16.8369C28.0839 17.0504 27.9008 17.2145 27.6775 17.2931C27.4542 17.3717 27.2088 17.3584 26.9953 17.2561C26.7819 17.1537 26.6177 16.9708 26.5391 16.7475C26.0649 15.6142 25.3739 14.5845 24.5048 13.7162C23.5084 12.7285 22.32 11.9559 21.013 11.4461C19.706 10.9363 18.3082 10.7001 16.9063 10.7522C15.3303 10.6992 13.7619 10.9926 12.3116 11.6118C10.8614 12.231 9.56465 13.1609 8.51296 14.3359C6.84559 16.1915 5.89078 18.5785 5.81846 21.0721C5.91798 24.176 6.36996 27.2586 7.16571 30.2604M0.537354 23.7801C0.537794 22.75 0.901386 21.753 1.56424 20.9645C2.22708 20.176 3.14667 19.6464 4.16137 19.4689C4.55994 17.1017 5.61488 14.8938 7.20617 13.0964C8.43058 11.7366 9.93566 10.6588 11.6174 9.93774C13.2992 9.21664 15.1176 8.86938 16.9467 8.91996C18.0677 8.91492 19.1851 9.0461 20.2744 9.31066C19.7086 7.10117 19.062 3.09985 20.8673 0.391883C20.9498 0.265134 21.0642 0.162316 21.199 0.0937392C21.3338 0.0251625 21.4841 -0.00675138 21.6351 0.00118993C23.548 0.153715 25.3962 0.763612 27.0241 1.77955C29.3818 3.26152 32.1168 6.25242 32.1572 12.1668C33.2018 12.3921 34.212 12.7546 35.1616 13.2446C36.3719 13.7822 37.3989 14.6613 38.1169 15.7741C38.8348 16.8869 39.2124 18.1851 39.2033 19.5093C39.2794 20.7111 39.026 21.9109 38.4705 22.9792C37.9149 24.0476 37.0783 24.9441 36.0508 25.5719C35.5844 25.8528 35.0871 26.0788 34.5689 26.2456C35.0589 26.8726 35.3245 27.6458 35.3232 28.4416C35.2857 29.2094 35.03 29.9505 34.5861 30.5781C34.1423 31.2057 33.5288 31.6937 32.8174 31.9848C32.706 32.0051 32.5919 32.0051 32.4806 31.9848H6.49208C6.29793 31.9841 6.1093 31.9208 5.95397 31.8043C5.79865 31.6878 5.68488 31.5244 5.62983 31.3382C5.62983 31.2304 5.22572 29.9909 4.86197 28.1048C3.71119 28.0836 2.61472 27.6115 1.80846 26.7901C1.00219 25.9688 0.550644 24.8637 0.550839 23.7127" fill="black"/>
</svg>
