<?xml version="1.0" encoding="UTF-8"?>
<svg width="24px" height="32px" viewBox="0 0 24 32" version="1.1" xmlns="http://www.w3.org/2000/svg" xmlns:xlink="http://www.w3.org/1999/xlink">
    <!-- Generator: sketchtool 55.1 (78136) - https://sketchapp.com -->
    <title>81EED494-2113-4A72-9E13-8AA5E13B2BEB</title>
    <desc>Created with sketchtool.</desc>
    <defs>
        <polygon id="path-1" points="0.0715747341 0.182647165 5.1348391 0.182647165 5.1348391 8.66471819 0.0715747341 8.66471819"></polygon>
        <polygon id="path-3" points="0 0.0311319474 4.2056152 0.0311319474 4.2056152 6.47337804 0 6.47337804"></polygon>
    </defs>
    <g id="Layouts" stroke="none" stroke-width="1" fill="none" fill-rule="evenodd">
        <g id="Iconography" transform="translate(-387.000000, -308.000000)">
            <g id="Furry-Animals" transform="translate(120.000000, 307.282657)">
                <g id="Icon---Furry-Animals" transform="translate(264.653718, 0.000000)">
                    <path d="M15.8574062,21.0689657 C15.8574062,28.2003184 14.3265736,33.9815068 10.9287031,33.9815068 C7.4324841,33.9815068 6,28.2003184 6,21.0689657 C6,13.9374151 8.2066073,8.15642459 10.9287031,8.15642459 C13.6507989,8.15642459 15.8574062,13.9374151 15.8574062,21.0689657" id="Fill-1" fill="#000000" transform="translate(10.928703, 21.068966) rotate(-330.000000) translate(-10.928703, -21.068966) "></path>
                    <g id="Group-5" transform="translate(20.375673, 5.500000) rotate(-330.000000) translate(-20.375673, -5.500000) translate(17.375673, 1.000000)">
                        <mask id="mask-2" fill="white">
                            <use xlink:href="#path-1"></use>
                        </mask>
                        <g id="Clip-4"></g>
                        <path d="M5.1348391,4.42366289 C5.1348391,6.7658209 4.3482492,8.66471819 2.60310798,8.66471819 C0.807308385,8.66471819 0.0715747341,6.7658209 0.0715747341,4.42366289 C0.0715747341,2.08130699 1.20485785,0.182607588 2.60310798,0.182607588 C4.00116022,0.182607588 5.1348391,2.08130699 5.1348391,4.42366289" id="Fill-3" fill="#000000" mask="url(#mask-2)"></path>
                    </g>
                    <g id="Group-10" transform="translate(15.115896, 4.507525) rotate(-330.000000) translate(-15.115896, -4.507525) translate(12.615896, 1.007525)">
                        <mask id="mask-4" fill="white">
                            <use xlink:href="#path-3"></use>
                        </mask>
                        <g id="Clip-9"></g>
                        <path d="M0.182508646,3.75079706 C0.651890093,5.50246847 1.62033562,6.76477211 2.92558015,6.41491276 C4.26842269,6.05515918 4.43820738,4.48771802 3.96882593,2.7362445 C3.49964237,0.984573098 2.2715727,-0.208273176 1.22575443,0.0719309258 C0.180331919,0.352135027 -0.286872801,1.99912566 0.182508646,3.75079706" id="Fill-8" fill="#000000" mask="url(#mask-4)"></path>
                    </g>
                    <path d="M25.565803,9.64455319 C25.0964215,11.3962246 24.1277781,12.6585282 22.8229294,12.3086689 C21.4798889,11.9489153 21.3101042,10.3814741 21.7792878,8.63000063 C22.2486693,6.87832923 23.4767389,5.68548295 24.5225572,5.96568705 C25.5679797,6.24589115 26.0351844,7.89288179 25.565803,9.64455319" id="Fill-6" fill="#000000" transform="translate(23.645480, 9.146011) rotate(-330.000000) translate(-23.645480, -9.146011) "></path>
                </g>
            </g>
        </g>
    </g>
</svg>