<?xml version="1.0" encoding="utf-8"?>
<!-- Generator: Adobe Illustrator 23.1.1, SVG Export Plug-In . SVG Version: 6.00 Build 0)  -->
<svg version="1.1" id="Layer_1" xmlns="http://www.w3.org/2000/svg" xmlns:xlink="http://www.w3.org/1999/xlink" x="0px" y="0px"
	 viewBox="0 0 24 24" style="enable-background:new 0 0 24 24;" xml:space="preserve">
<style type="text/css">
	.st0{fill:none;}
	.st1{fill:#FFFFFF;}
</style>
<rect x="0" y="0" class="st0" width="24" height="24"/>
<g>
	<path class="st1" d="M12.9,12.2H18V7.1c0-1.1-0.7-1.4-1.5-0.6l-1.2,1.2c-1-0.8-2.3-1.2-3.6-1.2c-1.6,0-3,0.6-4.1,1.7
		C6.6,9.2,6,10.6,6,12.2c0,1.6,0.6,3,1.7,4.1c1.1,1.1,2.6,1.7,4.1,1.7c1.6,0,3-0.6,4.1-1.7c0.3-0.3,0.6-0.6,0.8-1
		c0.3-0.5,0.2-1.3-0.4-1.6c-0.5-0.3-1.3-0.2-1.6,0.4c-0.1,0.2-0.3,0.4-0.5,0.6c-0.7,0.7-1.5,1-2.5,1c-0.9,0-1.8-0.4-2.5-1
		c-0.7-0.7-1-1.5-1-2.5c0-0.9,0.4-1.8,1-2.5c0.7-0.7,1.5-1,2.5-1c0.7,0,1.3,0.2,1.9,0.6l-1.4,1.5C11.5,11.5,11.7,12.2,12.9,12.2z"/>
</g>
</svg>
