<?xml version="1.0" encoding="UTF-8"?>
<svg width="24px" height="24px" viewBox="0 0 24 24" version="1.1" xmlns="http://www.w3.org/2000/svg" xmlns:xlink="http://www.w3.org/1999/xlink">
    <!-- Generator: sketchtool 55.2 (78181) - https://sketchapp.com -->
    <title>43A52962-2724-4505-8EEA-6E1FC58E0309</title>
    <desc>Created with sketchtool.</desc>
    <g id="Layouts" stroke="none" stroke-width="1" fill="none" fill-rule="evenodd" fill-opacity="0.796246722">
        <g id="Landing" transform="translate(-396.000000, -52.000000)" fill="#FFFFFF">
            <g id="Header/Desktop">
                <g id="Social" transform="translate(276.000000, 52.000000)">
                    <path d="M120,12 C120,16.913 122.955,21.135 127.184,22.991 C127.15,22.154 127.179,21.147 127.392,20.235 L128.936,13.697 C128.936,13.697 128.553,12.931 128.553,11.797 C128.553,10.019 129.585,8.691 130.868,8.691 C131.958,8.691 132.486,9.511 132.486,10.494 C132.486,11.59 131.786,13.231 131.426,14.751 C131.126,16.025 132.064,17.063 133.32,17.063 C135.594,17.063 137.125,14.143 137.125,10.683 C137.125,8.053 135.354,6.085 132.132,6.085 C128.492,6.085 126.225,8.799 126.225,11.83 C126.225,12.877 126.532,13.614 127.015,14.184 C127.238,14.448 127.268,14.552 127.187,14.854 C127.131,15.073 126.998,15.606 126.943,15.817 C126.863,16.12 126.617,16.23 126.343,16.117 C124.665,15.433 123.885,13.597 123.885,11.532 C123.885,8.124 126.76,4.035 132.461,4.035 C137.043,4.035 140.059,7.352 140.059,10.91 C140.059,15.618 137.442,19.134 133.583,19.134 C132.289,19.134 131.069,18.434 130.652,17.64 C130.652,17.64 129.954,20.404 129.808,20.938 C129.554,21.862 129.056,22.788 128.6,23.508 C129.68,23.826 130.82,24 132,24 C138.628,24 144,18.628 144,12 C144,5.372 138.628,-1.77635684e-15 132,-1.77635684e-15 C125.375,-1.77635684e-15 120,5.372 120,12 Z" id="Path"></path>
                </g>
            </g>
        </g>
    </g>
</svg>