<svg width="30.500000000000004" height="29" xmlns="http://www.w3.org/2000/svg">

 <title/>
 <g>
  <title>background</title>
  <rect fill="none" id="canvas_background" height="31" width="32.5" y="-1" x="-1"/>
 </g>
 <g>
  <title>Layer 1</title>
  <path fill="#f2772a" id="svg_1" d="m15.221969,24.352404a2,2 0 1 1 2,-2a2,2 0 0 1 -2,2zm0,-2z" class="cls-1"/>
  <path fill="#f2772a" id="svg_2" d="m15.221969,18.352404a1,1 0 0 1 -1,-1l0,-8a1,1 0 0 1 2,0l0,8a1,1 0 0 1 -1,1z" class="cls-1"/>
  <path fill="#f2772a" id="svg_3" d="m27.001969,28.352404l-23.56,0a3.19,3.19 0 0 1 -2.77,-1.57a3.13,3.13 0 0 1 -0.06,-3.13l11.78,-21.63a3.23,3.23 0 0 1 5.66,0l11.78,21.63a3.13,3.13 0 0 1 -0.06,3.13a3.19,3.19 0 0 1 -2.77,1.57zm-11.78,-26a1.18,1.18 0 0 0 -1.07,0.63l-11.78,21.62a1.12,1.12 0 0 0 0,1.16a1.19,1.19 0 0 0 1,0.59l23.63,0a1.19,1.19 0 0 0 1,-0.59a1.12,1.12 0 0 0 0,-1.16l-11.71,-21.62a1.18,1.18 0 0 0 -1.07,-0.63z" class="cls-1"/>
 </g>
</svg>