<?xml version="1.0" encoding="UTF-8"?>
<svg width="283px" height="62px" viewBox="0 0 283 62" version="1.1" xmlns="http://www.w3.org/2000/svg" xmlns:xlink="http://www.w3.org/1999/xlink">
    <!-- Generator: sketchtool 55 (78076) - https://sketchapp.com -->
    <title>EE248572-C278-43CB-98EB-C15481D2D21F</title>
    <desc>Created with sketchtool.</desc>
    <g id="Layouts" stroke="none" stroke-width="1" fill="none" fill-rule="evenodd">
        <g id="Blog" transform="translate(-276.000000, -32.000000)" fill-rule="nonzero">
            <g id="Header/Desktop">
                <g id="Logo" transform="translate(276.000000, 32.000000)">
                    <g id="Group">
                        <path d="M58.0142857,61.3357143 L58.0142857,61.3357143 C57.9035714,61.3357143 57.9035714,61.3357143 57.7928571,61.3357143 C56.3535714,61.225 55.2464286,60.1178571 55.1357143,58.6785714 L54.4714286,50.0428571 C50.4857143,47.3857143 47.4964286,43.7321429 45.725,39.4142857 C45.6142857,39.0821429 45.6142857,38.75 45.8357143,38.4178571 C48.05,35.65 49.6,32.55 50.2642857,29.0071429 C51.2607143,24.5785714 50.7071429,19.9285714 48.9357143,15.7214286 C48.825,15.3892857 48.825,15.0571429 49.0464286,14.725 C52.5892857,10.1857143 57.7928571,7.08571429 63.4392857,5.97857143 C69.8607143,4.76071429 76.1714286,6.08928571 81.4857143,9.74285714 C86.8,13.2857143 90.3428571,18.8214286 91.6714286,25.1321429 C92.8892857,31.4428571 91.5607143,37.8642857 87.9071429,43.2892857 C84.3642857,48.7142857 78.7178571,52.3678571 72.5178571,53.475 C69.8607143,53.9178571 67.2035714,54.0285714 64.5464286,53.6964286 L60.3392857,59.7857143 C59.7857143,60.8928571 59.0107143,61.3357143 58.0142857,61.3357143 M47.7178571,39.1928571 C49.4892857,43.0678571 52.2571429,46.2785714 55.9107143,48.7142857 C56.1321429,48.825 56.2428571,49.1571429 56.3535714,49.3785714 L57.0178571,58.5678571 C57.0178571,59.0107143 57.35,59.4535714 57.9035714,59.5642857 L58.0142857,59.5642857 C58.2357143,59.5642857 58.5678571,59.4535714 58.6785714,59.1214286 L63.1071429,52.3678571 C63.3285714,52.0357143 63.6607143,51.925 64.1035714,52.0357143 C66.7607143,52.4785714 69.4178571,52.3678571 71.9642857,51.925 C77.7214286,50.8178571 82.8142857,47.4964286 86.1357143,42.4035714 C89.5678571,37.4214286 90.675,31.4428571 89.6785714,25.6857143 L89.6785714,25.6857143 C88.5714286,19.9285714 85.25,14.8357143 80.2678571,11.5142857 C75.2857143,8.19285714 69.4178571,6.975 63.6607143,7.97142857 C58.5678571,8.96785714 54.0285714,11.5142857 50.7071429,15.5 C52.4785714,19.9285714 52.9214286,24.6892857 51.925,29.3392857 C51.2607143,33.1035714 49.8214286,36.3142857 47.7178571,39.1928571" id="Shape" fill="#000000"></path>
                        <path d="M33.1035714,52.8107143 C32.6607143,52.8107143 32.1071429,52.7 31.6642857,52.4785714 C31.4428571,52.3678571 31.2214286,52.2571429 31.1107143,52.0357143 L27.3464286,48.4928571 C24.6892857,48.825 21.9214286,48.7142857 19.2642857,48.1607143 C12.9535714,46.8321429 7.63928571,43.0678571 3.98571429,37.5321429 C0.442857143,32.1071429 -0.775,25.6857143 0.664285714,19.375 C1.99285714,13.175 5.64642857,7.75 11.0714286,4.20714286 C16.4964286,0.664285714 22.9178571,-0.442857143 29.2285714,0.664285714 C37.0892857,2.21428571 43.5107143,7.63928571 46.7214286,14.9464286 C48.6035714,19.4857143 49.1571429,24.4678571 48.1607143,29.3392857 C47.275,33.1035714 45.725,36.5357143 43.4,39.525 C41.7392857,41.5178571 39.8571429,43.4 37.6428571,44.8392857 L36.3142857,50.375 C36.0928571,51.5928571 35.0964286,52.3678571 33.8785714,52.7 C33.4357143,52.8107143 33.2142857,52.8107143 33.1035714,52.8107143 M27.5678571,46.6107143 C27.7892857,46.6107143 28.0107143,46.7214286 28.1214286,46.8321429 L32.2178571,50.7071429 C32.3285714,50.8178571 32.3285714,50.8178571 32.4392857,50.8178571 C32.6607143,50.9285714 32.8821429,50.9285714 33.325,50.9285714 C33.6571429,50.8178571 33.9892857,50.5964286 34.2107143,50.0428571 L35.5392857,44.0642857 C35.5392857,43.8428571 35.7607143,43.6214286 35.9821429,43.5107143 C38.1964286,42.1821429 40.0785714,40.5214286 41.6285714,38.4178571 C43.8428571,35.65 45.3928571,32.55 46.0571429,29.0071429 C47.0535714,24.5785714 46.5,19.9285714 44.7285714,15.7214286 C41.85,8.96785714 35.8714286,4.09642857 28.675,2.65714286 C22.9178571,1.43928571 17.05,2.54642857 11.9571429,5.75714286 C6.975,8.96785714 3.54285714,13.95 2.325,19.7071429 C1.10714286,25.4642857 2.325,31.5535714 5.64642857,36.425 C8.85714286,41.5178571 13.95,44.8392857 19.7071429,46.1678571 C22.2535714,46.8321429 24.9107143,46.8321429 27.5678571,46.6107143 C27.5678571,46.6107143 27.5678571,46.6107143 27.5678571,46.6107143" id="Shape" fill="#000000"></path>
                        <path d="M25.9071429,9.74285714 C22.6964286,10.075 22.3642857,14.725 23.25,17.3821429 C23.9142857,19.7071429 25.9071429,21.9214286 28.3428571,20.8142857 C28.675,20.5928571 29.3392857,19.9285714 29.5607143,19.4857143 C31.1107143,16.8285714 30.1142857,11.1821429 27.2357143,9.85357143 C27.0142857,9.74285714 26.4607143,9.63214286 25.9071429,9.74285714" id="Path" fill="#FFFFFF"></path>
                        <path d="M16.4964286,12.7321429 C16.275,12.7321429 15.6107143,12.9535714 15.1678571,13.175 C12.1785714,15.3892857 15.1678571,21.7 18.2678571,23.0285714 C18.9321429,23.25 20.15,23.4714286 21.2571429,22.8071429 C22.6964286,21.8107143 22.6964286,19.2642857 22.1428571,17.6035714 C21.2571429,14.9464286 19.375,13.175 17.6035714,12.6214286 C17.3821429,12.7321429 17.05,12.7321429 16.4964286,12.7321429" id="Path" fill="#FFFFFF"></path>
                        <path d="M33.7678571,15.5 C32.6607143,15.8321429 31.8857143,16.7178571 31.3321429,17.7142857 C30.1142857,20.15 30.4464286,25.575 34.1,25.575 C34.7642857,25.575 35.5392857,25.1321429 35.9821429,24.6892857 C37.4214286,23.4714286 38.3071429,20.7035714 37.7535714,18.7107143 C37.3107143,16.4964286 35.7607143,14.9464286 33.7678571,15.5" id="Path" fill="#FFFFFF"></path>
                        <path d="M12.9535714,22.3642857 C11.8464286,22.6964286 11.1821429,23.5821429 10.9607143,24.5785714 C10.2964286,28.0107143 13.95,31.4428571 16.7178571,31.3321429 C18.4892857,31.3321429 19.4857143,30.0035714 19.5964286,28.8964286 C19.9285714,26.35 17.9357143,23.6928571 16.0535714,22.9178571 C15.1678571,22.3642857 14.1714286,22.1428571 12.9535714,22.3642857" id="Path" fill="#FFFFFF"></path>
                        <path d="M25.6857143,24.5785714 C24.4678571,24.8 23.3607143,25.4642857 22.6964286,26.2392857 C21.0357143,28.0107143 19.8178571,31.2214286 19.4857143,33.7678571 C19.375,34.4321429 19.2642857,35.9821429 19.4857143,36.7571429 C19.9285714,38.6392857 21.3678571,39.525 23.0285714,39.1928571 C24.1357143,38.9714286 25.2428571,38.1964286 26.1285714,37.6428571 C27.0142857,37.0892857 27.7892857,36.2035714 28.7857143,35.8714286 C29.6714286,35.65 30.7785714,35.7607143 31.9964286,35.7607143 C34.6535714,35.65 37.7535714,34.875 37.0892857,31.8857143 C36.8678571,30.7785714 35.7607143,29.5607143 35.2071429,29.0071429 C34.5428571,28.1214286 33.6571429,27.4571429 32.8821429,27.0142857 C31.5535714,26.0178571 29.3392857,24.8 27.5678571,24.5785714 C27.2357143,24.4678571 26.35,24.4678571 25.6857143,24.5785714" id="Path" fill="#FFFFFF"></path>
                        <path d="M77.9428571,29.45 L77.9428571,29.45 C79.9357143,26.2392857 78.8285714,23.1392857 76.725,21.8107143 C75.3964286,20.8142857 73.8464286,20.7035714 72.5178571,20.925 C72.075,19.7071429 70.8571429,18.6 69.4178571,18.0464286 C67.0928571,17.3821429 63.9928571,18.0464286 62.5535714,21.5892857 L62.5535714,21.5892857 C61.1142857,21.1464286 58.4571429,21.5892857 57.2392857,24.025 C55.4678571,27.5678571 57.35,29.7821429 57.35,31.9964286 C57.35,35.9821429 59.2321429,38.3071429 62.9964286,40.0785714 L62.9964286,40.0785714 L62.9964286,40.0785714 C66.5392857,41.9607143 69.6392857,42.0714286 72.7392857,39.7464286 C74.5107143,38.4178571 77.5,38.5285714 79.2714286,35.0964286 C80.3785714,32.8821429 79.05,30.3357143 77.9428571,29.45 M71.8535714,24.4678571 C73.0714286,23.25 74.8428571,23.1392857 75.8392857,24.1357143 C76.8357143,25.1321429 76.725,26.9035714 75.5071429,28.1214286 C74.2892857,29.3392857 72.5178571,29.45 71.5214286,28.4535714 C70.4142857,27.4571429 70.6357143,25.6857143 71.8535714,24.4678571 M67.9785714,20.2607143 C69.3071429,20.4821429 70.3035714,21.9214286 69.9714286,23.6928571 C69.75,25.3535714 68.4214286,26.5714286 67.0928571,26.35 C65.7642857,26.1285714 64.7678571,24.6892857 65.1,22.9178571 C65.3214286,21.2571429 66.65,20.0392857 67.9785714,20.2607143 M59.0107143,27.6785714 C58.5678571,26.1285714 59.1214286,24.4678571 60.45,23.9142857 C61.7785714,23.4714286 63.2178571,24.3571429 63.8821429,26.1285714 C64.325,27.6785714 63.7714286,29.3392857 62.4428571,29.8928571 C61.0035714,30.225 59.5642857,29.2285714 59.0107143,27.6785714 M69.8607143,37.2 C69.1964286,37.6428571 67.6464286,37.5321429 66.4285714,36.5357143 C65.875,36.0928571 65.2107143,35.65 65.2107143,35.5392857 C65.1,35.5392857 64.5464286,35.2071429 63.7714286,35.0964286 C62.2214286,34.875 61.225,33.7678571 61.1142857,32.8821429 C61.1142857,32.4392857 61.1142857,31.6642857 61.6678571,31.2214286 C62.6642857,30.3357143 63.4392857,30.5571429 64.8785714,29.6714286 C65.7642857,29.1178571 67.2035714,27.125 68.975,28.0107143 C70.7464286,29.0071429 70.0821429,31.2214286 70.1928571,32.3285714 C70.3035714,33.9892857 71.0785714,34.6535714 70.7464286,35.8714286 C70.7464286,36.425 70.3035714,36.8678571 69.8607143,37.2 M75.3964286,35.7607143 C73.8464286,36.3142857 72.1857143,35.65 71.6321429,34.3214286 C71.1892857,32.9928571 72.075,31.5535714 73.625,30.8892857 C75.175,30.3357143 76.8357143,31 77.3892857,32.3285714 C77.9428571,33.6571429 76.9464286,35.3178571 75.3964286,35.7607143" id="Shape" fill="#FFFFFF"></path>
                    </g>
                    <g id="Group" transform="translate(106.285714, 19.928571)">
                        <path d="M16.6071429,9.74285714 C16.275,9.63214286 15.7214286,9.63214286 15.1678571,9.63214286 L10.9607143,9.63214286 C10.4071429,9.63214286 9.74285714,9.74285714 9.41071429,10.075 C9.07857143,10.4071429 8.85714286,10.9607143 8.85714286,11.5142857 C8.85714286,12.4 9.3,12.8428571 9.74285714,13.0642857 C10.1857143,13.2857143 10.85,13.3964286 11.5142857,13.3964286 L13.8392857,13.3964286 L13.8392857,15.5 C13.2857143,15.8321429 12.6214286,16.0535714 11.9571429,16.1642857 C11.2928571,16.3857143 10.5178571,16.4964286 9.63214286,16.4964286 C8.08214286,16.4964286 6.86428571,16.0535714 6.08928571,14.9464286 C5.20357143,13.8392857 4.76071429,12.4 4.76071429,10.4071429 C4.76071429,9.41071429 4.87142857,8.63571429 5.09285714,7.86071429 C5.31428571,7.19642857 5.64642857,6.53214286 6.08928571,6.08928571 C6.53214286,5.64642857 7.08571429,5.20357143 7.63928571,4.98214286 C8.19285714,4.76071429 8.96785714,4.65 9.63214286,4.65 C10.2964286,4.65 10.9607143,4.76071429 11.4035714,4.98214286 C11.8464286,5.20357143 12.2892857,5.425 12.5107143,5.64642857 C12.7321429,5.97857143 13.175,6.53214286 13.6178571,7.19642857 L13.6178571,7.19642857 C13.8392857,7.41785714 14.0607143,7.63928571 14.5035714,7.86071429 C14.8357143,7.97142857 15.0571429,8.08214286 15.5,8.08214286 C16.0535714,8.08214286 16.7178571,7.86071429 17.05,7.52857143 C17.4928571,7.08571429 17.7142857,6.53214286 17.7142857,5.97857143 C17.7142857,5.53571429 17.6035714,4.87142857 17.2714286,4.31785714 C16.9392857,3.76428571 16.3857143,3.1 15.8321429,2.65714286 C15.2785714,2.21428571 14.3928571,1.66071429 13.3964286,1.32857143 C12.4,0.996428571 11.1821429,0.885714286 9.96428571,0.885714286 C8.41428571,0.885714286 7.08571429,1.10714286 5.75714286,1.55 C4.53928571,1.99285714 3.43214286,2.65714286 2.65714286,3.54285714 C1.77142857,4.42857143 1.10714286,5.425 0.775,6.64285714 C0.332142857,7.86071429 0.110714286,9.18928571 0.110714286,10.7392857 C0.110714286,12.1785714 0.332142857,13.6178571 0.775,14.8357143 C1.21785714,16.0535714 1.88214286,17.1607143 2.65714286,17.9357143 C3.54285714,18.8214286 4.53928571,19.4857143 5.75714286,19.9285714 C6.975,20.3714286 8.30357143,20.5928571 9.74285714,20.5928571 C10.9607143,20.5928571 12.1785714,20.4821429 13.2857143,20.15 C14.3928571,19.9285714 15.5,19.4857143 16.4964286,18.8214286 C16.8285714,18.6 17.1607143,18.3785714 17.6035714,18.1571429 C17.9357143,17.9357143 18.0464286,17.6035714 18.1571429,17.1607143 C18.2678571,16.7178571 18.2678571,16.4964286 18.2678571,15.8321429 L18.2678571,12.2892857 C18.2678571,11.625 18.1571429,10.9607143 17.825,10.6285714 C17.4928571,10.075 17.05,9.85357143 16.6071429,9.74285714" id="Path" fill="#000000"></path>
                        <path d="M34.6535714,16.1642857 L26.6821429,16.1642857 L26.6821429,12.0678571 L33.7678571,12.0678571 C34.4321429,12.0678571 34.9857143,11.8464286 35.4285714,11.625 C35.7607143,11.2928571 35.9821429,10.7392857 35.9821429,10.1857143 C35.9821429,9.63214286 35.7607143,9.07857143 35.4285714,8.74642857 C35.0964286,8.41428571 34.4321429,8.30357143 33.8785714,8.30357143 L26.7928571,8.30357143 L26.7928571,4.98214286 L34.4321429,4.98214286 C35.0964286,4.98214286 35.7607143,4.87142857 36.0928571,4.53928571 C36.425,4.20714286 36.6464286,3.65357143 36.6464286,3.1 C36.6464286,2.54642857 36.425,1.99285714 36.0928571,1.66071429 C35.7607143,1.32857143 35.0964286,1.21785714 34.4321429,1.21785714 L24.8,1.21785714 C24.2464286,1.21785714 23.6928571,1.32857143 23.3607143,1.43928571 C22.9178571,1.66071429 22.475,1.88214286 22.3642857,2.43571429 C22.1428571,2.76785714 22.1428571,3.43214286 22.1428571,3.98571429 L22.1428571,17.6035714 C22.1428571,18.6 22.3642857,19.2642857 22.8071429,19.5964286 C23.25,20.0392857 24.025,20.2607143 24.8,20.2607143 L34.7642857,20.2607143 C35.4285714,20.2607143 36.0928571,20.0392857 36.425,19.7071429 C36.7571429,19.375 36.9785714,18.8214286 36.9785714,18.2678571 C36.9785714,17.7142857 36.7571429,17.1607143 36.425,16.8285714 C35.9821429,16.3857143 35.3178571,16.1642857 34.6535714,16.1642857" id="Path" fill="#000000"></path>
                        <path d="M52.2571429,0.996428571 L40.6321429,0.996428571 C39.9678571,0.996428571 39.3035714,1.10714286 38.9714286,1.43928571 C38.5285714,1.77142857 38.3071429,2.325 38.3071429,2.98928571 C38.3071429,3.54285714 38.5285714,4.09642857 38.8607143,4.42857143 C39.1928571,4.76071429 39.8571429,4.98214286 40.6321429,4.98214286 L44.0642857,4.98214286 L44.0642857,17.7142857 C44.0642857,18.6 44.2857143,19.2642857 44.6178571,19.7071429 C45.0607143,20.15 45.725,20.3714286 46.2785714,20.3714286 C46.9428571,20.3714286 47.4964286,20.15 47.9392857,19.7071429 C48.3821429,19.2642857 48.4928571,18.4892857 48.4928571,17.7142857 L48.4928571,5.09285714 L52.0357143,5.09285714 C52.7,5.09285714 53.3642857,4.87142857 53.8071429,4.53928571 C54.25,4.20714286 54.3607143,3.65357143 54.3607143,3.1 C54.3607143,2.54642857 54.1392857,1.99285714 53.8071429,1.66071429 C53.5857143,1.21785714 53.0321429,0.996428571 52.2571429,0.996428571" id="Path" fill="#000000"></path>
                        <path d="M77.2785714,9.85357143 C76.725,9.41071429 75.95,8.96785714 74.9535714,8.74642857 C74.0678571,8.525 73.1821429,8.19285714 72.1857143,7.86071429 C71.3,7.63928571 70.8571429,7.52857143 70.525,7.41785714 C70.1928571,7.30714286 69.9714286,7.19642857 69.5285714,7.08571429 C69.3071429,6.975 69.0857143,6.75357143 68.975,6.64285714 C68.8642857,6.53214286 68.7535714,6.31071429 68.7535714,6.08928571 C68.7535714,5.86785714 68.8642857,5.53571429 69.3071429,4.98214286 C69.75,4.65 70.525,4.53928571 71.1892857,4.53928571 C72.075,4.53928571 72.7392857,4.65 73.0714286,4.98214286 C73.4035714,5.31428571 73.7357143,5.86785714 74.1785714,6.42142857 L74.1785714,6.42142857 C74.4,6.86428571 74.7321429,7.41785714 75.0642857,7.63928571 C75.3964286,7.97142857 75.7285714,8.08214286 76.3928571,8.08214286 C77.0571429,8.08214286 77.6107143,7.86071429 77.9428571,7.41785714 C78.275,6.975 78.4964286,6.42142857 78.4964286,5.86785714 C78.4964286,5.31428571 78.3857143,4.76071429 78.0535714,4.20714286 C77.8321429,3.65357143 77.3892857,3.1 76.725,2.65714286 C76.0607143,2.21428571 75.3964286,1.77142857 74.5107143,1.43928571 C73.625,1.21785714 72.6285714,0.996428571 71.5214286,0.996428571 C70.0821429,0.996428571 68.7535714,1.21785714 67.6464286,1.66071429 C66.5392857,2.10357143 65.6535714,2.76785714 64.9892857,3.54285714 C64.4357143,4.42857143 63.9928571,5.31428571 63.9928571,6.53214286 C63.9928571,7.75 64.2142857,8.74642857 64.8785714,9.41071429 C65.4321429,10.075 66.2071429,10.85 67.2035714,11.1821429 C68.2,11.5142857 69.1964286,12.0678571 70.6357143,12.2892857 C71.6321429,12.5107143 72.2964286,12.7321429 72.9607143,12.8428571 C73.4035714,12.9535714 73.9571429,13.175 74.1785714,13.5071429 C74.4,13.7285714 74.5107143,14.0607143 74.5107143,14.6142857 C74.5107143,15.1678571 74.2892857,15.7214286 73.625,16.0535714 C73.0714286,16.4964286 72.2964286,16.6071429 71.3,16.6071429 C70.6357143,16.6071429 70.0821429,16.4964286 69.6392857,16.275 C69.3071429,16.0535714 68.975,15.8321429 68.6428571,15.3892857 C68.4214286,15.0571429 68.2,14.5035714 67.9785714,14.0607143 C67.7571429,13.5071429 67.5357143,13.0642857 67.0928571,12.7321429 C66.65,12.4 66.2071429,12.2892857 65.7642857,12.2892857 C65.2107143,12.2892857 64.5464286,12.5107143 64.2142857,12.8428571 C63.8821429,13.175 63.6607143,13.8392857 63.6607143,14.3928571 C63.6607143,15.2785714 63.8821429,16.1642857 64.5464286,17.05 C65.1,17.9357143 65.875,18.6 66.7607143,19.2642857 C67.9785714,19.9285714 69.5285714,20.3714286 71.4107143,20.3714286 C72.9607143,20.3714286 74.2892857,20.15 75.5071429,19.4857143 C76.725,19.0428571 77.5,18.1571429 78.1642857,17.1607143 C78.7178571,16.1642857 79.1607143,15.1678571 79.1607143,13.95 C79.1607143,12.9535714 78.9392857,12.1785714 78.6071429,11.4035714 C78.4964286,10.9607143 78.0535714,10.4071429 77.2785714,9.85357143" id="Path" fill="#FFFFFF"></path>
                        <path d="M95.5464286,16.1642857 L87.575,16.1642857 L87.575,12.0678571 L94.6607143,12.0678571 C95.325,12.0678571 95.8785714,11.8464286 96.3214286,11.625 C96.6535714,11.2928571 96.875,10.7392857 96.875,10.1857143 C96.875,9.63214286 96.6535714,9.07857143 96.3214286,8.74642857 C95.9892857,8.41428571 95.325,8.30357143 94.7714286,8.30357143 L87.6857143,8.30357143 L87.6857143,4.98214286 L95.325,4.98214286 C95.9892857,4.98214286 96.6535714,4.87142857 96.9857143,4.53928571 C97.3178571,4.20714286 97.5392857,3.65357143 97.5392857,3.1 C97.5392857,2.54642857 97.3178571,1.99285714 96.9857143,1.66071429 C96.6535714,1.32857143 95.9892857,1.21785714 95.325,1.21785714 L85.6928571,1.21785714 C85.1392857,1.21785714 84.5857143,1.32857143 84.2535714,1.43928571 C83.8107143,1.66071429 83.3678571,1.88214286 83.2571429,2.43571429 C83.0357143,2.76785714 83.0357143,3.43214286 83.0357143,3.98571429 L83.0357143,17.6035714 C83.0357143,18.6 83.2571429,19.2642857 83.7,19.5964286 C84.1428571,20.0392857 84.9178571,20.2607143 85.6928571,20.2607143 L95.6571429,20.2607143 C96.3214286,20.2607143 96.9857143,20.0392857 97.3178571,19.7071429 C97.65,19.375 97.8714286,18.8214286 97.8714286,18.2678571 C97.8714286,17.7142857 97.65,17.1607143 97.3178571,16.8285714 C96.6535714,16.3857143 96.2107143,16.1642857 95.5464286,16.1642857" id="Path" fill="#FFFFFF"></path>
                        <path d="M113.15,0.996428571 L101.525,0.996428571 C100.860714,0.996428571 100.196429,1.10714286 99.8642857,1.43928571 C99.4214286,1.77142857 99.2,2.325 99.2,2.98928571 C99.2,3.54285714 99.4214286,4.09642857 99.7535714,4.42857143 C100.085714,4.76071429 100.75,4.98214286 101.525,4.98214286 L105.067857,4.98214286 L105.067857,17.7142857 C105.067857,18.6 105.289286,19.2642857 105.621429,19.7071429 C106.064286,20.15 106.728571,20.3714286 107.282143,20.3714286 C107.946429,20.3714286 108.5,20.15 108.942857,19.7071429 C109.385714,19.2642857 109.496429,18.4892857 109.496429,17.7142857 L109.496429,5.09285714 L112.928571,5.09285714 C113.592857,5.09285714 114.257143,4.87142857 114.7,4.53928571 C115.142857,4.20714286 115.253571,3.65357143 115.253571,3.1 C115.253571,2.54642857 115.032143,1.99285714 114.7,1.66071429 C114.478571,1.21785714 113.925,0.996428571 113.15,0.996428571" id="Path" fill="#FFFFFF"></path>
                        <path d="M138.614286,2.54642857 C138.060714,2.10357143 137.285714,1.55 136.4,1.43928571 C135.514286,1.21785714 134.517857,1.10714286 132.967857,1.10714286 L128.317857,1.10714286 C127.321429,1.10714286 126.657143,1.32857143 126.103571,1.77142857 C125.660714,2.21428571 125.439286,2.98928571 125.439286,3.98571429 L125.439286,17.9357143 C125.439286,18.8214286 125.660714,19.4857143 125.992857,19.9285714 C126.435714,20.3714286 127.1,20.5928571 127.653571,20.5928571 C128.317857,20.5928571 128.871429,20.3714286 129.314286,19.9285714 C129.757143,19.4857143 129.867857,18.7107143 129.867857,17.9357143 L129.867857,13.0642857 L132.635714,13.0642857 C135.071429,13.0642857 136.842857,12.6214286 138.060714,11.5142857 C139.278571,10.4071429 139.942857,8.85714286 139.942857,6.975 C139.942857,5.97857143 139.832143,5.20357143 139.5,4.42857143 C139.5,3.65357143 139.167857,2.98928571 138.614286,2.54642857 M135.514286,7.08571429 C135.514286,7.63928571 135.403571,8.08214286 135.182143,8.41428571 C134.960714,8.74642857 134.628571,8.96785714 134.075,9.07857143 C133.632143,9.18928571 132.857143,9.3 132.082143,9.3 L130.2,9.3 L130.2,4.87142857 L132.082143,4.87142857 C133.853571,4.87142857 134.628571,5.20357143 134.960714,5.425 C135.403571,5.86785714 135.514286,6.42142857 135.514286,7.08571429" id="Shape" fill="#000000"></path>
                        <path d="M156.328571,16.1642857 L148.357143,16.1642857 L148.357143,12.0678571 L155.442857,12.0678571 C156.107143,12.0678571 156.660714,11.8464286 157.103571,11.625 C157.435714,11.2928571 157.657143,10.7392857 157.657143,10.1857143 C157.657143,9.63214286 157.435714,9.07857143 157.103571,8.74642857 C156.771429,8.41428571 156.107143,8.30357143 155.553571,8.30357143 L148.467857,8.30357143 L148.467857,4.98214286 L156.107143,4.98214286 C156.771429,4.98214286 157.435714,4.87142857 157.767857,4.53928571 C158.1,4.20714286 158.321429,3.65357143 158.321429,3.1 C158.321429,2.54642857 158.1,1.99285714 157.767857,1.66071429 C157.435714,1.32857143 156.771429,1.21785714 156.107143,1.21785714 L146.475,1.21785714 C145.921429,1.21785714 145.367857,1.32857143 145.035714,1.43928571 C144.592857,1.66071429 144.15,1.88214286 144.039286,2.43571429 C143.817857,2.76785714 143.817857,3.43214286 143.817857,3.98571429 L143.817857,17.6035714 C143.817857,18.6 144.039286,19.2642857 144.482143,19.5964286 C144.925,20.0392857 145.7,20.2607143 146.475,20.2607143 L156.439286,20.2607143 C157.103571,20.2607143 157.767857,20.0392857 158.1,19.7071429 C158.432143,19.375 158.653571,18.8214286 158.653571,18.2678571 C158.653571,17.7142857 158.432143,17.1607143 158.1,16.8285714 C157.546429,16.3857143 157.103571,16.1642857 156.328571,16.1642857" id="Path" fill="#000000"></path>
                        <path d="M175.703571,1.55 C175.371429,1.21785714 174.707143,0.996428571 173.932143,0.996428571 L162.307143,0.996428571 C161.642857,0.996428571 160.978571,1.10714286 160.646429,1.43928571 C160.203571,1.77142857 159.982143,2.325 159.982143,2.98928571 C159.982143,3.54285714 160.203571,4.09642857 160.535714,4.42857143 C160.867857,4.76071429 161.532143,4.98214286 162.307143,4.98214286 L165.85,4.98214286 L165.85,17.7142857 C165.85,18.6 166.071429,19.2642857 166.403571,19.7071429 C166.846429,20.15 167.510714,20.3714286 168.064286,20.3714286 C168.728571,20.3714286 169.282143,20.15 169.725,19.7071429 C170.167857,19.2642857 170.278571,18.4892857 170.278571,17.7142857 L170.278571,5.09285714 L173.821429,5.09285714 C174.485714,5.09285714 175.15,4.87142857 175.592857,4.53928571 C176.035714,4.20714286 176.146429,3.65357143 176.146429,3.1 C176.478571,2.43571429 176.257143,1.88214286 175.703571,1.55" id="Path" fill="#000000"></path>
                    </g>
                </g>
            </g>
        </g>
    </g>
</svg>