<?xml version="1.0" encoding="UTF-8" standalone="no"?>
<!DOCTYPE svg PUBLIC "-//W3C//DTD SVG 1.1//EN" "http://www.w3.org/Graphics/SVG/1.1/DTD/svg11.dtd">
<svg width="100%" height="100%" viewBox="0 0 300 300" version="1.1" xmlns="http://www.w3.org/2000/svg" xmlns:xlink="http://www.w3.org/1999/xlink" xml:space="preserve" xmlns:serif="http://www.serif.com/" style="fill-rule:evenodd;clip-rule:evenodd;stroke-linejoin:round;stroke-miterlimit:1.41421;">
    <g id="Logo">
        <g id="Group" transform="matrix(1,0,0,1,9,102)">
            <path id="Shape" d="M58.014,61.336L57.793,61.336C56.354,61.225 55.246,60.118 55.136,58.679L54.471,50.043C50.486,47.386 47.496,43.732 45.725,39.414C45.614,39.082 45.614,38.75 45.836,38.418C48.05,35.65 49.6,32.55 50.264,29.007C51.261,24.579 50.707,19.929 48.936,15.721C48.825,15.389 48.825,15.057 49.046,14.725C52.589,10.186 57.793,7.086 63.439,5.979C69.861,4.761 76.171,6.089 81.486,9.743C86.8,13.286 90.343,18.821 91.671,25.132C92.889,31.443 91.561,37.864 87.907,43.289C84.364,48.714 78.718,52.368 72.518,53.475C69.861,53.918 67.204,54.029 64.546,53.696L60.339,59.786C59.786,60.893 59.011,61.336 58.014,61.336M47.718,39.193C49.489,43.068 52.257,46.279 55.911,48.714C56.132,48.825 56.243,49.157 56.354,49.379L57.018,58.568C57.018,59.011 57.35,59.454 57.904,59.564L58.014,59.564C58.236,59.564 58.568,59.454 58.679,59.121L63.107,52.368C63.329,52.036 63.661,51.925 64.104,52.036C66.761,52.479 69.418,52.368 71.964,51.925C77.721,50.818 82.814,47.496 86.136,42.404C89.568,37.421 90.675,31.443 89.679,25.686C88.571,19.929 85.25,14.836 80.268,11.514C75.286,8.193 69.418,6.975 63.661,7.971C58.568,8.968 54.029,11.514 50.707,15.5C52.479,19.929 52.921,24.689 51.925,29.339C51.261,33.104 49.821,36.314 47.718,39.193" style="fill-rule:nonzero;"/>
            <path id="Shape1" serif:id="Shape" d="M33.104,52.811C32.661,52.811 32.107,52.7 31.664,52.479C31.443,52.368 31.221,52.257 31.111,52.036L27.346,48.493C24.689,48.825 21.921,48.714 19.264,48.161C12.954,46.832 7.639,43.068 3.986,37.532C0.443,32.107 -0.775,25.686 0.664,19.375C1.993,13.175 5.646,7.75 11.071,4.207C16.496,0.664 22.918,-0.443 29.229,0.664C37.089,2.214 43.511,7.639 46.721,14.946C48.604,19.486 49.157,24.468 48.161,29.339C47.275,33.104 45.725,36.536 43.4,39.525C41.739,41.518 39.857,43.4 37.643,44.839L36.314,50.375C36.093,51.593 35.096,52.368 33.879,52.7C33.436,52.811 33.214,52.811 33.104,52.811M27.568,46.611C27.789,46.611 28.011,46.721 28.121,46.832L32.218,50.707C32.329,50.818 32.329,50.818 32.439,50.818C32.661,50.929 32.882,50.929 33.325,50.929C33.657,50.818 33.989,50.596 34.211,50.043L35.539,44.064C35.539,43.843 35.761,43.621 35.982,43.511C38.196,42.182 40.079,40.521 41.629,38.418C43.843,35.65 45.393,32.55 46.057,29.007C47.054,24.579 46.5,19.929 44.729,15.721C41.85,8.968 35.871,4.096 28.675,2.657C22.918,1.439 17.05,2.546 11.957,5.757C6.975,8.968 3.543,13.95 2.325,19.707C1.107,25.464 2.325,31.554 5.646,36.425C8.857,41.518 13.95,44.839 19.707,46.168C22.254,46.832 24.911,46.832 27.568,46.611" style="fill-rule:nonzero;"/>
            <path id="Path" d="M25.907,9.743C22.696,10.075 22.364,14.725 23.25,17.382C23.914,19.707 25.907,21.921 28.343,20.814C28.675,20.593 29.339,19.929 29.561,19.486C31.111,16.829 30.114,11.182 27.236,9.854C27.014,9.743 26.461,9.632 25.907,9.743" style="fill:white;fill-rule:nonzero;"/>
            <path id="Path1" serif:id="Path" d="M16.496,12.732C16.275,12.732 15.611,12.954 15.168,13.175C12.179,15.389 15.168,21.7 18.268,23.029C18.932,23.25 20.15,23.471 21.257,22.807C22.696,21.811 22.696,19.264 22.143,17.604C21.257,14.946 19.375,13.175 17.604,12.621C17.382,12.732 17.05,12.732 16.496,12.732" style="fill:white;fill-rule:nonzero;"/>
            <path id="Path2" serif:id="Path" d="M33.768,15.5C32.661,15.832 31.886,16.718 31.332,17.714C30.114,20.15 30.446,25.575 34.1,25.575C34.764,25.575 35.539,25.132 35.982,24.689C37.421,23.471 38.307,20.704 37.754,18.711C37.311,16.496 35.761,14.946 33.768,15.5" style="fill:white;fill-rule:nonzero;"/>
            <path id="Path3" serif:id="Path" d="M12.954,22.364C11.846,22.696 11.182,23.582 10.961,24.579C10.296,28.011 13.95,31.443 16.718,31.332C18.489,31.332 19.486,30.004 19.596,28.896C19.929,26.35 17.936,23.693 16.054,22.918C15.168,22.364 14.171,22.143 12.954,22.364" style="fill:white;fill-rule:nonzero;"/>
            <path id="Path4" serif:id="Path" d="M25.686,24.579C24.468,24.8 23.361,25.464 22.696,26.239C21.036,28.011 19.818,31.221 19.486,33.768C19.375,34.432 19.264,35.982 19.486,36.757C19.929,38.639 21.368,39.525 23.029,39.193C24.136,38.971 25.243,38.196 26.129,37.643C27.014,37.089 27.789,36.204 28.786,35.871C29.671,35.65 30.779,35.761 31.996,35.761C34.654,35.65 37.754,34.875 37.089,31.886C36.868,30.779 35.761,29.561 35.207,29.007C34.543,28.121 33.657,27.457 32.882,27.014C31.554,26.018 29.339,24.8 27.568,24.579C27.236,24.468 26.35,24.468 25.686,24.579" style="fill:white;fill-rule:nonzero;"/>
            <path id="Shape2" serif:id="Shape" d="M77.943,29.45C79.936,26.239 78.829,23.139 76.725,21.811C75.396,20.814 73.846,20.704 72.518,20.925C72.075,19.707 70.857,18.6 69.418,18.046C67.093,17.382 63.993,18.046 62.554,21.589C61.114,21.146 58.457,21.589 57.239,24.025C55.468,27.568 57.35,29.782 57.35,31.996C57.35,35.982 59.232,38.307 62.996,40.079C66.539,41.961 69.639,42.071 72.739,39.746C74.511,38.418 77.5,38.529 79.271,35.096C80.379,32.882 79.05,30.336 77.943,29.45M71.854,24.468C73.071,23.25 74.843,23.139 75.839,24.136C76.836,25.132 76.725,26.904 75.507,28.121C74.289,29.339 72.518,29.45 71.521,28.454C70.414,27.457 70.636,25.686 71.854,24.468M67.979,20.261C69.307,20.482 70.304,21.921 69.971,23.693C69.75,25.354 68.421,26.571 67.093,26.35C65.764,26.129 64.768,24.689 65.1,22.918C65.321,21.257 66.65,20.039 67.979,20.261M59.011,27.679C58.568,26.129 59.121,24.468 60.45,23.914C61.779,23.471 63.218,24.357 63.882,26.129C64.325,27.679 63.771,29.339 62.443,29.893C61.004,30.225 59.564,29.229 59.011,27.679M69.861,37.2C69.196,37.643 67.646,37.532 66.429,36.536C65.875,36.093 65.211,35.65 65.211,35.539C65.1,35.539 64.546,35.207 63.771,35.096C62.221,34.875 61.225,33.768 61.114,32.882C61.114,32.439 61.114,31.664 61.668,31.221C62.664,30.336 63.439,30.557 64.879,29.671C65.764,29.118 67.204,27.125 68.975,28.011C70.746,29.007 70.082,31.221 70.193,32.329C70.304,33.989 71.079,34.654 70.746,35.871C70.746,36.425 70.304,36.868 69.861,37.2M75.396,35.761C73.846,36.314 72.186,35.65 71.632,34.321C71.189,32.993 72.075,31.554 73.625,30.889C75.175,30.336 76.836,31 77.389,32.329C77.943,33.657 76.946,35.318 75.396,35.761" style="fill:white;fill-rule:nonzero;"/>
        </g>
        <g id="Group1" serif:id="Group" transform="matrix(1,0,0,1,115.286,121.929)">
            <path id="Path5" serif:id="Path" d="M16.607,9.743C16.275,9.632 15.721,9.632 15.168,9.632L10.961,9.632C10.407,9.632 9.743,9.743 9.411,10.075C9.079,10.407 8.857,10.961 8.857,11.514C8.857,12.4 9.3,12.843 9.743,13.064C10.186,13.286 10.85,13.396 11.514,13.396L13.839,13.396L13.839,15.5C13.286,15.832 12.621,16.054 11.957,16.164C11.293,16.386 10.518,16.496 9.632,16.496C8.082,16.496 6.864,16.054 6.089,14.946C5.204,13.839 4.761,12.4 4.761,10.407C4.761,9.411 4.871,8.636 5.093,7.861C5.314,7.196 5.646,6.532 6.089,6.089C6.532,5.646 7.086,5.204 7.639,4.982C8.193,4.761 8.968,4.65 9.632,4.65C10.296,4.65 10.961,4.761 11.404,4.982C11.846,5.204 12.289,5.425 12.511,5.646C12.732,5.979 13.175,6.532 13.618,7.196C13.839,7.418 14.061,7.639 14.504,7.861C14.836,7.971 15.057,8.082 15.5,8.082C16.054,8.082 16.718,7.861 17.05,7.529C17.493,7.086 17.714,6.532 17.714,5.979C17.714,5.536 17.604,4.871 17.271,4.318C16.939,3.764 16.386,3.1 15.832,2.657C15.279,2.214 14.393,1.661 13.396,1.329C12.4,0.996 11.182,0.886 9.964,0.886C8.414,0.886 7.086,1.107 5.757,1.55C4.539,1.993 3.432,2.657 2.657,3.543C1.771,4.429 1.107,5.425 0.775,6.643C0.332,7.861 0.111,9.189 0.111,10.739C0.111,12.179 0.332,13.618 0.775,14.836C1.218,16.054 1.882,17.161 2.657,17.936C3.543,18.821 4.539,19.486 5.757,19.929C6.975,20.371 8.304,20.593 9.743,20.593C10.961,20.593 12.179,20.482 13.286,20.15C14.393,19.929 15.5,19.486 16.496,18.821C16.829,18.6 17.161,18.379 17.604,18.157C17.936,17.936 18.046,17.604 18.157,17.161C18.268,16.718 18.268,16.496 18.268,15.832L18.268,12.289C18.268,11.625 18.157,10.961 17.825,10.629C17.493,10.075 17.05,9.854 16.607,9.743" style="fill-rule:nonzero;"/>
            <path id="Path6" serif:id="Path" d="M34.654,16.164L26.682,16.164L26.682,12.068L33.768,12.068C34.432,12.068 34.986,11.846 35.429,11.625C35.761,11.293 35.982,10.739 35.982,10.186C35.982,9.632 35.761,9.079 35.429,8.746C35.096,8.414 34.432,8.304 33.879,8.304L26.793,8.304L26.793,4.982L34.432,4.982C35.096,4.982 35.761,4.871 36.093,4.539C36.425,4.207 36.646,3.654 36.646,3.1C36.646,2.546 36.425,1.993 36.093,1.661C35.761,1.329 35.096,1.218 34.432,1.218L24.8,1.218C24.246,1.218 23.693,1.329 23.361,1.439C22.918,1.661 22.475,1.882 22.364,2.436C22.143,2.768 22.143,3.432 22.143,3.986L22.143,17.604C22.143,18.6 22.364,19.264 22.807,19.596C23.25,20.039 24.025,20.261 24.8,20.261L34.764,20.261C35.429,20.261 36.093,20.039 36.425,19.707C36.757,19.375 36.979,18.821 36.979,18.268C36.979,17.714 36.757,17.161 36.425,16.829C35.982,16.386 35.318,16.164 34.654,16.164" style="fill-rule:nonzero;"/>
            <path id="Path7" serif:id="Path" d="M52.257,0.996L40.632,0.996C39.968,0.996 39.304,1.107 38.971,1.439C38.529,1.771 38.307,2.325 38.307,2.989C38.307,3.543 38.529,4.096 38.861,4.429C39.193,4.761 39.857,4.982 40.632,4.982L44.064,4.982L44.064,17.714C44.064,18.6 44.286,19.264 44.618,19.707C45.061,20.15 45.725,20.371 46.279,20.371C46.943,20.371 47.496,20.15 47.939,19.707C48.382,19.264 48.493,18.489 48.493,17.714L48.493,5.093L52.036,5.093C52.7,5.093 53.364,4.871 53.807,4.539C54.25,4.207 54.361,3.654 54.361,3.1C54.361,2.546 54.139,1.993 53.807,1.661C53.586,1.218 53.032,0.996 52.257,0.996" style="fill-rule:nonzero;"/>
            <path id="Path8" serif:id="Path" d="M77.279,9.854C76.725,9.411 75.95,8.968 74.954,8.746C74.068,8.525 73.182,8.193 72.186,7.861C71.3,7.639 70.857,7.529 70.525,7.418C70.193,7.307 69.971,7.196 69.529,7.086C69.307,6.975 69.086,6.754 68.975,6.643C68.864,6.532 68.754,6.311 68.754,6.089C68.754,5.868 68.864,5.536 69.307,4.982C69.75,4.65 70.525,4.539 71.189,4.539C72.075,4.539 72.739,4.65 73.071,4.982C73.404,5.314 73.736,5.868 74.179,6.421C74.4,6.864 74.732,7.418 75.064,7.639C75.396,7.971 75.729,8.082 76.393,8.082C77.057,8.082 77.611,7.861 77.943,7.418C78.275,6.975 78.496,6.421 78.496,5.868C78.496,5.314 78.386,4.761 78.054,4.207C77.832,3.654 77.389,3.1 76.725,2.657C76.061,2.214 75.396,1.771 74.511,1.439C73.625,1.218 72.629,0.996 71.521,0.996C70.082,0.996 68.754,1.218 67.646,1.661C66.539,2.104 65.654,2.768 64.989,3.543C64.436,4.429 63.993,5.314 63.993,6.532C63.993,7.75 64.214,8.746 64.879,9.411C65.432,10.075 66.207,10.85 67.204,11.182C68.2,11.514 69.196,12.068 70.636,12.289C71.632,12.511 72.296,12.732 72.961,12.843C73.404,12.954 73.957,13.175 74.179,13.507C74.4,13.729 74.511,14.061 74.511,14.614C74.511,15.168 74.289,15.721 73.625,16.054C73.071,16.496 72.296,16.607 71.3,16.607C70.636,16.607 70.082,16.496 69.639,16.275C69.307,16.054 68.975,15.832 68.643,15.389C68.421,15.057 68.2,14.504 67.979,14.061C67.757,13.507 67.536,13.064 67.093,12.732C66.65,12.4 66.207,12.289 65.764,12.289C65.211,12.289 64.546,12.511 64.214,12.843C63.882,13.175 63.661,13.839 63.661,14.393C63.661,15.279 63.882,16.164 64.546,17.05C65.1,17.936 65.875,18.6 66.761,19.264C67.979,19.929 69.529,20.371 71.411,20.371C72.961,20.371 74.289,20.15 75.507,19.486C76.725,19.043 77.5,18.157 78.164,17.161C78.718,16.164 79.161,15.168 79.161,13.95C79.161,12.954 78.939,12.179 78.607,11.404C78.496,10.961 78.054,10.407 77.279,9.854" style="fill:white;fill-rule:nonzero;"/>
            <path id="Path9" serif:id="Path" d="M95.546,16.164L87.575,16.164L87.575,12.068L94.661,12.068C95.325,12.068 95.879,11.846 96.321,11.625C96.654,11.293 96.875,10.739 96.875,10.186C96.875,9.632 96.654,9.079 96.321,8.746C95.989,8.414 95.325,8.304 94.771,8.304L87.686,8.304L87.686,4.982L95.325,4.982C95.989,4.982 96.654,4.871 96.986,4.539C97.318,4.207 97.539,3.654 97.539,3.1C97.539,2.546 97.318,1.993 96.986,1.661C96.654,1.329 95.989,1.218 95.325,1.218L85.693,1.218C85.139,1.218 84.586,1.329 84.254,1.439C83.811,1.661 83.368,1.882 83.257,2.436C83.036,2.768 83.036,3.432 83.036,3.986L83.036,17.604C83.036,18.6 83.257,19.264 83.7,19.596C84.143,20.039 84.918,20.261 85.693,20.261L95.657,20.261C96.321,20.261 96.986,20.039 97.318,19.707C97.65,19.375 97.871,18.821 97.871,18.268C97.871,17.714 97.65,17.161 97.318,16.829C96.654,16.386 96.211,16.164 95.546,16.164" style="fill:white;fill-rule:nonzero;"/>
            <path id="Path10" serif:id="Path" d="M113.15,0.996L101.525,0.996C100.861,0.996 100.196,1.107 99.864,1.439C99.421,1.771 99.2,2.325 99.2,2.989C99.2,3.543 99.421,4.096 99.754,4.429C100.086,4.761 100.75,4.982 101.525,4.982L105.068,4.982L105.068,17.714C105.068,18.6 105.289,19.264 105.621,19.707C106.064,20.15 106.729,20.371 107.282,20.371C107.946,20.371 108.5,20.15 108.943,19.707C109.386,19.264 109.496,18.489 109.496,17.714L109.496,5.093L112.929,5.093C113.593,5.093 114.257,4.871 114.7,4.539C115.143,4.207 115.254,3.654 115.254,3.1C115.254,2.546 115.032,1.993 114.7,1.661C114.479,1.218 113.925,0.996 113.15,0.996" style="fill:white;fill-rule:nonzero;"/>
            <path id="Shape3" serif:id="Shape" d="M138.614,2.546C138.061,2.104 137.286,1.55 136.4,1.439C135.514,1.218 134.518,1.107 132.968,1.107L128.318,1.107C127.321,1.107 126.657,1.329 126.104,1.771C125.661,2.214 125.439,2.989 125.439,3.986L125.439,17.936C125.439,18.821 125.661,19.486 125.993,19.929C126.436,20.371 127.1,20.593 127.654,20.593C128.318,20.593 128.871,20.371 129.314,19.929C129.757,19.486 129.868,18.711 129.868,17.936L129.868,13.064L132.636,13.064C135.071,13.064 136.843,12.621 138.061,11.514C139.279,10.407 139.943,8.857 139.943,6.975C139.943,5.979 139.832,5.204 139.5,4.429C139.5,3.654 139.168,2.989 138.614,2.546M135.514,7.086C135.514,7.639 135.404,8.082 135.182,8.414C134.961,8.746 134.629,8.968 134.075,9.079C133.632,9.189 132.857,9.3 132.082,9.3L130.2,9.3L130.2,4.871L132.082,4.871C133.854,4.871 134.629,5.204 134.961,5.425C135.404,5.868 135.514,6.421 135.514,7.086" style="fill-rule:nonzero;"/>
            <path id="Path11" serif:id="Path" d="M156.329,16.164L148.357,16.164L148.357,12.068L155.443,12.068C156.107,12.068 156.661,11.846 157.104,11.625C157.436,11.293 157.657,10.739 157.657,10.186C157.657,9.632 157.436,9.079 157.104,8.746C156.771,8.414 156.107,8.304 155.554,8.304L148.468,8.304L148.468,4.982L156.107,4.982C156.771,4.982 157.436,4.871 157.768,4.539C158.1,4.207 158.321,3.654 158.321,3.1C158.321,2.546 158.1,1.993 157.768,1.661C157.436,1.329 156.771,1.218 156.107,1.218L146.475,1.218C145.921,1.218 145.368,1.329 145.036,1.439C144.593,1.661 144.15,1.882 144.039,2.436C143.818,2.768 143.818,3.432 143.818,3.986L143.818,17.604C143.818,18.6 144.039,19.264 144.482,19.596C144.925,20.039 145.7,20.261 146.475,20.261L156.439,20.261C157.104,20.261 157.768,20.039 158.1,19.707C158.432,19.375 158.654,18.821 158.654,18.268C158.654,17.714 158.432,17.161 158.1,16.829C157.546,16.386 157.104,16.164 156.329,16.164" style="fill-rule:nonzero;"/>
            <path id="Path12" serif:id="Path" d="M175.704,1.55C175.371,1.218 174.707,0.996 173.932,0.996L162.307,0.996C161.643,0.996 160.979,1.107 160.646,1.439C160.204,1.771 159.982,2.325 159.982,2.989C159.982,3.543 160.204,4.096 160.536,4.429C160.868,4.761 161.532,4.982 162.307,4.982L165.85,4.982L165.85,17.714C165.85,18.6 166.071,19.264 166.404,19.707C166.846,20.15 167.511,20.371 168.064,20.371C168.729,20.371 169.282,20.15 169.725,19.707C170.168,19.264 170.279,18.489 170.279,17.714L170.279,5.093L173.821,5.093C174.486,5.093 175.15,4.871 175.593,4.539C176.036,4.207 176.146,3.654 176.146,3.1C176.479,2.436 176.257,1.882 175.704,1.55" style="fill-rule:nonzero;"/>
        </g>
        <g transform="matrix(1,0,0,1,-26,19)">
            <text x="62.533px" y="185.856px" style="font-family:'ArialMT', 'Arial', sans-serif;font-size:36px;">Missing Image</text>
        </g>
    </g>
</svg>
