<?xml version="1.0" encoding="UTF-8"?>
<svg width="127px" height="15px" viewBox="0 0 127 15" version="1.1" xmlns="http://www.w3.org/2000/svg" xmlns:xlink="http://www.w3.org/1999/xlink">
    <!-- Generator: sketchtool 57.1 (101010) - https://sketch.com -->
    <title>E7636FDA-A422-4DD7-B4C7-2F690C1EF128</title>
    <desc>Created with sketchtool.</desc>
    <g id="Symbols" stroke="none" stroke-width="1" fill="none" fill-rule="evenodd">
        <g id="Header/Mobile" transform="translate(-97.000000, -16.000000)" fill-rule="nonzero">
            <g id="Logo" transform="translate(97.000000, 16.000000)">
                <path d="M12.1283422,6.3709893 C11.8756684,6.28676471 11.5147059,6.28676471 11.0815508,6.28676471 L8.07352941,6.28676471 C7.64037433,6.28676471 7.20721925,6.3709893 6.95454545,6.63569519 C6.70187166,6.88836898 6.52139037,7.24933155 6.52139037,7.68248663 C6.52139037,8.29612299 6.87032086,8.63302139 7.13502674,8.80147059 C7.48395722,8.98195187 7.90508021,9.05414439 8.43449198,9.05414439 L10.0708556,9.05414439 L10.0708556,10.5100267 C9.63770053,10.7627005 9.20454545,10.9431818 8.68716578,11.0274064 C8.1697861,11.2078877 7.64037433,11.2800802 7.05080214,11.2800802 C5.93181818,11.2800802 5.06550802,10.9311497 4.47593583,10.1610963 C3.86229947,9.39104278 3.52540107,8.34425134 3.52540107,6.88836898 C3.52540107,6.20254011 3.60962567,5.58890374 3.77807487,5.07152406 C3.95855615,4.55414439 4.21122995,4.1209893 4.46390374,3.77205882 C4.71657754,3.42312834 5.14973262,3.15842246 5.5828877,3.00200535 C6.01604278,2.82152406 6.53342246,2.74933155 7.03877005,2.74933155 C7.54411765,2.74933155 7.98930481,2.83355615 8.33823529,3.00200535 C8.68716578,3.18248663 8.95187166,3.35093583 9.10828877,3.51938503 C9.28877005,3.77205882 9.62566845,4.13302139 9.87834225,4.63836898 L9.87834225,4.63836898 C10.0588235,4.81885027 10.2272727,4.98729947 10.4919786,5.15574866 C10.7446524,5.23997326 10.9251337,5.33622995 11.1778075,5.33622995 C11.6109626,5.33622995 12.0441176,5.15574866 12.2967914,4.90307487 C12.6457219,4.55414439 12.8141711,4.21724599 12.8141711,3.78409091 C12.8141711,3.43516043 12.7299465,3.01403743 12.4652406,2.58088235 C12.2005348,2.14772727 11.8516043,1.71457219 11.4184492,1.3776738 C10.9852941,1.02874332 10.3716578,0.69184492 9.68582888,0.427139037 C9,0.174465241 8.13368984,0.0782085561 7.26737968,0.0782085561 C6.14839572,0.0782085561 5.19786096,0.25868984 4.25935829,0.595588235 C3.39304813,0.944518717 2.62299465,1.36564171 2.00935829,2.05147059 C1.39572193,2.66510695 0.890374332,3.43516043 0.625668449,4.30147059 C0.276737968,5.16778075 0.10828877,6.11831551 0.10828877,7.23729947 C0.10828877,8.28409091 0.288770053,9.30681818 0.625668449,10.1731283 C0.97459893,11.0394385 1.39572193,11.809492 2.00935829,12.4231283 C2.62299465,13.0367647 3.39304813,13.5421123 4.25935829,13.8790107 C5.12566845,14.2279412 6.07620321,14.3963904 7.11096257,14.3963904 C7.97727273,14.3963904 8.84358289,14.3121658 9.61363636,14.0474599 C10.3836898,13.8669786 11.1657754,13.5300802 11.9358289,13.0969251 C12.1885027,12.9164439 12.4532086,12.7479947 12.7058824,12.5795455 C12.9585561,12.3990642 13.0548128,12.1463904 13.1390374,11.8937166 C13.223262,11.6410428 13.223262,11.3763369 13.223262,10.9431818 L13.223262,8.44050802 C13.223262,7.92312834 13.1390374,7.48997326 12.8743316,7.23729947 C12.8262032,6.6236631 12.4893048,6.44318182 12.1283422,6.3709893" id="Path" fill="#000000"></path>
                <path d="M25.0748663,11.0093583 L19.3836898,11.0093583 L19.3836898,8.07352941 L24.4612299,8.07352941 C24.9786096,8.07352941 25.3275401,7.89304813 25.6644385,7.72459893 C25.9171123,7.47192513 26.0975936,7.11096257 26.0975936,6.67780749 C26.0975936,6.24465241 25.9171123,5.90775401 25.6644385,5.63101604 C25.4117647,5.37834225 24.9786096,5.28208556 24.5454545,5.28208556 L19.4679144,5.28208556 L19.4679144,2.89973262 L24.9786096,2.89973262 C25.4959893,2.89973262 25.9291444,2.81550802 26.1818182,2.55080214 C26.434492,2.29812834 26.6149733,1.93716578 26.6149733,1.5040107 C26.6149733,1.07085561 26.434492,0.733957219 26.1818182,0.457219251 C25.9291444,0.180481283 25.4959893,0.10828877 24.9786096,0.10828877 L18.0842246,0.10828877 C17.6510695,0.10828877 17.3141711,0.192513369 17.0374332,0.288770053 C16.6885027,0.469251337 16.4237968,0.637700535 16.3516043,0.97459893 C16.171123,1.22727273 16.171123,1.66042781 16.171123,2.09358289 L16.171123,11.8395722 C16.171123,12.5254011 16.3516043,13.0427807 16.6885027,13.2954545 C17.0374332,13.644385 17.5548128,13.8128342 18.144385,13.8128342 L25.315508,13.8128342 C25.8328877,13.8128342 26.2660428,13.6323529 26.5187166,13.3796791 C26.7713904,13.1270053 26.9518717,12.7660428 26.9518717,12.3328877 C26.9518717,11.8997326 26.7713904,11.5628342 26.5187166,11.2860963 C26.013369,11.1898396 25.5802139,11.0093583 25.0748663,11.0093583" id="Path" fill="#000000"></path>
                <path d="M37.7566845,0.144385027 L29.3823529,0.144385027 C28.8649733,0.144385027 28.4318182,0.228609626 28.1791444,0.493315508 C27.8302139,0.745989305 27.6617647,1.10695187 27.6617647,1.61229947 C27.6617647,2.04545455 27.842246,2.38235294 28.0949198,2.65909091 C28.3475936,2.91176471 28.7807487,3.09224599 29.394385,3.09224599 L31.8850267,3.09224599 L31.8850267,12.1524064 C31.8850267,12.7660428 32.065508,13.2713904 32.3181818,13.6082888 C32.6671123,13.9572193 33.0882353,14.1256684 33.5213904,14.1256684 C34.0387701,14.1256684 34.3877005,13.9451872 34.7245989,13.6082888 C35.0735294,13.2593583 35.157754,12.7419786 35.157754,12.1524064 L35.157754,3.0802139 L37.6604278,3.0802139 C38.1778075,3.0802139 38.6109626,2.89973262 38.959893,2.64705882 C39.3088235,2.39438503 39.3930481,2.03342246 39.3930481,1.60026738 C39.3930481,1.1671123 39.2125668,0.830213904 38.959893,0.553475936 C38.7072193,0.32486631 38.2740642,0.144385027 37.7566845,0.144385027" id="Path" fill="#000000"></path>
                <path d="M55.6965241,6.52139037 C55.263369,6.17245989 54.7459893,5.90775401 54.0601604,5.7513369 C53.4465241,5.57085561 52.7606952,5.31818182 52.0748663,5.13770053 C51.4612299,4.95721925 51.1243316,4.88502674 50.8716578,4.78877005 C50.618984,4.70454545 50.4385027,4.60828877 50.1858289,4.53609626 C50.0053476,4.45187166 49.8368984,4.28342246 49.7526738,4.18716578 C49.6684492,4.10294118 49.5721925,3.93449198 49.5721925,3.7540107 C49.5721925,3.57352941 49.6564171,3.32085561 50.0053476,2.98395722 C50.3542781,2.73128342 50.8716578,2.63502674 51.3890374,2.63502674 C52.0026738,2.63502674 52.5080214,2.71925134 52.7727273,2.98395722 C53.0254011,3.23663102 53.290107,3.59759358 53.5427807,4.03074866 L53.5427807,4.03074866 C53.723262,4.37967914 53.9759358,4.71657754 54.1564171,4.89705882 C54.4090909,5.14973262 54.6737968,5.2459893 55.1069519,5.2459893 C55.540107,5.2459893 55.973262,5.06550802 56.2259358,4.72860963 C56.4786096,4.37967914 56.6590909,4.04278075 56.6590909,3.60962567 C56.6590909,3.17647059 56.5748663,2.83957219 56.3101604,2.40641711 C56.1296791,1.97326203 55.7927807,1.63636364 55.3596257,1.28743316 C54.9264706,0.938502674 54.4090909,0.673796791 53.8074866,0.421122995 C53.1938503,0.240641711 52.4237968,0.0721925134 51.6417112,0.0721925134 C50.5949198,0.0721925134 49.6564171,0.252673797 48.8863636,0.589572193 C48.1163102,0.938502674 47.4304813,1.35962567 46.9973262,1.97326203 C46.5641711,2.5868984 46.3114973,3.27272727 46.3114973,4.13903743 C46.3114973,5.00534759 46.4919786,5.69117647 46.9251337,6.20855615 C47.3582888,6.72593583 47.8756684,7.25534759 48.5614973,7.50802139 C49.2473262,7.76069519 50.0173797,8.12165775 50.9799465,8.27807487 C51.6657754,8.45855615 52.1831551,8.62700535 52.6163102,8.71122995 C52.9652406,8.79545455 53.302139,8.96390374 53.4826203,9.22860963 C53.6631016,9.40909091 53.7352941,9.66176471 53.7352941,9.9986631 C53.7352941,10.4318182 53.5548128,10.7687166 53.1216578,11.0454545 C52.6885027,11.394385 52.171123,11.4786096 51.4852941,11.4786096 C50.9679144,11.4786096 50.618984,11.394385 50.2820856,11.2259358 C50.0294118,11.0454545 49.7647059,10.8770053 49.5962567,10.6122995 C49.4157754,10.3596257 49.2473262,9.9986631 49.078877,9.66176471 C48.8983957,9.22860963 48.7299465,8.97593583 48.4652406,8.71122995 C48.2125668,8.45855615 47.8516043,8.36229947 47.5147059,8.36229947 C47.0815508,8.36229947 46.6483957,8.54278075 46.3957219,8.79545455 C46.1430481,9.04812834 45.9625668,9.48128342 45.9625668,9.9144385 C45.9625668,10.5280749 46.1430481,11.2139037 46.5762032,11.8034759 C47.0093583,12.4171123 47.526738,12.9224599 48.1283422,13.355615 C48.9946524,13.8729947 50.1136364,14.1256684 51.4973262,14.1256684 C52.6163102,14.1256684 53.5668449,13.9451872 54.4331551,13.5120321 C55.2994652,13.1631016 55.8890374,12.5614973 56.3221925,11.8756684 C56.7553476,11.1898396 57.0080214,10.4197861 57.0080214,9.55347594 C57.0080214,8.86764706 56.8275401,8.2540107 56.5748663,7.73663102 C56.5628342,7.29144385 56.2259358,6.88235294 55.6965241,6.52139037" id="Path" fill="#FFFFFF"></path>
                <path d="M68.7393048,11.0093583 L63.0481283,11.0093583 L63.0481283,8.07352941 L68.1256684,8.07352941 C68.6430481,8.07352941 68.9919786,7.89304813 69.328877,7.72459893 C69.5815508,7.47192513 69.7620321,7.11096257 69.7620321,6.67780749 C69.7620321,6.24465241 69.5815508,5.90775401 69.328877,5.63101604 C69.0762032,5.37834225 68.6430481,5.28208556 68.209893,5.28208556 L63.1323529,5.28208556 L63.1323529,2.89973262 L68.6430481,2.89973262 C69.1604278,2.89973262 69.5935829,2.81550802 69.8462567,2.55080214 C70.0989305,2.29812834 70.2794118,1.93716578 70.2794118,1.5040107 C70.2794118,1.07085561 70.0989305,0.733957219 69.8462567,0.457219251 C69.5935829,0.180481283 69.1604278,0.10828877 68.6430481,0.10828877 L61.7486631,0.10828877 C61.315508,0.10828877 60.9786096,0.192513369 60.7018717,0.288770053 C60.3529412,0.469251337 60.0882353,0.637700535 60.0160428,0.97459893 C59.8355615,1.22727273 59.8355615,1.66042781 59.8355615,2.09358289 L59.8355615,11.8395722 C59.8355615,12.5254011 60.0160428,13.0427807 60.3529412,13.2954545 C60.7018717,13.644385 61.2192513,13.8128342 61.8088235,13.8128342 L68.9799465,13.8128342 C69.4973262,13.8128342 69.9304813,13.6323529 70.1831551,13.3796791 C70.4358289,13.1270053 70.6163102,12.7660428 70.6163102,12.3328877 C70.6163102,11.8997326 70.4358289,11.5628342 70.1831551,11.2860963 C69.5815508,11.1898396 69.2446524,11.0093583 68.7393048,11.0093583" id="Path" fill="#FFFFFF"></path>
                <path d="M81.421123,0.144385027 L73.0467914,0.144385027 C72.5294118,0.144385027 72.0962567,0.228609626 71.8435829,0.493315508 C71.4946524,0.745989305 71.3262032,1.10695187 71.3262032,1.61229947 C71.3262032,2.04545455 71.5066845,2.38235294 71.7593583,2.65909091 C72.0120321,2.91176471 72.4451872,3.09224599 73.0588235,3.09224599 L75.5614973,3.09224599 L75.5614973,12.1524064 C75.5614973,12.7660428 75.7419786,13.2713904 75.9946524,13.6082888 C76.3435829,13.9572193 76.7647059,14.1256684 77.197861,14.1256684 C77.7152406,14.1256684 78.0641711,13.9451872 78.4010695,13.6082888 C78.75,13.2593583 78.8342246,12.7419786 78.8342246,12.1524064 L78.8342246,3.0802139 L81.3128342,3.0802139 C81.8302139,3.0802139 82.263369,2.89973262 82.6122995,2.64705882 C82.9612299,2.39438503 83.0454545,2.03342246 83.0454545,1.60026738 C83.0454545,1.1671123 82.8649733,0.830213904 82.6122995,0.553475936 C82.3716578,0.32486631 81.9385027,0.144385027 81.421123,0.144385027" id="Path" fill="#FFFFFF"></path>
                <path d="M99.6136364,1.26336898 C99.1804813,0.914438503 98.6631016,0.577540107 98.0614973,0.493315508 C97.447861,0.312834225 96.6778075,0.240641711 95.6430481,0.240641711 L92.2740642,0.240641711 C91.5882353,0.240641711 91.0708556,0.421122995 90.7219251,0.75802139 C90.3729947,1.10695187 90.2045455,1.62433155 90.2045455,2.31016043 L90.2045455,12.3208556 C90.2045455,12.934492 90.3850267,13.4398396 90.6377005,13.776738 C90.986631,14.1256684 91.407754,14.2941176 91.8409091,14.2941176 C92.3582888,14.2941176 92.7072193,14.1136364 93.0441176,13.776738 C93.3930481,13.4278075 93.4772727,12.9104278 93.4772727,12.3208556 L93.4772727,8.85561497 L95.4625668,8.85561497 C97.1951872,8.85561497 98.4705882,8.50668449 99.3368984,7.73663102 C100.203209,6.96657754 100.720588,5.84759358 100.720588,4.46390374 C100.720588,3.77807487 100.636364,3.1644385 100.371658,2.64705882 C100.311497,2.03342246 100.046791,1.60026738 99.6136364,1.26336898 M97.447861,4.53609626 C97.447861,4.96925134 97.3636364,5.22192513 97.1951872,5.48663102 C97.0147059,5.73930481 96.7620321,5.9197861 96.4251337,6.0040107 C96.0762032,6.08823529 95.5588235,6.18449198 94.9692513,6.18449198 L93.5855615,6.18449198 L93.5855615,2.97192513 L94.9692513,2.97192513 C96.2687166,2.97192513 96.7860963,3.22459893 97.0387701,3.40508021 C97.3756684,3.6697861 97.447861,4.01871658 97.447861,4.53609626" id="Shape" fill="#000000"></path>
                <path d="M112.379679,11.0093583 L106.688503,11.0093583 L106.688503,8.07352941 L111.766043,8.07352941 C112.283422,8.07352941 112.632353,7.89304813 112.969251,7.72459893 C113.221925,7.47192513 113.402406,7.11096257 113.402406,6.67780749 C113.402406,6.24465241 113.221925,5.90775401 112.969251,5.63101604 C112.716578,5.37834225 112.283422,5.28208556 111.850267,5.28208556 L106.772727,5.28208556 L106.772727,2.89973262 L112.283422,2.89973262 C112.800802,2.89973262 113.233957,2.81550802 113.486631,2.55080214 C113.739305,2.29812834 113.919786,1.93716578 113.919786,1.5040107 C113.919786,1.07085561 113.739305,0.733957219 113.486631,0.457219251 C113.233957,0.204545455 112.800802,0.10828877 112.283422,0.10828877 L105.389037,0.10828877 C104.955882,0.10828877 104.618984,0.192513369 104.342246,0.288770053 C103.993316,0.469251337 103.72861,0.637700535 103.656417,0.97459893 C103.475936,1.22727273 103.475936,1.66042781 103.475936,2.09358289 L103.475936,11.8395722 C103.475936,12.5254011 103.656417,13.0427807 103.993316,13.2954545 C104.342246,13.644385 104.859626,13.8128342 105.449198,13.8128342 L112.620321,13.8128342 C113.137701,13.8128342 113.570856,13.6323529 113.823529,13.3796791 C114.076203,13.1270053 114.256684,12.7660428 114.256684,12.3328877 C114.256684,11.8997326 114.076203,11.5628342 113.823529,11.2860963 C113.245989,11.1898396 112.909091,11.0093583 112.379679,11.0093583" id="Path" fill="#000000"></path>
                <path d="M126.28877,0.577540107 C126.036096,0.32486631 125.602941,0.144385027 124.989305,0.144385027 L116.614973,0.144385027 C116.097594,0.144385027 115.664439,0.228609626 115.411765,0.493315508 C115.062834,0.745989305 114.894385,1.10695187 114.894385,1.61229947 C114.894385,2.04545455 115.074866,2.38235294 115.32754,2.65909091 C115.580214,2.91176471 116.013369,3.09224599 116.627005,3.09224599 L119.129679,3.09224599 L119.129679,12.1524064 C119.129679,12.7660428 119.31016,13.2713904 119.562834,13.6082888 C119.911765,13.9572193 120.332888,14.1256684 120.766043,14.1256684 C121.283422,14.1256684 121.632353,13.9451872 121.969251,13.6082888 C122.318182,13.2593583 122.402406,12.7419786 122.402406,12.1524064 L122.402406,3.0802139 L124.90508,3.0802139 C125.42246,3.0802139 125.855615,2.89973262 126.204545,2.64705882 C126.553476,2.39438503 126.637701,2.03342246 126.637701,1.60026738 C126.794118,1.1671123 126.625668,0.830213904 126.28877,0.577540107" id="Path" fill="#000000"></path>
            </g>
        </g>
    </g>
</svg>