<?xml version="1.0" encoding="UTF-8" standalone="no"?>
<!DOCTYPE svg PUBLIC "-//W3C//DTD SVG 1.1//EN" "http://www.w3.org/Graphics/SVG/1.1/DTD/svg11.dtd">
<svg width="100%" height="100%" viewBox="0 0 58 58" version="1.1" xmlns="http://www.w3.org/2000/svg" xmlns:xlink="http://www.w3.org/1999/xlink" xml:space="preserve" xmlns:serif="http://www.serif.com/" style="fill-rule:evenodd;clip-rule:evenodd;stroke-linejoin:round;stroke-miterlimit:1.41421;">
    <g id="canvas_background" transform="matrix(1,0,0,1,-11,-11)">
        <rect x="-1" y="-1" width="82" height="82" style="fill:none;"/>
    </g>
    <g id="svg_1" transform="matrix(1,0,0,1,-11,-11)">
        <path d="M68.352,17.982C69.216,18.846 69.216,20.262 68.352,21.126L51.027,38.435C50.163,39.296 50.163,40.715 51.027,41.582L68.343,58.895C69.207,59.759 69.207,61.176 68.343,62.042L62.036,68.328C61.169,69.189 59.75,69.189 58.883,68.328L41.572,51.017C40.708,50.153 39.286,50.153 38.422,51.017L21.098,68.317C20.234,69.181 18.812,69.181 17.948,68.317L11.648,62.023C10.784,61.159 10.784,59.743 11.648,58.876L28.979,41.571C29.843,40.709 29.843,39.29 28.979,38.424L11.662,21.107C10.795,20.243 10.795,18.824 11.662,17.96L17.967,11.672C18.837,10.81 20.253,10.81 21.12,11.674L38.428,28.983C39.295,29.85 40.714,29.85 41.578,28.985L58.902,11.685C59.764,10.824 61.183,10.824 62.052,11.685L68.352,17.982L68.352,17.982Z" style="fill:rgb(227,88,88);fill-rule:nonzero;"/>
    </g>
</svg>
