<svg width="52" height="33" viewBox="0 0 52 33" fill="none" xmlns="http://www.w3.org/2000/svg">
<path d="M2.38422 9.26414C2.38422 9.84298 2.38422 10.3152 2.38422 10.7874C2.38368 11.0591 2.41443 11.33 2.4757 11.5947C2.59722 12.1233 2.82277 12.6224 3.13935 13.0628C3.45592 13.5032 3.85704 13.8762 4.31936 14.1598C4.78168 14.4434 5.29598 14.6321 5.83203 14.7148C6.36809 14.7974 6.91511 14.7725 7.4414 14.6413C8.20818 14.5207 8.9122 14.1456 9.43995 13.5764C9.96769 13.0072 10.2885 12.277 10.3509 11.5033C10.3509 11.3663 10.3509 11.2292 10.3509 11.0921C10.3757 10.9045 10.4655 10.7317 10.6047 10.6036C10.7439 10.4755 10.9236 10.4004 11.1125 10.3913C11.3184 10.3767 11.5224 10.4386 11.6854 10.5651C11.8485 10.6916 11.9591 10.8738 11.9962 11.0768C12.055 11.2699 12.0907 11.4694 12.1027 11.6709C12.163 12.3057 12.4089 12.9086 12.8098 13.4043C13.2108 13.9001 13.749 14.2668 14.3571 14.4585C15.2586 14.7973 16.2424 14.8505 17.1751 14.6108C17.9434 14.4912 18.6462 14.1082 19.1631 13.5274C19.68 12.9466 19.9788 12.2041 20.0084 11.4272C20.0021 11.3257 20.0021 11.224 20.0084 11.1225C20.0379 10.918 20.1406 10.7312 20.2975 10.5967C20.4544 10.4622 20.6549 10.3892 20.8615 10.3913C21.069 10.3859 21.2712 10.4577 21.4288 10.5927C21.5864 10.7278 21.6881 10.9166 21.7144 11.1225C21.7302 11.2897 21.7302 11.458 21.7144 11.6252C21.7587 12.1018 21.9089 12.5625 22.154 12.9736C22.3991 13.3847 22.733 13.7359 23.1312 14.0015C23.8722 14.4659 24.7251 14.721 25.5994 14.7397C26.4737 14.7585 27.3368 14.5403 28.097 14.1081C28.4886 13.8859 28.8274 13.5816 29.0904 13.2161C29.3533 12.8507 29.5341 12.4327 29.6203 11.9908L29.7574 11.1834C29.7573 10.976 29.8388 10.7768 29.984 10.6287C30.1293 10.4805 30.3268 10.3953 30.5342 10.3913C31.0065 10.3913 31.2958 10.6198 31.4329 11.1834C31.4329 11.4119 31.433 11.6557 31.5549 11.8842C31.6535 12.5314 31.9579 13.1296 32.4231 13.5902C33.2411 14.3254 34.2969 14.7409 35.3965 14.7605C36.4962 14.7801 37.566 14.4024 38.4096 13.6968C38.9782 13.1444 39.3386 12.4127 39.4301 11.6252C39.4357 11.388 39.4716 11.1526 39.5368 10.9245C39.5877 10.7614 39.6919 10.6201 39.8329 10.5234C39.9738 10.4267 40.1432 10.3802 40.3137 10.3913C40.504 10.3807 40.6921 10.4353 40.8472 10.5461C41.0023 10.6569 41.115 10.8172 41.1666 11.0007C41.1817 11.2035 41.1817 11.4071 41.1666 11.61C41.238 12.3291 41.5369 13.0068 42.0198 13.5445C42.6943 14.1805 43.5529 14.5864 44.4724 14.7041C45.3919 14.8217 46.325 14.6451 47.1379 14.1995C47.9463 13.7075 48.5651 12.9571 48.894 12.0697C49.223 11.1823 49.2428 10.2099 48.9505 9.30983L2.38422 9.26414ZM3.37438 7.40574H48.4022C48.2042 7.04016 48.0824 6.7812 47.9301 6.52224C47.1684 5.34932 46.4068 4.20687 45.6452 3.00349C45.4951 2.70401 45.2571 2.45747 44.9631 2.29687C44.6691 2.13627 44.333 2.06923 43.9999 2.10474C31.9051 2.10474 19.8257 2.10474 7.73092 2.10474H7.12157C6.96814 2.09 6.8139 2.12125 6.67827 2.19448C6.54265 2.26772 6.43176 2.37965 6.35993 2.51603C5.40027 4.0393 4.42533 5.56259 3.45043 6.97923C3.43593 7.11594 3.43593 7.25378 3.45043 7.3905M40.466 14.23C39.8515 14.9194 39.0982 15.471 38.2555 15.8488C37.4128 16.2265 36.4998 16.4218 35.5764 16.4218C34.6529 16.4218 33.7398 16.2265 32.8971 15.8488C32.0544 15.471 31.301 14.9194 30.6865 14.23C30.0958 14.94 29.3515 15.5064 28.5097 15.8864C27.6678 16.2664 26.7506 16.4501 25.8274 16.4235C24.9044 16.442 23.9896 16.2467 23.1546 15.853C22.3196 15.4592 21.5868 14.8777 21.0138 14.1538C20.4306 14.8778 19.6896 15.4586 18.8473 15.852C18.0051 16.2454 17.0841 16.4409 16.1546 16.4235C15.1878 16.4378 14.2307 16.2279 13.3586 15.8103C12.4864 15.3928 11.7229 14.7788 11.1278 14.0167C10.9726 14.3166 10.7835 14.5977 10.5642 14.8545C9.92297 15.4452 9.15996 15.8879 8.32892 16.1514C7.49788 16.4149 6.61909 16.4927 5.75468 16.3794C4.89027 16.266 4.06127 15.9644 3.32622 15.4956C2.59118 15.0268 1.96808 14.4024 1.50079 13.6664C0.99783 12.8465 0.704747 11.9152 0.647667 10.955V10.8636C0.476691 10.0253 0.504794 9.15864 0.729669 8.33322C0.954544 7.5078 1.36988 6.74664 1.94241 6.11095C2.94777 4.58768 3.98359 3.06441 4.98895 1.46497C5.18793 1.09115 5.49091 0.782926 5.86123 0.577496C6.23154 0.372066 6.65335 0.278222 7.07583 0.307293C19.6682 0.307293 32.2708 0.307293 44.8835 0.307293C45.2539 0.274355 45.6257 0.350551 45.9533 0.526501C46.2808 0.70245 46.5496 0.970443 46.7266 1.29741C47.9909 3.32336 49.3163 5.31885 50.6415 7.2991C50.9547 7.74401 51.115 8.27854 51.0984 8.82237C51.0984 9.49261 51.0984 10.1781 51.0984 10.8636C51.0749 11.6955 50.8698 12.5123 50.4976 13.2568C50.1254 14.0012 49.595 14.6553 48.9435 15.1733C48.292 15.6913 47.5352 16.0607 46.7261 16.2556C45.9169 16.4505 45.0748 16.4662 44.2589 16.3016C42.784 16.0977 41.4347 15.3608 40.466 14.23Z" fill="black"/>
<path d="M24.4727 25.9265C24.216 25.9265 24.065 25.851 23.8988 25.851H7.54243C7.33131 25.8713 7.12336 25.9169 6.92316 25.9869C6.72264 27.544 6.75838 29.1224 7.02898 30.6688C8.53926 30.85 23.7478 30.7745 24.4727 30.5631V25.9265ZM6.83264 24.0085C8.20699 24.2501 23.6873 24.2048 24.5179 24.0085V15.5962H26.2699C26.2699 20.5953 26.2699 25.6245 26.2699 30.699C28.8525 30.699 31.3746 30.699 33.8213 30.699C34.0675 28.1489 34.1028 25.5828 33.9269 23.0268L32.8849 22.9513C32.311 22.9513 31.9486 22.5284 31.9788 22.0451C32.009 21.5618 32.3412 21.3504 32.9 21.2749L34.0176 21.1994V15.5207H35.7545V21.2145C36.1217 21.1956 36.4897 21.1956 36.8569 21.2145C37.4157 21.2145 37.7328 21.5769 37.7479 22.0149C37.7631 22.4529 37.4308 22.8305 36.8418 22.8909H35.9508C35.7291 25.4334 35.7291 27.9904 35.9508 30.5329H43.8344C43.8344 27.9956 43.8344 25.5037 43.8344 22.9815C43.8344 20.4593 43.8344 17.9825 43.8344 15.4301H45.5561V30.5329L48.7882 30.6235V32.2999H1.8186V30.6386H5.12602C5.12602 30.1402 5.23166 29.7475 5.23166 29.3549V15.3999H6.86287C6.96859 16.291 6.86287 17.2273 6.86287 18.1637C6.86287 19.1001 6.86287 20.0516 6.86287 21.003L6.83264 24.0085Z" fill="black"/>
<path d="M25.7829 15.8084C25.6075 16.1975 25.3863 16.5641 25.1234 16.9003C24.1453 17.9239 23.1442 18.9475 22.1206 19.9257C22.003 20.0778 21.854 20.2028 21.6838 20.2923C21.5137 20.3818 21.3263 20.4337 21.1343 20.4445C20.9423 20.4553 20.7503 20.4247 20.5712 20.3548C20.392 20.2849 20.23 20.1773 20.0961 20.0394C19.5956 19.4934 19.6413 18.8338 20.2782 18.1514C21.3018 17.0823 22.3482 16.0586 23.3946 15.0123C23.5775 14.789 23.8355 14.6404 24.1204 14.5943C24.4053 14.5482 24.6973 14.6079 24.9412 14.762C25.2654 15.0734 25.5482 15.425 25.7829 15.8084Z" fill="black"/>
</svg>
