<svg width="36" height="35" viewBox="0 0 36 35" fill="none" xmlns="http://www.w3.org/2000/svg">
<path d="M18 2.84064L20.5393 1.2998L22.4746 3.54327L25.359 2.8653L26.5054 5.60182L29.4515 5.84835L29.698 8.80675L32.4346 9.95314L31.7565 12.8376L34 14.7729L32.4592 17.2998L34 19.8391L31.7565 21.7744L32.4346 24.6589L29.698 25.8052L29.4515 28.7513L26.5054 28.9978L25.359 31.7344L22.4746 31.0564L20.5393 33.2999L18 31.759L15.473 33.2999L13.5377 31.0564L10.6533 31.7344L9.5069 28.9978L6.54855 28.7513L6.302 25.8052L3.56544 24.6589L4.24346 21.7744L2 19.8391L3.54083 17.2998L2 14.7729L4.24346 12.8376L3.56544 9.95314L6.302 8.80675L6.54855 5.84835L9.5069 5.60182L10.6533 2.8653L13.5377 3.54327L15.473 1.2998L18 2.84064Z" stroke="black" stroke-width="2" stroke-miterlimit="10"/>
<path d="M9.50726 23.3891C9.08732 23.4064 8.66816 23.3393 8.27459 23.1919L8.38556 22.2674C8.73017 22.3901 9.09225 22.4567 9.45798 22.4646C9.83123 22.4622 10.2017 22.3998 10.5551 22.2797C10.8967 22.1859 11.2073 22.003 11.4549 21.7496C11.5393 21.6485 11.5962 21.5272 11.62 21.3977C11.6437 21.2681 11.6335 21.1345 11.5905 21.01C11.5574 20.9023 11.4949 20.8059 11.4099 20.7318C11.3249 20.6578 11.221 20.609 11.1097 20.5909C10.7252 20.5388 10.3355 20.5388 9.951 20.5909C9.33461 20.6888 8.70448 20.6552 8.102 20.4923C7.88629 20.414 7.69285 20.2844 7.53826 20.1148C7.38366 19.9451 7.27257 19.7405 7.21452 19.5185C7.10428 19.1779 7.10428 18.8113 7.21452 18.4707C7.32091 18.1131 7.52595 17.7926 7.80617 17.5462C8.1434 17.2607 8.53266 17.043 8.95254 16.9052C9.35106 16.7774 9.7667 16.7109 10.1852 16.708C10.5632 16.7088 10.9369 16.7885 11.2823 16.9422L11.1837 17.8667C10.5515 17.609 9.84867 17.5828 9.19909 17.7928C8.86976 17.8812 8.57655 18.071 8.36089 18.3351C8.27848 18.4423 8.22404 18.5682 8.20252 18.7017C8.18099 18.8351 8.1931 18.9718 8.23765 19.0994C8.26736 19.2126 8.32809 19.3153 8.41303 19.3959C8.49796 19.4765 8.60368 19.5318 8.71833 19.5555C9.09452 19.6081 9.47626 19.6081 9.85244 19.5555C10.3034 19.5127 10.7574 19.5127 11.2083 19.5555C11.5299 19.5785 11.84 19.6847 12.1082 19.8636C12.3581 20.0459 12.5403 20.3061 12.6259 20.6032C12.7369 20.9395 12.7369 21.3025 12.6259 21.6387C12.5011 21.9897 12.284 22.3006 11.9973 22.5385C11.6306 22.8281 11.2123 23.0456 10.7646 23.1795C10.3268 23.3232 9.86936 23.3981 9.40862 23.4014" fill="black"/>
<path d="M14.8569 19.259L17.0634 18.5441L15.1157 16.3006L14.8569 19.259ZM18.7645 20.4917L17.7044 19.259L14.7706 20.2205L14.6227 21.8353L13.5256 22.1928L14.2652 15.2405L15.1528 14.957L19.8492 20.1342L18.7645 20.4917Z" fill="black"/>
<path d="M20.5026 19.9373L18.5304 13.8726L19.6151 13.5151L21.3039 18.68L24.1021 17.7678L24.3979 18.6677L20.5026 19.9373Z" fill="black"/>
<path d="M25.2236 18.3958L23.2513 12.331L27.2699 11.0244L27.5533 11.8996L24.5949 12.8611L25.1496 14.5375L27.9231 13.6377L28.2066 14.5005L25.4331 15.4004L26.0125 17.1878L28.9586 16.2263L29.2421 17.1015L25.2236 18.3958Z" fill="black"/>
</svg>
