<svg width="26" height="27" viewBox="0 0 26 27" fill="none" xmlns="http://www.w3.org/2000/svg">
<path d="M14.6958 20.9991C14.6972 20.8722 14.6733 20.7463 14.6254 20.6288C14.5775 20.5113 14.5067 20.4045 14.4169 20.3148C14.3272 20.225 14.2204 20.1542 14.1029 20.1063C13.9854 20.0584 13.8595 20.0345 13.7326 20.0359C13.6005 20.0358 13.4697 20.0623 13.3481 20.1138C13.2264 20.1654 13.1164 20.2408 13.0245 20.3357C12.9327 20.4306 12.8609 20.5431 12.8133 20.6663C12.7658 20.7896 12.7434 20.9211 12.7478 21.0532C12.7483 21.1894 12.7777 21.324 12.8341 21.448C12.8904 21.5721 12.9725 21.6828 13.0747 21.7728C13.177 21.8628 13.2971 21.9301 13.4273 21.9702C13.5575 22.0103 13.6948 22.0223 13.83 22.0055C13.9565 22.0014 14.0811 21.9719 14.1959 21.9186C14.3108 21.8654 14.4137 21.7895 14.4986 21.6956C14.5834 21.6016 14.6484 21.4915 14.6897 21.3718C14.7311 21.2521 14.7479 21.1254 14.7391 20.9991M4.83701 11.5082C4.83701 12.4605 4.83701 13.3479 4.83701 14.2353C4.81445 16.6611 5.33577 19.0611 6.36281 21.2588C6.88766 22.4369 7.73112 23.445 8.79801 24.1697C9.86491 24.8943 11.1129 25.3067 12.4015 25.3603C13.6775 25.4579 14.955 25.1927 16.0867 24.5952C17.2184 23.9978 18.1582 23.0925 18.7974 21.9839C18.8948 21.8215 18.9704 21.6484 19.1111 21.3778L17.6718 21.5726C17.2281 21.6267 16.7845 21.6375 16.3516 21.7349C16.1144 21.7862 15.9032 21.9205 15.7563 22.1137C15.5494 22.4794 15.2464 22.7816 14.8802 22.9876C14.514 23.1936 14.0984 23.2955 13.6785 23.2825C13.148 23.2698 12.6393 23.0691 12.2429 22.7164C11.8465 22.3636 11.5883 21.8816 11.5141 21.3562C11.4448 20.8278 11.5598 20.2917 11.8397 19.8383C12.1196 19.3849 12.5474 19.0419 13.0508 18.8671C13.5707 18.7016 14.1331 18.7325 14.6317 18.9539C15.1303 19.1753 15.5305 19.5718 15.7563 20.0684C15.7988 20.1993 15.8896 20.3092 16.0102 20.3755C16.1309 20.4419 16.2723 20.4597 16.4056 20.4255C17.3471 20.2956 18.2995 20.1658 19.241 20.0684C19.4024 20.0612 19.5568 19.9996 19.6786 19.8934C19.8005 19.7873 19.8827 19.6429 19.9119 19.484C20.5181 17.3755 20.7777 15.1825 20.6804 12.9908C20.6905 12.807 20.6905 12.6227 20.6804 12.4389L20.1501 12.5038C19.4667 12.6198 18.7667 12.5952 18.0931 12.4314C17.4195 12.2677 16.7863 11.9683 16.2324 11.5515C16.1067 11.4246 15.9408 11.3454 15.7631 11.3276C15.5853 11.3098 15.4069 11.3546 15.2586 11.4541C12.8621 12.6739 10.1019 12.9742 7.49917 12.2982C6.66588 12.0818 5.85429 11.7787 4.85867 11.4541M4.27424 19.3758C4.27424 19.1377 4.20934 18.9429 4.16605 18.7481C3.5358 16.0957 3.43281 13.3453 3.863 10.6533C4.02533 9.79833 4.36075 9.65763 5.15075 10.0689C6.61584 10.8665 8.24551 11.3147 9.91244 11.3783C11.8345 11.4404 13.7343 10.9523 15.3884 9.97147C15.481 9.90269 15.5864 9.8531 15.6985 9.82563C15.8105 9.79816 15.927 9.79335 16.0409 9.8115C16.1548 9.82964 16.2639 9.87037 16.3619 9.9313C16.4599 9.99222 16.5447 10.0721 16.6113 10.1663C17.0246 10.5742 17.5185 10.8912 18.0614 11.097C19.0003 11.3785 20.0012 11.3785 20.9401 11.097C21.6111 10.9455 21.914 11.097 21.9248 11.7679C21.9248 13.3696 21.9248 15.0145 21.8166 16.562C21.7047 17.5581 21.5422 18.5478 21.3297 19.5273L23.2775 18.6182C23.4508 18.557 23.5969 18.4366 23.69 18.2782C23.783 18.1198 23.8172 17.9336 23.7863 17.7525C23.6456 15.6963 23.6347 13.6185 23.3534 11.5731C23.0254 9.19847 22.0647 6.95574 20.572 5.07994C16.6329 0.145127 7.46665 0.166776 3.92787 6.72488C2.4278 9.71718 1.68462 13.0318 1.76347 16.3781C1.76347 18.6182 1.83929 18.7373 3.99286 19.4082C3.99286 19.4082 4.07941 19.4082 4.23091 19.4082M0.551419 16.4647C0.440526 13.3521 0.986358 10.2511 2.15318 7.36338C3.03709 5.096 4.64201 3.18223 6.72081 1.91696C8.7996 0.65169 11.2369 0.105146 13.6569 0.361566C18.5701 0.675403 21.7408 3.39173 23.5589 7.82873C24.8022 11.2587 25.2823 14.9187 24.9658 18.5533C24.9527 18.689 24.9088 18.82 24.8376 18.9362C24.7663 19.0525 24.6696 19.151 24.5546 19.2243C23.569 19.7811 22.5498 20.2763 21.5029 20.7069C21.2504 20.7815 21.0166 20.9088 20.817 21.0804C20.6174 21.2521 20.4565 21.4641 20.3448 21.7025C19.6878 23.1807 18.6132 24.4348 17.2531 25.3105C15.8929 26.1861 14.3066 26.6453 12.689 26.6315C11.0714 26.6177 9.49306 26.1316 8.14806 25.2328C6.80306 24.334 5.75007 23.0618 5.11839 21.5726C5.02619 21.3783 4.895 21.2051 4.73304 21.0636C4.57108 20.9221 4.3818 20.8154 4.17688 20.7502C3.09075 20.3127 2.03184 19.8104 1.00599 19.2459C0.878638 19.145 0.773481 19.019 0.69713 18.8756C0.620779 18.7322 0.574843 18.5746 0.562251 18.4126C0.529765 17.7637 0.529765 17.1136 0.562251 16.4647" fill="black"/>
</svg>
