<svg width="19" height="20" viewBox="0 0 19 20" fill="none" xmlns="http://www.w3.org/2000/svg">
<path d="M11.3797 7.70591H9.36751V5.69372C9.36751 5.2325 8.99609 4.86108 8.53488 4.86108C8.07367 4.86108 7.70225 5.2325 7.70225 5.69372V7.70591H5.69005C5.22884 7.70591 4.85742 8.07733 4.85742 8.53854C4.85742 8.99975 5.22884 9.37117 5.69005 9.37117H7.70225V11.3834C7.70225 11.8446 8.07367 12.216 8.53488 12.216C8.99609 12.216 9.36751 11.8446 9.36751 11.3834V9.37117H11.3797C11.8409 9.37117 12.2123 8.99975 12.2123 8.53854C12.2123 8.07733 11.8368 7.70591 11.3797 7.70591Z" fill="#666666"/>
<path d="M8.53856 15.3996C4.74682 15.3996 1.67343 12.3303 1.67343 8.53856C1.67343 4.74682 4.74682 1.67751 8.53856 1.67751C12.3303 1.67751 15.3996 4.7509 15.3996 8.53856C15.3996 12.3262 12.3262 15.3996 8.53856 15.3996ZM18.6755 17.8204L15.1302 13.9588C16.3424 12.4854 17.073 10.5956 17.073 8.53856C17.073 3.82439 13.2527 0 8.53448 0C3.81623 0 0 3.82439 0 8.53856C0 13.2527 3.82031 17.0771 8.53856 17.0771C10.5956 17.0771 12.4813 16.3506 13.9547 15.1384L17.5 19C17.7122 19.2163 18.3612 19.3224 18.6796 19C19.002 18.6735 19.002 18.147 18.6755 17.8204Z" fill="#666666"/>
</svg>
